<?xml version="1.0" encoding="UTF-8" standalone="no"?>
<!-- Created with Inkscape (http://www.inkscape.org/) -->

<svg
   width="210mm"
   height="297mm"
   viewBox="0 0 210 297"
   version="1.1"
   id="svg1625"
   inkscape:version="1.2.2 (732a01da63, 2022-12-09)"
   sodipodi:docname="acores.svg"
   xmlns:inkscape="http://www.inkscape.org/namespaces/inkscape"
   xmlns:sodipodi="http://sodipodi.sourceforge.net/DTD/sodipodi-0.dtd"
   xmlns="http://www.w3.org/2000/svg"
   xmlns:svg="http://www.w3.org/2000/svg">
  <sodipodi:namedview
     id="namedview1627"
     pagecolor="#ffffff"
     bordercolor="#000000"
     borderopacity="0.25"
     inkscape:showpageshadow="2"
     inkscape:pageopacity="0.0"
     inkscape:pagecheckerboard="0"
     inkscape:deskcolor="#d1d1d1"
     inkscape:document-units="mm"
     showgrid="false"
     inkscape:zoom="2.3786088"
     inkscape:cx="399.60333"
     inkscape:cy="572.60362"
     inkscape:window-width="2560"
     inkscape:window-height="1494"
     inkscape:window-x="-11"
     inkscape:window-y="-11"
     inkscape:window-maximized="1"
     inkscape:current-layer="layer1" />
  <defs
     id="defs1622" />
  <g
     inkscape:label="Calque 1"
     inkscape:groupmode="layer"
     id="layer1">
    <path
       class="Canary Islands (Spain)"
       d="m 103.61794,190.30789 -0.0794,0.13229 -0.10584,0.13229 -0.0794,-0.10583 h -0.10584 l -0.0529,-0.0529 0.0529,-0.0794 0.10584,0.0265 0.10583,-0.10584 0.0794,-0.0529 0.0529,0.0265 z"
       id="path911"
       style="fill:#ececec;stroke:#000000;stroke-width:0.0529167;stroke-linecap:round;stroke-linejoin:round" />
    <path
       class="Canary Islands (Spain)"
       d="m 107.21627,189.69935 v 0.13229 l 0.0529,0.10583 -0.0529,0.18521 0.0265,0.0794 -0.10583,0.10583 -0.13229,0.0529 -0.0529,0.0529 -0.15875,-0.0529 -0.13229,-0.1323 -0.0529,-0.10583 v -0.15875 l 0.15875,-0.10583 0.0265,-0.13229 v -0.0529 l 0.15875,0.0265 h 0.10583 l 0.0794,0.0265 z"
       id="path913"
       style="fill:#ececec;stroke:#000000;stroke-width:0.0529167;stroke-linecap:round;stroke-linejoin:round" />
    <path
       class="Canary Islands (Spain)"
       d="m 104.5969,189.91101 h -0.0529 l -0.0794,-0.0529 -0.0529,-0.0794 0.0265,-0.10583 0.0265,-0.0794 h 0.0794 0.0794 l 0.13229,0.10584 0.0265,0.0794 -0.13229,0.13229 z"
       id="path915"
       style="fill:#ececec;stroke:#000000;stroke-width:0.0529167;stroke-linecap:round;stroke-linejoin:round" />
    <path
       class="Canary Islands (Spain)"
       d="m 106.21086,188.98497 v 0.0529 l -0.15875,0.0794 -0.10584,0.1323 -0.0794,0.0529 v 0.10584 l -0.10583,0.1852 -0.0265,0.10584 -0.13229,0.15875 -0.0265,0.0529 h -0.0529 l -0.15875,0.0529 -0.0265,-0.0265 -0.0265,-0.10583 -0.0794,-0.10583 -0.0265,-0.0529 -0.0529,-0.0794 v -0.0794 l -0.10583,-0.15875 0.13229,-0.0794 0.0794,0.0529 0.15875,-0.0529 h 0.10583 l 0.13229,-0.0529 0.13229,-0.10584 v -0.0529 l 0.15875,-0.0794 h 0.15875 l 0.0794,-0.0265 z"
       id="path917"
       style="fill:#ececec;stroke:#000000;stroke-width:0.0529167;stroke-linecap:round;stroke-linejoin:round" />
    <path
       class="Canary Islands (Spain)"
       d="m 108.90961,189.72581 -0.0794,0.10583 -0.10583,0.0265 -0.0794,-0.0265 h -0.10583 v -0.0529 h 0.0794 l 0.15875,-0.0529 0.10583,-0.0794 0.0794,-0.0794 0.0265,-0.1323 0.0265,-0.0794 0.0529,-0.13229 0.0794,-0.10584 0.0794,-0.15875 0.0529,-0.21166 0.0529,-0.0529 0.10583,-0.0265 0.0794,0.0794 0.0265,0.13229 -0.0265,0.13229 -0.0265,0.13229 v 0.13229 l -0.0265,0.0265 -0.0794,0.18521 -0.0794,0.0794 -0.15875,0.0265 -0.18521,0.0794 z"
       id="path919"
       style="fill:#ececec;stroke:#000000;stroke-width:0.0529167;stroke-linecap:round;stroke-linejoin:round" />
    <path
       class="Canary Islands (Spain)"
       d="m 103.72377,188.53518 0.0794,-0.0265 0.0529,0.0794 0.0529,0.13229 -0.0529,0.0794 0.0264,0.10584 -0.15875,0.26458 -0.0264,-0.0265 -0.0265,-0.10583 -0.10584,-0.23813 -0.0264,-0.0794 -0.0265,-0.0529 0.0529,-0.10583 0.0794,-0.0529 z"
       id="path921"
       style="fill:#ececec;stroke:#000000;stroke-width:0.0529167;stroke-linecap:round;stroke-linejoin:round" />
    <path
       class="Canary Islands (Spain)"
       d="m 110.10023,188.00601 v 0.10584 l -0.0529,0.13229 -0.18521,0.13229 -0.13229,0.0265 -0.10584,0.13229 -0.13229,-0.0529 v -0.0264 l 0.0529,-0.10584 v -0.10583 l 0.0529,-0.0794 0.0794,-0.0529 h 0.0794 l 0.0794,-0.0794 h 0.13229 l 0.0265,-0.0265 0.0529,-0.13229 0.0529,-0.0265 0.0529,0.0529 z"
       id="path923"
       style="fill:#ececec;stroke:#000000;stroke-width:0.0529167;stroke-linecap:round;stroke-linejoin:round" />
  </g>
</svg>
