<?xml version="1.0" encoding="UTF-8" standalone="no"?>
<!-- Created with Inkscape (http://www.inkscape.org/) -->

<svg
   width="210mm"
   height="297mm"
   viewBox="0 0 210 297"
   version="1.1"
   id="svg1625"
   inkscape:version="1.2.2 (732a01da63, 2022-12-09)"
   sodipodi:docname="europe.svg"
   xmlns:inkscape="http://www.inkscape.org/namespaces/inkscape"
   xmlns:sodipodi="http://sodipodi.sourceforge.net/DTD/sodipodi-0.dtd"
   xmlns="http://www.w3.org/2000/svg"
   xmlns:svg="http://www.w3.org/2000/svg">
  <sodipodi:namedview
     id="namedview1627"
     pagecolor="#ffffff"
     bordercolor="#000000"
     borderopacity="0.25"
     inkscape:showpageshadow="2"
     inkscape:pageopacity="0.0"
     inkscape:pagecheckerboard="0"
     inkscape:deskcolor="#d1d1d1"
     inkscape:document-units="mm"
     showgrid="false"
     inkscape:zoom="2.3786088"
     inkscape:cx="507.22927"
     inkscape:cy="553.68499"
     inkscape:window-width="2560"
     inkscape:window-height="1494"
     inkscape:window-x="-11"
     inkscape:window-y="-11"
     inkscape:window-maximized="1"
     inkscape:current-layer="layer1" />
  <defs
     id="defs1622" />
  <g
     inkscape:label="Calque 1"
     inkscape:groupmode="layer"
     id="layer1">
    <path
       class="Angola"
       d="m 62.970858,241.29832 0.15875,0.52917 -0.185209,0.82021 0.238125,0.79375 -0.238125,0.635 0.105834,0.58208 -3.095625,-0.0265 -0.211667,5.42396 0.9525,1.37584 0.9525,1.05833 -2.751667,0.68792 -3.571875,-0.23813 -1.005416,-0.79375 -6.006042,0.0529 -0.211666,0.13229 -0.873125,-0.76729 -0.9525,-0.0529 -0.899584,0.29104 -0.714375,0.3175 -0.132291,-1.05833 0.238125,-1.50813 0.529166,-1.56104 0.07937,-0.71437 0.502709,-1.53459 0.370416,-0.68791 0.873125,-1.11125 0.502709,-0.76729 0.15875,-1.24355 -0.07938,-0.97895 -0.423334,-0.60855 -0.396875,-1.03187 -0.343958,-1.00542 0.07937,-0.37041 0.449792,-0.66146 -0.423334,-1.64042 -0.3175,-1.13771 -0.740833,-1.08479 0.15875,-0.3175 0.608542,-0.23812 0.449791,0.0265 0.529167,-0.1852 4.418541,0.0265 0.343959,1.24355 0.423333,1.03187 0.343958,0.55563 0.555625,0.87312 1.005417,-0.13229 0.47625,-0.23813 0.820208,0.23813 0.238125,-0.42333 0.396875,-0.97896 0.926042,-0.0794 0.07937,-0.29104 h 0.767292 l -0.132292,0.60854 1.799167,-0.0265 0.02646,1.0848 0.291042,0.635 -0.238125,1.03187 0.105833,1.05833 0.47625,0.635 -0.105833,2.01084 0.370416,-0.15875 0.635,0.0529 0.926042,-0.26458 z"
       id="path183"
       style="fill:#ececec;stroke:#000000;stroke-width:0.0529167;stroke-linecap:round;stroke-linejoin:round" />
    <path
       class="Angola"
       d="m 45.534816,232.56707 -0.396875,-1.27 0.608542,-0.74083 0.449792,-0.29104 0.555625,0.58208 -0.529167,0.37042 -0.264583,0.42333 -0.05292,0.74084 z"
       id="path185"
       style="fill:#ececec;stroke:#000000;stroke-width:0.0529167;stroke-linecap:round;stroke-linejoin:round" />
    <path
       d="m 54.186691,150.28166 0.105833,0.3175 0.370417,-0.15875 0.3175,0.44979 0.343958,0.18521 0.15875,0.60854 -0.132291,0.58208 0.264583,0.71438 0.608542,0.39687 0.02646,0.4498 -0.449792,0.23812 -0.02646,0.55563 -0.582083,0.8202 -0.238125,-0.10583 -0.05292,-0.37042 -0.820208,-0.58208 -0.185209,-0.79375 0.02646,-1.16417 0.132291,-0.5027 -0.238125,-0.26459 -0.132291,-0.55562 z"
       id="AL"
       name="Albania"
       style="fill:#ececec;stroke:#000000;stroke-width:0.0529167;stroke-linecap:round;stroke-linejoin:round" />
    <path
       d="m 91.969191,156.89624 -0.47625,0.0529 -0.740834,-0.97896 -0.05292,-0.26458 h -0.608542 l -0.502708,-0.44979 -0.264584,0.0265 -0.635,-0.47625 -1.11125,-0.42333 -0.02646,-0.82021 -0.343958,-0.58208 1.852083,-0.26458 0.370417,0.42333 0.582083,0.29104 -0.185208,0.42333 0.846666,0.58209 -0.291041,0.55562 0.687916,0.44979 0.661459,0.26459 z"
       id="AM"
       name="Armenia"
       style="fill:#ececec;stroke:#000000;stroke-width:0.0529167;stroke-linecap:round;stroke-linejoin:round" />
    <path
       d="m 49.582941,140.43916 -0.07937,0.21167 0.185208,0.55562 -0.05292,0.68792 H 48.89503 l 0.291041,0.37041 -0.343958,1.05834 -0.238125,0.29104 -1.164167,0.0265 -0.635,0.39687 -1.11125,-0.13229 -1.931458,-0.44979 -0.343958,-0.55563 -1.296459,0.29105 -0.132291,0.3175 -0.820209,-0.23813 -0.687916,-0.0529 -0.608542,-0.3175 0.185208,-0.39687 -0.05292,-0.29104 0.370416,-0.0794 0.714375,0.44979 0.15875,-0.44979 1.164167,0.0794 0.926042,-0.29104 0.635,0.0529 0.449791,0.34396 0.105834,-0.29104 -0.264584,-1.08479 0.449792,-0.21167 0.423333,-0.76729 1.005417,0.55562 0.687917,-0.68791 0.449791,-0.13229 1.058334,0.5027 0.608541,-0.0794 z"
       id="AT"
       name="Austria"
       style="fill:#ececec;stroke:#000000;stroke-width:0.0529167;stroke-linecap:round;stroke-linejoin:round" />
    <path
       class="Azerbaijan"
       d="m 91.492941,156.94916 -1.005417,-0.23813 -0.846667,-0.76729 -0.3175,-0.66146 0.264584,-0.0265 0.502708,0.44979 h 0.608542 l 0.05292,0.26458 z"
       id="path199"
       style="fill:#ececec;stroke:#000000;stroke-width:0.0529167;stroke-linecap:round;stroke-linejoin:round" />
    <path
       class="Azerbaijan"
       d="m 93.159816,152.45124 0.661458,-0.68791 0.926042,0.87312 0.9525,1.21708 0.661458,0.0794 0.502708,0.44979 -1.11125,0.13229 0.02646,1.32292 -0.105834,0.58208 -0.449791,0.39688 0.211666,0.82021 -0.343958,0.10583 -1.031875,-0.89958 0.3175,-0.82021 -0.502708,-0.50271 -0.502709,0.13229 -1.402291,1.24354 -0.238125,-1.19062 -0.661459,-0.26459 -0.687916,-0.44979 0.291041,-0.55562 -0.846666,-0.58209 0.185208,-0.42333 -0.582083,-0.29104 -0.370417,-0.42333 0.291042,-0.29105 1.11125,0.50271 0.767291,0.0794 0.15875,-0.18521 -0.873125,-0.92604 0.3175,-0.21167 0.396875,0.0529 1.137709,1.00541 0.635,0.1323 z"
       id="path201"
       style="fill:#ececec;stroke:#000000;stroke-width:0.0529167;stroke-linecap:round;stroke-linejoin:round" />
    <path
       d="m 71.887316,230.29166 -0.15875,0.0265 v -0.0794 l -0.529167,-1.61396 -0.0026,-0.0159 -0.02381,-0.27517 -0.370417,-0.76729 0.926042,0.13229 0.449791,-0.97896 0.820209,0.10584 0.07937,0.66145 0.3175,0.39688 v 0.55562 l -0.370417,0.34396 -0.608542,0.89959 z"
       id="BI"
       name="Burundi"
       style="fill:#ececec;stroke:#000000;stroke-width:0.0529167;stroke-linecap:round;stroke-linejoin:round" />
    <path
       d="m 35.268983,136.81437 -0.105833,1.11125 -0.343959,0.0529 -0.105833,0.92605 -1.164167,-0.7673 -0.661458,0.1323 -0.926042,-0.7673 -0.635,-0.66145 -0.582083,-0.0265 -0.211667,-0.58209 1.031875,-0.3175 0.9525,0.1323 1.190625,-0.34396 0.820209,0.71437 z"
       id="BE"
       name="Belgium"
       style="fill:#ececec;stroke:#000000;stroke-width:0.0529167;stroke-linecap:round;stroke-linejoin:round" />
    <path
       d="m 32.676066,202.93374 -0.05292,0.55563 0.343959,1.00541 -0.291042,0.68792 0.15875,0.44979 -0.740833,1.05834 -0.449792,0.52916 -0.291042,1.05834 0.05292,1.08479 -0.07937,2.72521 -1.243541,0.21166 -0.370417,-1.16416 0.07937,-3.91584 -0.3175,-0.34396 -0.05292,-0.84666 -0.529166,-0.58209 -0.449792,-0.5027 0.185208,-0.89959 0.529167,-0.18521 0.291042,-0.74083 0.740833,-0.15875 0.3175,-0.50271 0.502708,-0.50271 h 0.52917 z"
       id="BJ"
       name="Benin"
       style="fill:#ececec;stroke:#000000;stroke-width:0.0529167;stroke-linecap:round;stroke-linejoin:round" />
    <path
       d="m 27.86065,197.37749 -0.132292,0.82021 0.211667,0.76729 0.820208,1.11125 0.05292,0.82021 1.719791,0.39688 -0.02646,1.16416 -0.3175,0.50271 -0.740833,0.15875 -0.291042,0.74083 -0.529167,0.18521 -1.296458,-0.0265 -0.687917,-0.13229 -0.47625,0.26459 -0.661458,-0.1323 -2.592917,0.0794 -0.05292,0.97896 0.211666,1.27 -1.031875,-0.42334 -0.687916,0.0529 -0.529167,0.42333 -0.661458,-0.34395 -0.264584,-0.58209 -0.661458,-0.37041 -0.105833,-0.97896 0.423333,-0.71438 -0.05292,-0.58208 1.190625,-1.40229 0.238125,-1.16417 0.396875,-0.42333 0.714375,0.23812 0.635,-0.34396 0.211667,-0.44979 1.137708,-0.74083 0.291042,-0.52917 1.402292,-0.71437 0.820208,-0.23813 0.370417,0.3175 z"
       id="BF"
       name="Burkina Faso"
       style="fill:#ececec;stroke:#000000;stroke-width:0.0529167;stroke-linecap:round;stroke-linejoin:round" />
    <path
       d="m 65.987108,148.58833 -0.608542,0.68791 -0.343958,1.19063 0.555625,0.9525 -1.217084,-0.21167 -1.322916,0.52917 0.07937,0.84666 -1.217084,0.15875 -1.031875,-0.60854 -1.058333,0.47625 -1.005417,-0.0529 -0.211666,-1.11125 -0.740834,-0.55563 0.185209,-0.21167 -0.15875,-0.21166 0.15875,-0.52917 0.47625,-0.52917 -0.740834,-0.71437 -0.185208,-0.635 0.291042,-0.37042 0.47625,0.68792 0.502708,-0.10583 1.058333,0.23812 2.010834,0.10583 0.608541,-0.42333 1.561042,-0.39687 1.058333,0.60854 z"
       id="BG"
       name="Bulgaria"
       style="fill:#ececec;stroke:#000000;stroke-width:0.0529167;stroke-linecap:round;stroke-linejoin:round" />
    <path
       d="m 52.863774,146.65687 0.502709,-0.0265 -0.291042,0.74083 0.714375,0.66146 -0.132292,0.76729 -0.291041,0.0794 -0.238125,0.15875 -0.423334,0.39687 -0.105833,0.92604 -1.27,-0.635 -0.555625,-0.71437 -0.555625,-0.37042 -0.661458,-0.635 -0.343958,-0.50271 -0.714375,-0.79375 0.211666,-0.68791 0.529167,0.39687 0.264583,-0.37041 0.608542,-0.0265 1.190625,0.29104 0.926041,-0.0265 z"
       id="BA"
       name="Bosnia and Herzegovina"
       style="fill:#ececec;stroke:#000000;stroke-width:0.0529167;stroke-linecap:round;stroke-linejoin:round" />
    <path
       d="m 68.368358,133.00437 -1.031875,-0.0529 -0.211667,0.15875 0.396875,0.52917 0.529167,1.05833 -1.084792,0.0794 -0.343958,0.37041 0.07937,0.82021 -0.555625,-0.15875 -1.137709,0.0794 -0.396875,-0.39688 -0.449791,0.29104 -0.502709,-0.23812 -1.031875,-0.0265 -1.508125,-0.39688 -1.296458,-0.13229 -1.005417,0.0529 -0.635,0.42333 -0.608541,0.0794 -0.132292,-0.74084 -0.502708,-0.74083 0.740833,-0.34396 -0.105833,-0.635 -0.449792,-0.60854 -0.15875,-0.71437 h 1.243542 l 1.27,-0.60855 0.132291,-0.89958 0.9525,-0.52917 -0.264583,-0.71437 0.714375,-0.26458 1.217083,-0.60855 1.402292,0.39688 0.238125,0.39687 0.635,-0.1852 1.27,0.37041 0.291042,0.76729 -0.185209,0.42334 1.005417,1.05833 0.555625,0.29104 v 0.29104 l 0.899583,0.29105 0.449792,0.42333 z"
       id="BY"
       name="Belarus"
       style="fill:#ececec;stroke:#000000;stroke-width:0.0529167;stroke-linecap:round;stroke-linejoin:round" />
    <path
       d="m 62.997316,208.09312 1.031875,0.66146 0.820208,0.68791 0.02646,0.55563 1.031875,0.87312 0.635,0.74084 0.370416,1.00541 1.137709,0.68792 0.238125,0.52917 -0.47625,0.1852 -0.978959,-0.0265 -1.11125,-0.18521 -0.555625,0.13229 -0.238125,0.42333 -0.47625,0.0529 -0.582083,-0.37042 -1.666875,0.84667 -0.687917,-0.15875 -0.211666,0.13229 -0.423334,1.03188 -1.137708,-0.34396 -1.084792,-0.15875 -0.9525,-0.635 -1.243541,-0.58209 -0.79375,0.55563 -0.582084,0.84667 -0.132291,1.19062 -0.9525,-0.0794 -1.031875,-0.29105 -0.873125,0.89959 -0.79375,1.5875 -0.15875,-0.50271 -0.07937,-0.76729 -0.687917,-0.55563 -0.555625,-0.87312 -0.132292,-0.60854 -0.714374,-0.89959 0.132291,-0.50271 -0.15875,-0.71437 0.105834,-1.32292 0.370416,-0.29104 0.740833,-1.71979 1.217084,-0.13229 0.264583,-0.44979 0.264583,0.0529 0.370417,0.37042 1.878542,-0.635 0.635,-0.66146 0.767291,-0.60854 -0.15875,-0.58208 0.423334,-0.15875 1.455208,0.10583 1.375833,-0.79375 1.058334,-1.85208 0.740833,-0.68792 0.9525,-0.29104 0.185208,0.71437 0.873125,1.05834 v 0.71437 l -0.211666,0.68792 0.105833,0.52916 0.502708,0.50271 z"
       id="CF"
       name="Central African Republic"
       style="fill:#ececec;stroke:#000000;stroke-width:0.0529167;stroke-linecap:round;stroke-linejoin:round" />
    <path
       d="m 40.005025,142.21187 0.05292,0.29104 -0.185208,0.39687 0.608542,0.3175 0.687916,0.0529 -0.07937,0.66146 -0.555625,0.29104 -1.005416,-0.21167 -0.264584,0.66146 -0.635,0.0529 -0.238125,-0.26458 -0.714375,0.58208 -0.661458,0.0794 -0.582083,-0.37041 -0.47625,-0.71438 -0.635,0.26459 v -0.7673 l 0.9525,-0.92604 -0.05292,-0.42333 0.608541,0.15875 0.343959,-0.29104 h 1.11125 l 0.264583,-0.34396 z"
       id="CH"
       name="Switzerland"
       style="fill:#ececec;stroke:#000000;stroke-width:0.0529167;stroke-linecap:round;stroke-linejoin:round" />
    <path
       d="m 19.235233,205.10333 0.661458,0.37041 0.264584,0.58209 0.661458,0.34395 0.529167,-0.42333 0.687916,-0.0529 1.031875,0.42334 0.396875,2.43416 -0.635,1.4023 -0.396875,1.93145 0.635,1.45521 -0.05292,0.68792 h -0.687917 l -1.031875,-0.3175 h -0.978958 l -1.772709,0.3175 -1.031874,0.47625 -1.481667,0.635 -0.291042,-0.0529 0.105834,-1.40229 0.15875,-0.21167 -0.05292,-0.66145 -0.635,-0.71438 -0.47625,-0.10583 -0.423333,-0.47625 0.3175,-0.76729 -0.132292,-0.82021 0.05292,-0.47625 h 0.238125 l 0.105833,-0.74084 -0.105833,-0.34395 0.132291,-0.23813 0.555625,-0.18521 -0.370416,-1.37583 -0.343959,-0.68792 0.132292,-0.58208 0.291042,-0.13229 0.211666,-0.15875 0.396875,0.26458 h 1.164167 l 0.264583,-0.47625 0.264584,0.0265 0.423333,-0.18521 0.238125,0.71438 0.343958,-0.21167 z"
       id="CI"
       name="Côte d'Ivoire"
       style="fill:#ececec;stroke:#000000;stroke-width:0.0529167;stroke-linecap:round;stroke-linejoin:round" />
    <path
       d="m 50.165024,210.13041 -0.740833,1.71979 -0.370416,0.29104 -0.105834,1.32292 0.15875,0.71437 -0.132291,0.50271 0.714374,0.89959 0.132292,0.60854 0.555625,0.87312 0.687917,0.55563 0.07937,0.76729 0.15875,0.50271 -0.105834,0.89958 -1.190625,-0.39687 -1.217083,-0.4498 -1.878541,-0.0529 -0.185209,-0.10584 -0.899583,0.21167 -0.899583,-0.21167 -0.714375,0.10584 -2.460625,-0.0265 0.238125,-1.34938 -0.608542,-1.1377 -0.687917,-0.26459 -0.291041,-0.76729 -0.396875,-0.23812 0.02646,-0.47625 0.370417,-1.21709 0.714375,-1.64041 h 0.423333 l 0.899583,-1.00542 0.555625,-0.0265 0.846667,0.71438 1.031875,-0.58209 0.132292,-0.71437 0.343958,-0.68792 0.211667,-0.84667 0.79375,-0.68791 0.291041,-1.19063 0.3175,-0.39687 0.211667,-0.87313 0.370417,-1.08479 1.243541,-1.32292 0.07937,-0.55562 0.15875,-0.3175 -0.608541,-0.66146 0.05292,-0.55562 0.396875,-0.0794 0.608541,1.08479 0.132291,1.11125 -0.05292,1.13771 0.846666,1.53458 h -0.846661 l -0.423333,0.10584 -0.687917,-0.15875 -0.3175,0.79375 0.899583,1.00541 0.661458,0.29105 0.211667,0.68791 0.47625,1.16417 z"
       id="CM"
       name="Cameroon"
       style="fill:#ececec;stroke:#000000;stroke-width:0.0529167;stroke-linecap:round;stroke-linejoin:round" />
    <path
       d="m 68.288983,213.83458 0.926041,1.40229 0.687917,0.21166 0.396875,-0.29104 0.687916,0.10584 0.820209,-0.34396 0.370416,0.71437 1.349375,1.13771 -0.07938,1.98438 0.608542,0.23812 -0.502708,0.58208 -0.555625,0.47625 -0.582084,0.87313 -0.3175,0.79375 -0.07937,1.34937 -0.343958,0.66146 -0.02646,1.27 -0.423334,0.47625 -0.05292,1.00542 -0.211667,0.13229 -0.15875,0.9525 0.370417,0.76729 0.02646,0.26458 -0.3175,2.72521 0.396875,0.9525 -0.264583,0.71438 0.47625,1.21708 0.899583,0.92604 0.185208,0.92604 0.423334,0.4498 -0.07937,0.29104 -0.238125,-0.0794 -2.037292,0.29104 -0.396875,0.21167 -0.449791,1.08479 0.3175,0.74084 -0.291042,2.01083 -0.238125,1.69333 0.396875,0.3175 1.031875,0.66146 0.423333,-0.3175 0.05292,1.82563 h -1.137708 l -0.582084,-0.92605 -0.529166,-0.74083 -1.137709,-0.23812 -0.3175,-0.87313 -0.926041,0.52917 -1.164167,-0.23813 -0.502708,-0.76729 -0.926042,-0.15875 -0.714375,0.0265 -0.07937,-0.52917 -0.502708,-0.0265 -0.687917,-0.10583 -0.926042,0.26458 -0.635,-0.0529 -0.370416,0.15875 0.105833,-2.01084 -0.47625,-0.635 -0.105833,-1.05833 0.238125,-1.03187 -0.291042,-0.635 -0.02646,-1.0848 -1.799167,0.0265 0.132292,-0.60854 h -0.767292 l -0.07937,0.29104 -0.926042,0.0794 -0.396875,0.97896 -0.238125,0.42333 -0.820208,-0.23813 -0.47625,0.23813 -1.005417,0.13229 -0.555625,-0.87312 -0.343958,-0.55563 -0.423333,-1.03187 -0.343959,-1.24355 -4.418541,-0.0265 -0.529167,0.1852 -0.449791,-0.0265 -0.608542,0.23812 -0.211667,-0.52917 0.370417,-0.1852 0.05292,-0.74084 0.264583,-0.42333 0.529167,-0.37042 0.396875,0.18521 0.529167,-0.66146 0.820208,0.0265 0.07937,0.47625 0.555625,0.29104 0.899583,-1.05833 0.873125,-0.82021 0.370416,-0.55562 -0.02646,-1.4023 0.661458,-1.64041 0.687917,-0.87313 0.978958,-0.82021 0.185209,-0.52916 0.02646,-0.635 0.238125,-0.58209 -0.07938,-0.97895 0.185208,-1.50813 0.291042,-1.05833 0.449792,-0.89958 0.07937,-1.03188 0.132291,-1.19062 0.582084,-0.84667 0.79375,-0.55563 1.243541,0.58209 0.9525,0.635 1.084792,0.15875 1.137708,0.34396 0.423334,-1.03188 0.211666,-0.13229 0.687917,0.15875 1.666875,-0.84667 0.582083,0.37042 0.47625,-0.0529 0.238125,-0.42333 0.555625,-0.13229 1.11125,0.18521 0.978959,0.0265 z"
       id="CD"
       name="Democratic Republic of the Congo"
       style="fill:#ececec;stroke:#000000;stroke-width:0.0529167;stroke-linecap:round;stroke-linejoin:round" />
    <path
       d="m 54.953983,216.77145 -0.07937,1.03188 -0.449792,0.89958 -0.291042,1.05833 -0.185208,1.50813 0.07938,0.97895 -0.238125,0.58209 -0.02646,0.635 -0.185209,0.52916 -0.978958,0.82021 -0.687917,0.87313 -0.661458,1.64041 0.02646,1.4023 -0.370416,0.55562 -0.873125,0.82021 -0.899583,1.05833 -0.555625,-0.29104 -0.07937,-0.47625 -0.820209,-0.0265 -0.529166,0.66146 -0.396875,-0.18521 -0.555625,-0.58208 -0.449792,0.29104 -0.608542,0.74083 -1.217083,-1.79916 1.137708,-0.9525 -0.555625,-1.11125 0.529167,-0.42334 1.005417,-0.21166 0.105833,-0.76729 0.820208,0.8202 1.322917,0.0794 0.449792,-0.79375 0.185208,-1.13771 -0.15875,-1.32292 -0.714375,-1.00541 0.661458,-1.98438 -0.370416,-0.3175 -1.11125,0.1323 -0.423334,-0.87313 0.105834,-0.74083 1.878541,0.0529 1.217083,0.4498 1.190625,0.39687 0.105834,-0.89958 0.79375,-1.5875 0.873125,-0.89959 1.031875,0.29105 z"
       id="CG"
       name="Republic of Congo"
       style="fill:#ececec;stroke:#000000;stroke-width:0.0529167;stroke-linecap:round;stroke-linejoin:round" />
    <path
       d="m 46.698983,136.31166 0.661458,0.52917 0.978959,0.13229 -0.05292,0.44979 0.740833,0.34396 0.15875,-0.42334 0.899583,0.18521 0.185209,0.52917 0.978958,0.0794 0.687917,0.82021 h -0.396875 l -0.185209,0.29104 -0.291041,0.0794 -0.05292,0.37042 -0.238125,0.0794 -0.02646,0.15875 -0.423334,0.15875 -0.582083,-0.0265 -0.15875,0.37042 -0.635,-0.3175 -0.608541,0.0794 -1.058334,-0.5027 -0.449791,0.13229 -0.687917,0.68791 -1.005417,-0.55562 -0.79375,-0.68792 -0.687916,-0.39687 -0.185209,-0.71438 -0.264583,-0.47625 0.899583,-0.34396 0.449792,-0.42333 0.926042,-0.3175 0.291041,-0.3175 0.343959,0.18521 z"
       id="CZ"
       name="Czech Republic"
       style="fill:#ececec;stroke:#000000;stroke-width:0.0529167;stroke-linecap:round;stroke-linejoin:round" />
    <path
       d="m 45.1644,131.99895 0.370416,0.82021 -0.3175,0.44979 0.502709,0.55563 0.396875,0.87312 -0.05292,0.58208 0.635,1.03188 -0.582084,0.15875 -0.343958,-0.18521 -0.291042,0.3175 -0.926041,0.3175 -0.449792,0.42333 -0.899583,0.34396 0.264583,0.47625 0.185208,0.71438 0.687917,0.39687 0.79375,0.68792 -0.423333,0.76729 -0.449792,0.21167 0.264583,1.08479 -0.105833,0.29104 -0.449792,-0.34396 -0.635,-0.0529 -0.926041,0.29104 -1.164167,-0.0794 -0.15875,0.44979 -0.714375,-0.44979 -0.370417,0.0794 -1.455208,-0.50271 -0.264583,0.34396 h -1.11125 l 0.105833,-1.19063 0.635,-1.11125 -1.905,-0.3175 -0.635,-0.42333 0.05292,-0.71438 -0.264583,-0.37041 0.105833,-1.11125 -0.291041,-1.71979 h 0.767291 l 0.3175,-0.60855 0.238125,-1.48166 -0.238125,-0.55563 0.211667,-0.34396 1.058333,-0.0794 0.264583,0.34396 0.820209,-0.79375 -0.343959,-0.60854 -0.105833,-0.89959 0.978958,0.21167 0.767292,-0.23813 0.07937,0.60855 1.296458,0.37041 0.02646,0.58209 1.243542,-0.3175 0.687917,-0.42334 1.481666,0.635 z"
       id="DE"
       name="Germany"
       style="fill:#ececec;stroke:#000000;stroke-width:0.0529167;stroke-linecap:round;stroke-linejoin:round" />
    <path
       d="m 91.625232,203.25124 -0.502708,0.92604 -0.343958,-0.3175 -0.343959,0.1323 -0.846666,-0.0265 -0.05292,-0.52917 -0.132292,-0.47625 0.47625,-0.79375 0.502709,-0.74083 0.635,0.15875 0.449791,-0.42334 0.370417,0.52917 -0.02646,0.68792 -0.820209,0.42333 z"
       id="DJ"
       name="Djibouti"
       style="fill:#ececec;stroke:#000000;stroke-width:0.0529167;stroke-linecap:round;stroke-linejoin:round" />
    <path
       class="Denmark"
       d="m 43.10065,129.03562 -0.635,1.29646 -1.375834,-0.92605 -0.238125,-0.66145 1.799167,-0.52917 z"
       id="path293"
       style="fill:#ececec;stroke:#000000;stroke-width:0.0529167;stroke-linecap:round;stroke-linejoin:round" />
    <path
       class="Denmark"
       d="m 39.713983,130.04103 -0.767292,0.23813 -0.978958,-0.21167 -0.555625,-0.89958 -0.105833,-1.61396 0.15875,-0.44979 0.343958,-0.47625 1.058333,-0.0794 0.423334,-0.44979 0.9525,-0.44979 v 0.82021 l -0.3175,0.52917 0.185208,0.42333 0.687917,0.23812 -0.264584,0.60855 -0.370416,-0.15875 -0.820209,1.1377 z"
       id="path295"
       style="fill:#ececec;stroke:#000000;stroke-width:0.0529167;stroke-linecap:round;stroke-linejoin:round" />
    <path
       d="m 39.105441,159.96541 -0.264583,0.87312 0.264583,1.61396 -0.291041,1.40229 -0.846667,0.9525 0.15875,1.27 1.190625,1.03188 0.02646,0.39687 0.899584,0.68792 0.687916,3.04271 0.502709,1.50812 0.105833,0.79375 -0.211667,1.37584 0.105834,0.79375 -0.15875,0.92604 0.15875,1.05833 -0.582084,0.71438 0.899584,1.24354 0.05292,0.71437 0.555625,0.9525 0.661458,-0.3175 1.190625,0.79375 0.661458,1.05834 -4.974166,3.25437 -4.233334,3.33375 -2.06375,0.74084 -1.640416,0.1852 -0.02646,-1.08479 -0.687917,-0.29104 -0.926042,-0.47625 -0.343958,-0.79375 -4.947708,-3.70417 -4.92125,-3.70416 -5.423958,-4.1275 0.02646,-0.3175 0.02646,-0.10584 0.02646,-2.01083 2.354792,-1.27 1.428749,-0.26458 1.190625,-0.44979 0.555625,-0.84667 1.693334,-0.66146 0.07937,-1.27 0.820208,-0.15875 0.661458,-0.60854 1.878542,-0.29104 0.264583,-0.66146 -0.370416,-0.37042 -0.502709,-1.79916 -0.07938,-1.03188 -0.502708,-1.08479 1.349375,-0.92604 1.534583,-0.29104 0.873125,-0.68792 1.349375,-0.52917 2.38125,-0.29104 2.328333,-0.13229 0.714375,0.23812 1.296459,-0.66145 1.508125,-0.0265 0.582083,0.39687 z"
       id="DZ"
       name="Algeria"
       style="fill:#ececec;stroke:#000000;stroke-width:0.0529167;stroke-linecap:round;stroke-linejoin:round" />
    <path
       d="m 76.438149,169.70208 1.031875,2.48708 0.185208,0.42333 -0.343958,0.68792 -0.185208,1.27 -0.3175,0.89958 -0.3175,0.29104 -0.529167,-0.55562 -0.714375,-0.74083 -1.243542,-2.43417 -0.132291,0.15875 0.740833,1.77271 1.031875,1.71979 1.296458,2.64583 0.608542,0.92604 0.529167,0.9525 1.42875,1.87855 -0.264584,0.29104 0.105834,1.11125 1.799166,1.53458 0.291042,0.34396 h -5.847292 -5.688541 -5.900208 l -0.264584,-6.27063 -0.343958,-6.0325 -0.529167,-1.37583 0.291042,-1.03187 -0.264583,-0.74084 0.449791,-0.82021 1.905,-0.0265 1.42875,0.44979 1.455209,0.50271 0.687916,0.26458 1.058334,-0.52917 0.555625,-0.47625 1.243541,-0.15875 1.031875,0.21167 0.47625,0.84667 0.291042,-0.55563 1.164166,0.39688 1.137709,0.10583 z"
       id="EG"
       name="Egypt"
       style="fill:#ececec;stroke:#000000;stroke-width:0.0529167;stroke-linecap:round;stroke-linejoin:round" />
    <path
       d="m 91.466482,201.16103 -0.449791,0.42334 -0.635,-0.15875 -0.529167,-0.55563 -0.661458,-0.97896 -0.687917,-0.55562 -0.396875,-0.58208 -1.322917,-0.68792 -1.031875,-0.0265 -0.370416,-0.34396 -0.846667,0.39688 -0.9525,-0.76729 -0.396875,1.27 -1.74625,-0.37042 -0.185208,-0.66146 0.529166,-2.51354 0.07937,-1.11125 0.449792,-0.52917 1.058333,-0.29104 0.714375,-0.9525 0.9525,1.95792 0.502709,1.56104 0.846666,0.82021 2.116667,1.61396 0.873125,0.9525 0.846667,1.00541 0.47625,0.58209 z"
       id="ER"
       name="Eritrea"
       style="fill:#ececec;stroke:#000000;stroke-width:0.0529167;stroke-linecap:round;stroke-linejoin:round" />
    <path
       d="m 60.986483,122.92374 0.238125,0.26459 -0.687917,0.89958 0.635,1.48167 -0.423333,0.5027 -1.005417,-0.0264 -1.164167,-0.58209 -0.555625,-0.18521 -1.005416,0.26459 -0.02646,-0.92604 -0.396875,0.21166 -0.873125,-0.55562 -0.264583,-0.89959 1.455208,-0.44979 1.481667,-0.21166 1.349375,0.23812 z"
       id="EE"
       name="Estonia"
       style="fill:#ececec;stroke:#000000;stroke-width:0.0529167;stroke-linecap:round;stroke-linejoin:round" />
    <path
       d="m 58.446483,108.50395 0.105833,1.00542 1.931458,0.97896 -0.767291,1.11125 1.719791,1.66687 -0.449791,1.27 1.296458,1.11125 -0.238125,1.00542 1.957917,1.03187 -0.238125,0.76729 -0.899584,0.89959 -2.116666,1.95791 -2.116667,0.1323 -2.010833,0.55562 -1.878542,0.34396 -0.846667,-0.84667 -1.243541,-0.50271 0.02646,-1.53458 -0.79375,-1.37583 0.423333,-0.89959 0.873125,-0.92604 2.328334,-1.64041 0.687916,-0.3175 -0.238125,-0.635 -1.719791,-0.68792 -0.47625,-0.58208 -0.47625,-2.24896 -1.905,-0.97896 -1.5875,-0.71438 0.582083,-0.37041 1.349375,0.74083 1.402292,-0.0529 1.243541,0.34396 0.899584,-0.635 0.291041,-1.05833 1.561042,-0.47625 1.534583,0.55562 z"
       id="FI"
       name="Finland"
       style="fill:#ececec;stroke:#000000;stroke-width:0.0529167;stroke-linecap:round;stroke-linejoin:round" />
    <path
       d="m 46.91065,218.88812 -0.105834,0.74083 0.423334,0.87313 1.11125,-0.1323 0.370416,0.3175 -0.661458,1.98438 0.714375,1.00541 0.15875,1.32292 -0.185208,1.13771 -0.449792,0.79375 -1.322917,-0.0794 -0.820208,-0.8202 -0.105833,0.76729 -1.005417,0.21166 -0.529167,0.42334 0.555625,1.11125 -1.137708,0.9525 -1.534583,-1.71979 -0.978959,-1.4023 -0.926041,-1.74625 0.05292,-0.58208 0.343959,-0.52917 0.343958,-1.24354 0.3175,-1.27 0.502708,-0.0794 h 2.169584 v -2.03729 l 0.714375,-0.10584 0.899583,0.21167 0.899583,-0.21167 z"
       id="GA"
       name="Gabon"
       style="fill:#ececec;stroke:#000000;stroke-width:0.0529167;stroke-linecap:round;stroke-linejoin:round" />
    <path
       class="United Kingdom"
       d="m 19.4469,131.81374 -0.926042,-0.3175 -0.79375,0.0265 0.3175,-0.87312 -0.238125,-0.84667 1.058333,-0.0794 1.296459,1.00542 z"
       id="path306"
       style="fill:#ececec;stroke:#000000;stroke-width:0.0529167;stroke-linecap:round;stroke-linejoin:round" />
    <path
       class="United Kingdom"
       d="m 23.653775,124.2202 -1.349375,1.71979 1.243541,-0.21166 h 1.349375 l -0.343958,1.29645 -1.137708,1.42875 1.296458,0.0794 0.07938,0.18521 1.11125,1.87854 0.846667,0.26458 0.767291,1.85209 0.370417,0.635 1.561042,0.29104 -0.15875,1.05833 -0.635,0.47625 0.502708,0.84667 -1.164167,0.84666 -1.719791,-0.0265 -2.2225,0.47625 -0.582084,-0.34396 -0.873125,0.76729 -1.190625,-0.18521 -0.9525,0.635 -0.661458,-0.3175 1.931458,-1.71979 1.164167,-0.37042 -2.010833,-0.26458 -0.343959,-0.66146 1.349375,-0.50271 -0.661458,-0.87312 0.264583,-1.05834 1.878542,0.15875 0.211667,-0.9525 -0.820209,-0.97895 -0.02646,-0.0265 -1.508125,-0.29104 -0.291042,-0.42334 0.47625,-0.71437 -0.396875,-0.44979 -0.687916,0.76729 -0.02646,-1.56104 -0.582083,-0.79375 0.502708,-1.64042 1.005417,-1.27 0.9525,0.10583 z"
       id="path308"
       style="fill:#ececec;stroke:#000000;stroke-width:0.0529167;stroke-linecap:round;stroke-linejoin:round" />
    <path
       d="m 87.973982,150.2552 1.349375,0.34396 0.555625,0.68792 0.9525,0.39687 -0.3175,0.21167 0.873125,0.92604 -0.15875,0.18521 -0.767291,-0.0794 -1.11125,-0.50271 -0.291042,0.29105 -1.852083,0.26458 -1.481667,-0.84667 -1.455208,0.0794 0.07937,-0.71438 -0.555625,-1.13771 -0.899584,-0.635 -0.79375,-0.1852 -0.582083,-0.50271 0.105833,-0.21167 1.217084,0.29104 2.037291,0.26459 2.010834,0.8202 0.3175,0.3175 z"
       id="GE"
       name="Georgia"
       style="fill:#ececec;stroke:#000000;stroke-width:0.0529167;stroke-linecap:round;stroke-linejoin:round" />
    <path
       d="m 27.331483,204.01853 -0.105833,0.52917 0.608541,0.87313 v 1.24354 l 0.15875,1.32291 0.370417,0.635 -0.343958,1.50813 0.132291,0.84667 0.396875,1.08479 0.343959,0.60854 -2.354792,0.97896 -0.846667,0.58208 -1.349375,0.50271 -1.322916,-0.47625 0.05292,-0.68792 -0.635,-1.45521 0.396875,-1.93145 0.635,-1.4023 -0.396875,-2.43416 -0.211666,-1.27 0.05292,-0.97896 2.592917,-0.0794 0.661458,0.1323 0.47625,-0.26459 z"
       id="GH"
       name="Ghana"
       style="fill:#ececec;stroke:#000000;stroke-width:0.0529167;stroke-linecap:round;stroke-linejoin:round" />
    <path
       d="m 10.133567,201.58437 0.07937,0.635 h 0.238125 l 0.396875,-0.23813 0.238125,0.0529 0.423333,0.44979 0.635,0.13229 0.396875,-0.37041 0.502708,-0.23813 0.343959,-0.23812 0.291041,0.0529 0.343959,0.37042 0.15875,0.47625 0.608541,0.71437 -0.291041,0.42334 -0.07937,0.55562 0.3175,-0.15875 0.185208,0.18521 -0.07937,0.50271 0.449792,0.50271 -0.291042,0.13229 -0.132292,0.58208 0.343959,0.68792 0.370416,1.37583 -0.555625,0.18521 -0.132291,0.23813 0.105833,0.34395 -0.105833,0.74084 h -0.238125 l -0.423334,-0.0529 -0.291041,0.68792 h -0.423334 l -0.291041,-0.37042 0.105833,-0.68792 -0.635,-1.03187 -0.370417,0.18521 -0.343958,0.0529 -0.396875,0.0794 0.02646,-0.60854 -0.238125,-0.44979 0.05292,-0.50271 -0.3175,-0.71438 -0.423333,-0.60854 H 9.4985767 l -0.343959,0.3175 -0.423333,0.0529 -0.264583,0.37041 -0.15875,0.4498 -0.820209,0.76729 -0.635,-1.00542 -0.582083,-0.66146 -0.370417,-0.23812 -0.370416,-0.34396 -0.15875,-0.74083 -0.211667,-0.37042 -0.449792,-0.29104 0.687917,-0.82021 0.449792,0.0265 0.396875,-0.26459 0.3175,-0.0265 0.238125,-0.21167 -0.105834,-0.55563 0.15875,-0.1852 0.02646,-0.58209 0.714375,0.0265 1.084791,0.39688 0.3175,-0.0265 0.105834,-0.18521 0.820208,0.13229 z"
       id="GN"
       name="Guinea"
       style="fill:#ececec;stroke:#000000;stroke-width:0.0529167;stroke-linecap:round;stroke-linejoin:round" />
    <path
       d="m 2.2225247,200.39374 0.211667,-0.76729 1.613958,-0.0265 0.343958,-0.42333 0.47625,-0.0265 0.582084,0.42333 h 0.449791 l 0.502709,-0.26458 0.291041,0.47625 -0.661458,0.39688 -0.635,-0.0529 -0.635,-0.34396 -0.555625,0.39688 h -0.264583 l -0.370417,0.23812 z"
       id="GM"
       name="The Gambia"
       style="fill:#ececec;stroke:#000000;stroke-width:0.0529167;stroke-linecap:round;stroke-linejoin:round" />
    <path
       d="m 6.8791917,201.34624 -0.02646,0.58209 -0.15875,0.1852 0.105834,0.55563 -0.238125,0.21167 -0.3175,0.0265 -0.396875,0.26459 -0.449792,-0.0265 -0.687917,0.82021 -0.767291,-0.68792 -0.635,-0.13229 -0.343959,-0.47625 0.02646,-0.26458 -0.449792,-0.34396 -0.105833,-0.37042 0.79375,-0.26458 0.502708,0.0529 0.396875,-0.21166 z"
       id="GW"
       name="Guinea-Bissau"
       style="fill:#ececec;stroke:#000000;stroke-width:0.0529167;stroke-linecap:round;stroke-linejoin:round" />
    <path
       d="m 44.2119,218.88812 v 2.03729 h -2.169584 l -0.502708,0.0794 -0.291042,-0.23812 0.502709,-1.905 z"
       id="GQ"
       name="Equatorial Guinea"
       style="fill:#ececec;stroke:#000000;stroke-width:0.0529167;stroke-linecap:round;stroke-linejoin:round" />
    <path
       class="Greece"
       d="m 60.721899,162.08208 0.820209,0.58208 1.084791,-0.10583 1.058334,0.10583 v 0.3175 l 0.740833,-0.21167 -0.132292,0.50271 -2.010833,0.13229 -0.02646,-0.26458 -1.74625,-0.34396 z"
       id="path316"
       style="fill:#ececec;stroke:#000000;stroke-width:0.0529167;stroke-linecap:round;stroke-linejoin:round" />
    <path
       class="Greece"
       d="m 63.156066,153.4302 -0.846667,-0.0529 -0.714375,-0.15875 -1.640416,0.42334 1.058333,0.9525 -0.661458,0.29104 h -0.767292 l -0.820208,-0.87313 -0.238125,0.37042 0.423333,1.00542 0.767292,0.79375 -0.502709,0.37041 0.846667,0.7673 0.740833,0.5027 0.105834,0.9525 -1.322917,-0.44979 0.47625,0.87313 -0.873125,0.15875 0.661458,1.50812 -0.926041,0.0265 -1.217084,-0.74083 -0.635,-1.34938 -0.343958,-1.13771 -0.608542,-0.76729 -0.79375,-0.97896 -0.132291,-0.47625 0.582083,-0.8202 0.02646,-0.55563 0.449792,-0.23812 -0.02646,-0.4498 0.899583,-0.13229 0.47625,-0.37041 0.740833,0.0265 0.211667,-0.29104 0.264583,-0.0529 1.005417,0.0529 1.058333,-0.47625 1.031875,0.60854 1.217084,-0.15875 -0.07937,-0.84666 0.714375,0.44979 -0.291042,1.05833 z"
       id="path318"
       style="fill:#ececec;stroke:#000000;stroke-width:0.0529167;stroke-linecap:round;stroke-linejoin:round" />
    <path
       d="m 52.466899,144.88416 0.396875,0.66146 0.449792,0.47625 -0.449792,0.635 -0.635,-0.37042 -0.926041,0.0265 -1.190625,-0.29104 -0.608542,0.0265 -0.264583,0.37041 -0.529167,-0.39687 -0.211666,0.68791 0.714375,0.79375 0.343958,0.50271 0.661458,0.635 0.555625,0.37042 0.555625,0.71437 1.27,0.635 -0.132292,0.26459 -1.322916,-0.60854 -0.846667,-0.60855 -1.27,-0.5027 -1.243541,-1.21709 0.264583,-0.13229 -0.661458,-0.71437 -0.07937,-0.55563 -0.873125,-0.26458 -0.370417,0.71437 -0.423333,-0.55562 v -0.58209 l 0.02646,-0.0265 0.9525,0.0529 0.211666,-0.26458 0.47625,0.26458 0.529167,0.0265 -0.02646,-0.44979 0.449792,-0.18521 0.07937,-0.66146 1.031875,-0.44979 0.423333,0.21167 1.058333,0.71437 1.137708,0.3175 z"
       id="HR"
       name="Croatia"
       style="fill:#ececec;stroke:#000000;stroke-width:0.0529167;stroke-linecap:round;stroke-linejoin:round" />
    <path
       d="m 56.356274,140.7302 0.79375,0.44979 0.132292,0.44979 -0.767292,0.34396 -0.502708,1.11125 -0.687917,1.13771 -1.031875,0.3175 -0.846666,-0.0794 -0.978959,0.42333 -0.47625,0.26458 -1.137708,-0.3175 -1.058333,-0.71437 -0.423333,-0.21167 -0.3175,-0.55562 -0.211667,-0.0265 0.343958,-1.05834 -0.291041,-0.37041 h 0.740833 l 0.05292,-0.68792 0.714375,0.44979 0.502709,0.15875 1.084791,-0.18521 0.07938,-0.34395 0.502709,-0.0529 0.608541,-0.23813 0.15875,0.10584 0.608542,-0.21167 0.264583,-0.39687 0.423334,-0.10584 1.455208,0.50271 z"
       id="HU"
       name="Hungary"
       style="fill:#ececec;stroke:#000000;stroke-width:0.0529167;stroke-linecap:round;stroke-linejoin:round" />
    <path
       d="m 19.4469,131.81374 0.185208,1.16417 -1.031875,1.45521 -2.328333,0.9525 -1.799167,-0.23813 1.137709,-1.69333 -0.555625,-1.64042 1.772708,-1.27 0.978958,-0.74083 0.238125,0.84667 -0.3175,0.87312 0.79375,-0.0265 z"
       id="IE"
       name="Ireland"
       style="fill:#ececec;stroke:#000000;stroke-width:0.0529167;stroke-linecap:round;stroke-linejoin:round" />
    <path
       d="m 90.037732,159.59499 1.243542,2.01084 1.005417,0.52916 0.238125,0.97896 -0.608542,0.58208 -0.132292,1.32292 1.217084,1.61396 1.878541,0.9525 0.926042,1.27 -0.05292,1.24354 h 0.449792 l 0.132292,0.89958 0.926041,0.89959 -0.873125,-0.0794 -0.978958,-0.15875 -0.873125,1.64042 -2.69875,-0.13229 -4.445,-3.41313 -2.275417,-1.19062 -1.799166,-0.47625 -0.820209,-2.06375 2.910417,-1.77271 0.264583,-2.03729 -0.3175,-1.24354 0.714375,-0.42334 0.555625,-1.05833 0.555625,-0.26458 1.666875,0.23812 0.555625,0.42333 z"
       id="IQ"
       name="Iraq"
       style="fill:#ececec;stroke:#000000;stroke-width:0.0529167;stroke-linecap:round;stroke-linejoin:round" />
    <path
       d="m 78.290232,166.20958 0.105834,0.68791 -0.15875,0.26459 h 0.02646 l -0.185208,0.52916 -0.555625,-0.21166 -0.185209,1.11125 0.396875,0.1852 -0.343958,0.23813 -0.02646,0.44979 0.661458,-0.21167 0.105833,0.66146 -0.47625,2.69875 -0.185208,-0.42333 -1.031875,-2.48708 0.370417,-0.55563 -0.105834,-0.10583 0.291042,-0.79375 0.15875,-1.27 0.15875,-0.44979 h 0.02646 0.47625 l 0.105834,-0.29105 z"
       id="IL"
       name="Israel"
       style="fill:#ececec;stroke:#000000;stroke-width:0.0529167;stroke-linecap:round;stroke-linejoin:round" />
    <path
       class="Italy"
       d="m 48.947941,157.79583 -0.449791,1.34937 0.238125,0.50271 -0.238125,0.87312 -1.11125,-0.635 -0.714375,-0.1852 -1.984375,-0.84667 0.132291,-0.87313 1.640417,0.15875 1.42875,-0.1852 z"
       id="path359"
       style="fill:#ececec;stroke:#000000;stroke-width:0.0529167;stroke-linecap:round;stroke-linejoin:round" />
    <path
       class="Italy"
       d="m 39.952108,152.76874 0.873125,1.19063 -0.105833,2.24896 -0.635,-0.10584 -0.555625,0.55563 -0.529167,-0.44979 -0.132292,-2.0373 -0.343958,-0.9525 0.767292,0.0794 z"
       id="path361"
       style="fill:#ececec;stroke:#000000;stroke-width:0.0529167;stroke-linecap:round;stroke-linejoin:round" />
    <path
       class="Italy"
       d="m 45.693566,143.9052 -0.105833,0.82021 0.370417,0.71437 -1.084792,-0.26458 -1.031875,0.60854 0.105833,0.82021 -0.132291,0.47625 0.502708,0.84667 1.322917,0.84666 0.767291,1.4023 1.613959,1.34937 1.058333,-0.0265 0.370417,0.37042 -0.370417,0.34396 1.27,0.60854 1.058333,0.50271 1.243542,0.89958 0.15875,0.29104 -0.211667,0.60854 -0.820208,-0.79375 -1.217084,-0.26458 -0.502708,1.08479 1.031875,0.635 -0.105833,0.87313 -0.555625,0.10583 -0.661459,1.45521 -0.582083,0.13229 -0.02646,-0.52917 0.238125,-0.89958 0.291041,-0.37042 -0.608541,-0.97895 -0.47625,-0.84667 -0.582083,-0.21167 -0.47625,-0.71437 -0.899583,-0.3175 -0.635,-0.68792 -1.005417,-0.10583 -1.137708,-0.74084 -1.296459,-1.11125 -0.978958,-0.9525 -0.502708,-1.66687 -0.687917,-0.18521 -1.11125,-0.55562 -0.608542,0.21166 -0.767291,0.79375 -0.555625,0.10584 0.132291,-0.71438 -0.740833,-0.21167 -0.396875,-1.29645 0.449792,-0.50271 -0.396875,-0.635 0.02646,-0.47625 0.582083,0.37041 0.661458,-0.0794 0.714375,-0.58208 0.238125,0.26458 0.635,-0.0529 0.264584,-0.66146 1.005416,0.21167 0.555625,-0.29104 0.07937,-0.66146 0.820209,0.23813 0.132291,-0.3175 1.296459,-0.29105 0.343958,0.55563 z"
       id="path363"
       style="fill:#ececec;stroke:#000000;stroke-width:0.0529167;stroke-linecap:round;stroke-linejoin:round" />
    <path
       d="m 83.317316,168.08812 -0.238125,0.26458 -2.751667,0.84667 1.5875,1.71979 -0.423333,0.26458 -0.185209,0.58209 -1.084791,0.23812 -0.291042,0.60854 -0.555625,0.52917 -1.640417,-0.29104 -0.07937,-0.23813 0.47625,-2.69875 -0.105833,-0.66146 0.15875,-0.5027 -0.105833,-1.05834 0.185208,-0.52916 1.666875,0.68791 2.566458,-1.82562 z"
       id="JO"
       name="Jordan"
       style="fill:#ececec;stroke:#000000;stroke-width:0.0529167;stroke-linecap:round;stroke-linejoin:round" />
    <path
       d="m 96.387732,171.81874 0.396875,0.74084 -0.07938,0.39687 0.635,1.27 -1.031875,0.0529 -0.449791,-0.82021 -1.322917,-0.15875 0.873125,-1.64042 z"
       id="KW"
       name="Kuwait"
       style="fill:#ececec;stroke:#000000;stroke-width:0.0529167;stroke-linecap:round;stroke-linejoin:round" />
    <path
       d="m 78.290232,166.20958 -0.370416,0.0264 -0.105834,0.29105 h -0.47625 l 0.343959,-1.4023 0.582083,-1.19062 v -0.0529 l 0.661458,0.0794 0.3175,0.66146 -0.714375,0.66145 z"
       id="LB"
       name="Lebanon"
       style="fill:#ececec;stroke:#000000;stroke-width:0.0529167;stroke-linecap:round;stroke-linejoin:round" />
    <path
       d="m 14.657942,209.68062 -0.05292,0.47625 0.132292,0.82021 -0.3175,0.76729 0.423333,0.47625 0.47625,0.10583 0.635,0.71438 0.05292,0.66145 -0.15875,0.21167 -0.105834,1.40229 -0.396875,0.0265 -1.534583,-0.82021 -1.375833,-1.29646 -1.27,-0.92604 -1.005417,-1.08479 0.370417,-0.55562 0.07937,-0.50271 0.687916,-0.89959 0.687917,-0.79375 0.343958,-0.0529 0.370417,-0.18521 0.635,1.03187 -0.105833,0.68792 0.291041,0.37042 h 0.423334 l 0.291041,-0.68792 z"
       id="LR"
       name="Liberia"
       style="fill:#ececec;stroke:#000000;stroke-width:0.0529167;stroke-linecap:round;stroke-linejoin:round" />
    <path
       d="m 63.341274,169.09353 -0.449791,0.82021 0.264583,0.74084 -0.291042,1.03187 0.529167,1.37583 0.343958,6.0325 0.264584,6.27063 0.132291,3.38667 h -1.693333 v 0.71437 l -5.979583,-3.25437 -5.953125,-3.25438 -1.455208,0.92604 -1.005417,0.635 -0.846667,-0.92604 -2.328333,-0.74083 -0.661458,-1.05834 -1.190625,-0.79375 -0.661459,0.3175 -0.555625,-0.9525 -0.05292,-0.71437 -0.899583,-1.24354 0.582083,-0.71438 -0.15875,-1.05833 0.15875,-0.92604 -0.105833,-0.79375 0.211667,-1.37584 -0.105834,-0.79375 -0.502708,-1.50812 0.687917,-0.37042 0.105833,-0.74083 -0.15875,-0.68792 0.9525,-0.66146 0.423333,-0.55562 0.687917,-0.47625 0.02646,-1.29646 1.693333,0.58208 0.608542,-0.15875 1.190625,0.29105 1.931458,0.76729 0.740833,1.50812 1.296458,0.3175 2.06375,0.71438 1.5875,0.84666 0.661459,-0.44979 0.661458,-0.76729 -0.423333,-1.29646 0.396875,-0.84666 0.978958,-0.79375 0.978958,-0.21167 1.957917,0.34396 0.529167,0.74083 0.529166,0.0265 0.47625,0.29104 1.42875,0.18521 z"
       id="LY"
       name="Libya"
       style="fill:#ececec;stroke:#000000;stroke-width:0.0529167;stroke-linecap:round;stroke-linejoin:round" />
    <path
       d="m 60.298566,129.00916 0.264583,0.71437 -0.9525,0.52917 -0.132291,0.89958 -1.27,0.60855 h -1.243542 l -0.370417,-0.50271 -0.661458,-0.18521 -0.15875,-0.39688 0.05292,-0.44979 -0.582084,-0.23812 -1.349375,-0.29104 -0.449791,-1.34938 1.349375,-0.47625 2.090208,0.10583 1.190625,-0.15875 0.238125,0.3175 0.661458,0.10584 z"
       id="LT"
       name="Lithuania"
       style="fill:#ececec;stroke:#000000;stroke-width:0.0529167;stroke-linecap:round;stroke-linejoin:round" />
    <path
       d="m 35.374816,139.01041 -0.370416,0.0265 -0.291042,-0.13229 0.105833,-0.92605 0.343959,-0.0529 0.264583,0.37041 z"
       id="LU"
       name="Luxembourg"
       style="fill:#ececec;stroke:#000000;stroke-width:0.0529167;stroke-linecap:round;stroke-linejoin:round" />
    <path
       d="m 60.748358,126.07228 0.661458,0.34396 0.264583,0.76729 0.555625,0.9525 -1.217083,0.60855 -0.714375,0.26458 -1.322917,-0.76729 -0.661458,-0.10584 -0.238125,-0.3175 -1.190625,0.15875 -2.090208,-0.10583 -1.349375,0.47625 -0.132292,-1.19062 0.449792,-1.00542 1.084791,-0.52917 1.164167,1.19063 0.978958,-0.0529 0.02646,-1.21708 1.005416,-0.26459 0.555625,0.18521 1.164167,0.58209 z"
       id="LV"
       name="Latvia"
       style="fill:#ececec;stroke:#000000;stroke-width:0.0529167;stroke-linecap:round;stroke-linejoin:round" />
    <path
       d="m 24.235858,162.98166 0.502708,1.08479 0.07938,1.03188 0.502709,1.79916 0.370416,0.37042 -0.264583,0.66146 -1.878542,0.29104 -0.661458,0.60854 -0.820208,0.15875 -0.07937,1.27 -1.693334,0.66146 -0.555625,0.84667 -1.190625,0.44979 -1.428749,0.26458 -2.354792,1.27 -0.02646,2.01083 H 14.4992 l 0.02646,0.89959 -0.899583,0.0529 -0.47625,0.39688 h -0.661459 l -0.529166,-0.23813 -1.217084,0.18521 -0.502708,1.32292 -0.4762503,0.13229 -0.714375,2.14313 -2.090208,1.82562 -0.529167,2.35479 -0.635,0.76729 -0.185208,0.60855 -3.307292,0.13229 h -0.02646 l 0.07937,-0.79375 0.582083,-0.44979 0.502708,-0.89959 -0.07937,-0.58208 0.529167,-1.19063 0.846667,-1.08479 0.502708,-0.26458 0.423333,-0.97896 0.05292,-0.92604 0.555625,-1.03188 1.005417,-0.635 0.9525,-1.71979 0.02646,-0.0265 0.767292,-0.66145 1.3493753,-0.18521 1.164166,-1.16417 0.740834,-0.44979 1.243541,-1.42875 -0.3175,-2.09021 0.582084,-1.48167 0.238125,-0.89958 0.9525,-1.13771 1.42875,-0.76729 1.084791,-0.71437 0.978958,-1.74625 0.47625,-1.05834 1.031875,0.0265 0.820209,0.71438 1.349375,-0.10584 1.455208,0.37042 z"
       id="MA"
       name="Morocco"
       style="fill:#ececec;stroke:#000000;stroke-width:0.0529167;stroke-linecap:round;stroke-linejoin:round" />
    <path
       d="m 65.140441,145.59853 -0.343958,-0.76729 0.05292,-0.71437 -0.15875,-0.71438 -0.899583,-1.00541 -0.529167,-0.68792 -0.47625,-0.47625 -0.423333,-0.18521 0.291042,-0.23812 0.846666,-0.15875 1.058334,0.5027 0.529166,0.0794 0.687917,0.44979 -0.02646,0.55563 0.529166,0.26458 0.291042,0.68792 0.529167,0.42333 -0.05292,0.26458 0.264583,0.15875 -0.343958,0.13229 -0.79375,-0.0529 -0.15875,-0.23813 -0.264583,0.13229 0.15875,0.29105 -0.291042,0.55562 -0.15875,0.55563 z"
       id="MD"
       name="Moldova"
       style="fill:#ececec;stroke:#000000;stroke-width:0.0529167;stroke-linecap:round;stroke-linejoin:round" />
    <path
       d="m 58.816899,152.55708 -0.264583,0.0529 -0.211667,0.29104 -0.740833,-0.0265 -0.47625,0.37041 -0.899583,0.13229 -0.608542,-0.39687 -0.264583,-0.71438 0.132291,-0.58208 0.185209,0.0265 0.02646,-0.34396 0.767292,-0.26458 0.3175,-0.0794 0.449791,-0.0794 0.635,-0.0529 0.740834,0.55563 z"
       id="MK"
       name="Macedonia"
       style="fill:#ececec;stroke:#000000;stroke-width:0.0529167;stroke-linecap:round;stroke-linejoin:round" />
    <path
       d="m 33.602108,190.18083 0.02646,3.91583 -0.820208,1.13771 -0.105834,1.05833 -1.322916,0.26458 -2.037292,0.1323 -0.529166,0.60854 -0.9525,0.0794 h -0.9525 l -0.370417,-0.3175 -0.820208,0.23813 -1.402292,0.71437 -0.291042,0.52917 -1.137708,0.74083 -0.211667,0.44979 -0.635,0.34396 -0.714375,-0.23812 -0.396875,0.42333 -0.238125,1.16417 -1.190625,1.40229 0.05292,0.58208 -0.423333,0.71438 0.105833,0.97896 -0.635,0.26458 -0.343958,0.21167 -0.238125,-0.71438 -0.423333,0.18521 -0.264584,-0.0265 -0.264583,0.47625 h -1.164167 l -0.396875,-0.26458 -0.211666,0.15875 -0.449792,-0.50271 0.07937,-0.50271 -0.185208,-0.18521 -0.3175,0.15875 0.07937,-0.55562 0.291041,-0.42334 -0.608541,-0.71437 -0.15875,-0.47625 -0.343959,-0.37042 -0.291041,-0.0529 -0.343959,0.23812 -0.502708,0.23813 -0.396875,0.37041 -0.635,-0.13229 -0.423333,-0.44979 -0.238125,-0.0529 -0.396875,0.23813 h -0.238125 l -0.07937,-0.635 0.07937,-0.52917 -0.132292,-0.635 -0.5291673,-0.47625 -0.291041,-0.97896 -0.05292,-1.05833 0.502708,-0.3175 0.264584,-1.00542 0.4762503,-0.0265 1.031875,0.47625 0.846666,-0.34395 0.555625,0.10583 0.238125,-0.37042 5.953125,-0.0265 0.343958,-1.19062 -0.264583,-0.21167 -0.661458,-7.32896 -0.635,-7.32895 2.248958,-0.0265 4.92125,3.70416 4.947708,3.70417 0.343958,0.79375 0.926042,0.47625 0.687917,0.29104 0.02646,1.08479 z"
       id="ML"
       name="Mali"
       style="fill:#ececec;stroke:#000000;stroke-width:0.0529167;stroke-linecap:round;stroke-linejoin:round" />
    <path
       d="m 54.874608,150.06999 -0.211667,0.37042 -0.370417,0.15875 -0.105833,-0.3175 -0.502708,0.82021 0.132291,0.55562 -0.291041,-0.13229 -0.449792,-0.55562 -0.608542,-0.34396 0.132292,-0.26459 0.105833,-0.92604 0.423334,-0.39687 0.238125,-0.15875 0.370416,0.29104 0.238125,0.23812 0.449792,0.18521 0.555625,0.34396 z"
       id="ME"
       name="Montenegro"
       style="fill:#ececec;stroke:#000000;stroke-width:0.0529167;stroke-linecap:round;stroke-linejoin:round" />
    <path
       d="m 20.108358,180.31187 -2.248958,0.0265 0.635,7.32895 0.661458,7.32896 0.264583,0.21167 -0.343958,1.19062 -5.953125,0.0265 -0.238125,0.37042 -0.555625,-0.10583 -0.846666,0.34395 -1.031875,-0.47625 -0.4762503,0.0265 -0.264584,1.00542 -0.502708,0.3175 -0.9525,-1.16417 -0.899583,-1.27 -0.9525,-0.44979 -0.714375,-0.47625 h -0.820209 l -0.740833,0.37042 -0.714375,-0.13229 -0.529167,0.52916 -0.105833,-0.89958 0.423333,-0.84667 0.211667,-1.5875 -0.105833,-1.69333 -0.15875,-0.84667 0.15875,-0.84666 -0.370417,-0.79375 -0.740833,-0.74084 0.343958,-0.55562 h 5.741458 l -0.238125,-2.46063 0.396875,-0.87312 1.375834,-0.13229 0.05292,-4.36563 4.7625003,0.10583 0.05292,-2.59291 z"
       id="MR"
       name="Mauritania"
       style="fill:#ececec;stroke:#000000;stroke-width:0.0529167;stroke-linecap:round;stroke-linejoin:round" />
    <path
       d="m 49.053775,183.88374 0.423333,2.64584 0.582083,0.44979 0.02646,0.52916 0.635,0.58209 -0.3175,0.74083 -0.47625,3.43958 -0.05292,2.2225 -1.852083,1.5875 -0.608542,2.24896 0.635,0.635 v 1.08479 l 0.978958,0.0265 -0.15875,0.82021 -0.396875,0.0794 -0.05292,0.55562 -0.264583,0.0265 -1.031875,-1.85208 -0.370417,-0.0794 -1.137708,0.9525 -1.164167,-0.50271 -0.79375,-0.0794 -0.423333,0.23812 -0.873125,-0.0529 -0.873125,0.71437 -0.767292,0.0529 -1.799166,-0.87313 -0.714375,0.39688 -0.767292,-0.0265 -0.555625,-0.635 -1.481667,-0.635 -1.613958,0.21167 -0.370417,0.34395 -0.211666,0.97896 -0.423334,0.68792 -0.105833,1.53458 -1.137708,-0.97896 h -0.529164 l -0.502708,0.50271 0.02646,-1.16416 -1.719792,-0.39688 -0.05292,-0.82021 -0.820208,-1.11125 -0.211667,-0.76729 0.132292,-0.82021 0.9525,-0.0794 0.529166,-0.60854 2.037292,-0.1323 1.322917,-0.26458 0.105834,-1.05833 0.820208,-1.13771 -0.02646,-3.91583 2.06375,-0.74084 4.233333,-3.33375 4.974167,-3.25437 2.328333,0.74083 0.846667,0.92604 z"
       id="NE"
       name="Niger"
       style="fill:#ececec;stroke:#000000;stroke-width:0.0529167;stroke-linecap:round;stroke-linejoin:round" />
    <path
       d="m 48.418775,201.53145 0.608541,0.66146 -0.15875,0.3175 -0.07937,0.55562 -1.243541,1.32292 -0.370417,1.08479 -0.211667,0.87313 -0.3175,0.39687 -0.291041,1.19063 -0.79375,0.68791 -0.211667,0.84667 -0.343958,0.68792 -0.132292,0.71437 -1.031875,0.58209 -0.846667,-0.71438 -0.555625,0.0265 -0.899583,1.00542 H 41.11628 l -0.714375,1.64041 -0.370417,1.21709 -1.561042,0.60854 -0.555625,-0.0794 -0.582083,0.37042 -1.190625,-0.0265 -0.820208,-1.08479 -0.502709,-1.21708 -1.058333,-1.11125 h -1.11125 -1.322917 l 0.07938,-2.72521 -0.05292,-1.08479 0.291042,-1.05834 0.449792,-0.52916 0.740833,-1.05834 -0.15875,-0.44979 0.291042,-0.68792 -0.343959,-1.00541 0.05292,-0.55563 0.105834,-1.53458 0.423333,-0.68792 0.211667,-0.97896 0.370416,-0.34395 1.613959,-0.21167 1.481666,0.635 0.555625,0.635 0.767292,0.0265 0.714375,-0.39688 1.799167,0.87313 0.767291,-0.0529 0.873125,-0.71437 0.873125,0.0529 0.423334,-0.23812 0.79375,0.0794 1.164166,0.50271 1.137709,-0.9525 0.370416,0.0794 1.031875,1.85208 z"
       id="NG"
       name="Nigeria"
       style="fill:#ececec;stroke:#000000;stroke-width:0.0529167;stroke-linecap:round;stroke-linejoin:round" />
    <path
       class="Norway"
       d="m 60.986483,107.81603 -1.693334,0.55563 -0.846666,0.13229 0.211666,-1.00542 -1.534583,-0.55562 -1.561042,0.47625 -0.291041,1.05833 -0.899584,0.635 -1.243541,-0.34396 -1.402292,0.0529 -1.349375,-0.74083 -0.582083,0.37041 -0.687917,0.0529 0.02646,0.9525 -2.116666,-0.23812 -0.15875,0.8202 H 45.7994 l -0.608542,1.03188 -0.899583,1.61396 -1.508125,2.09021 0.47625,0.52916 -0.343959,0.58209 -1.137708,-0.0265 -0.635,1.42875 0.264583,2.03729 0.820209,0.76729 -0.211667,1.82563 -0.899583,1.05833 -0.47625,0.89958 -0.873125,-0.9525 -2.275417,1.79917 -1.613958,0.37042 -1.719792,-0.79375 -0.47625,-1.66688 -0.529167,-3.57187 1.058334,-0.97896 2.989791,-1.29646 2.143125,-1.56104 1.905,-2.06375 2.354792,-2.83104 1.693333,-1.0848 2.725209,-1.79916 2.248958,-0.635 1.772708,0.0794 1.375833,-1.16416 1.957917,0.0529 1.852083,-0.26458 3.624792,1.03187 -1.296458,0.37042 z"
       id="path408"
       style="fill:#ececec;stroke:#000000;stroke-width:0.0529167;stroke-linecap:round;stroke-linejoin:round" />
    <path
       class="Norway"
       d="m 51.170441,96.624161 -2.010833,0.50271 -1.799167,-0.29104 0.582084,-0.3175 -0.687917,-0.39688 1.931458,-0.23812 0.502708,0.44979 z"
       id="path410"
       style="fill:#ececec;stroke:#000000;stroke-width:0.0529167;stroke-linecap:round;stroke-linejoin:round" />
    <path
       class="Norway"
       d="m 44.397108,94.375201 3.33375,0.89958 -2.275417,0.47625 -0.3175,0.89959 -0.79375,0.23812 -0.238125,1.05834 -1.164166,0.0529 -2.248959,-0.76729 0.79375,-0.44979 -1.508125,-0.37042 -2.037291,-1.03187 -0.846667,-0.92604 2.460625,-0.42334 0.608542,0.39688 h 1.322916 l 0.264584,-0.39688 1.375833,-0.0529 z"
       id="path412"
       style="fill:#ececec;stroke:#000000;stroke-width:0.0529167;stroke-linecap:round;stroke-linejoin:round" />
    <path
       class="Norway"
       d="m 50.852941,93.581451 1.957917,0.39688 -1.164167,0.635 -2.672291,0.13229 -2.831042,-0.21167 -0.264583,-0.3175 H 44.5294 l -1.137709,-0.52917 2.778125,-0.3175 1.42875,0.26459 0.820209,-0.34396 z"
       id="path414"
       style="fill:#ececec;stroke:#000000;stroke-width:0.0529167;stroke-linecap:round;stroke-linejoin:round" />
    <path
       d="m 52.043566,130.91416 1.561042,0.18521 2.328333,-0.0265 0.661458,0.18521 0.370417,0.50271 0.15875,0.71437 0.449792,0.60854 0.105833,0.635 -0.740833,0.34396 0.502708,0.74083 0.132292,0.74084 0.846666,1.42875 -0.07937,0.44979 -0.608541,0.18521 -1.005417,1.37583 0.423333,0.74083 -0.291041,-0.10583 -1.322917,-0.635 -0.926042,0.23813 -0.635,-0.15875 -0.740833,0.34395 -0.714375,-0.58208 -0.502708,0.23813 -0.07938,-0.10584 -0.687917,-0.82021 -0.978958,-0.0794 -0.185209,-0.52917 -0.899583,-0.18521 -0.15875,0.42334 -0.740833,-0.34396 0.05292,-0.44979 -0.978958,-0.13229 -0.661459,-0.52917 -0.635,-1.03188 0.05292,-0.58208 -0.396875,-0.87312 -0.502708,-0.55563 0.3175,-0.44979 -0.370417,-0.82021 0.820209,-0.47625 1.878541,-0.74083 1.534584,-0.52917 1.27,0.26458 0.15875,0.39688 z"
       id="PL"
       name="Poland"
       style="fill:#ececec;stroke:#000000;stroke-width:0.0529167;stroke-linecap:round;stroke-linejoin:round" />
    <path
       d="m 78.078566,167.69124 0.105833,1.05834 -0.15875,0.5027 -0.661458,0.21167 0.02646,-0.44979 0.343958,-0.23813 -0.396875,-0.1852 0.185209,-1.11125 z"
       id="PS"
       name="Palestine"
       style="fill:#ececec;stroke:#000000;stroke-width:0.0529167;stroke-linecap:round;stroke-linejoin:round" />
    <path
       d="m 62.362316,141.0477 0.423333,0.18521 0.47625,0.47625 0.529167,0.68792 0.899583,1.00541 0.15875,0.71438 -0.05292,0.71437 0.343958,0.76729 0.635,0.3175 0.608542,-0.29104 0.635,0.29104 0.105833,0.4498 -0.608542,0.34395 -0.423333,-0.15875 -0.105833,2.0373 -0.820209,-0.18521 -1.058333,-0.60854 -1.561042,0.39687 -0.608541,0.42333 -2.010834,-0.10583 -1.058333,-0.23812 -0.502708,0.10583 -0.47625,-0.68792 -0.264584,-0.29104 0.264584,-0.29104 -0.343959,-0.18521 -0.396875,0.37042 -0.820208,-0.50271 -0.185208,-0.68792 -0.846667,-0.37041 -0.211667,-0.55563 -0.79375,-0.635 1.031875,-0.3175 0.687917,-1.13771 0.502708,-1.11125 0.767292,-0.34396 0.529167,-0.37041 0.846666,0.18521 h 0.846667 l 0.661458,0.42333 0.423334,-0.26458 0.9525,-0.15875 0.264583,-0.39688 z"
       id="RO"
       name="Romania"
       style="fill:#ececec;stroke:#000000;stroke-width:0.0529167;stroke-linecap:round;stroke-linejoin:round" />
    <path
       d="m 72.919191,224.65603 0.582083,0.9525 -0.07937,1.00542 -0.423333,0.21167 -0.820209,-0.10584 -0.449791,0.97896 -0.926042,-0.13229 0.15875,-0.9525 0.211667,-0.13229 0.05292,-1.00542 0.423334,-0.47625 0.370416,0.18521 z"
       id="RW"
       name="Rwanda"
       style="fill:#ececec;stroke:#000000;stroke-width:0.0529167;stroke-linecap:round;stroke-linejoin:round" />
    <path
       d="m 14.737317,175.76103 -0.02646,0.10584 -0.02646,0.3175 -0.05292,2.59291 -4.7625003,-0.10583 -0.05292,4.36563 -1.375834,0.13229 -0.396875,0.87312 0.238125,2.46063 h -5.741458 l -0.343958,0.55562 0.07937,-0.71437 h 0.02646 l 3.307292,-0.13229 0.185208,-0.60855 0.635,-0.76729 0.529167,-2.35479 2.090208,-1.82562 0.714375,-2.14313 0.4762503,-0.13229 0.502708,-1.32292 1.217084,-0.18521 0.529166,0.23813 h 0.661459 l 0.47625,-0.39688 0.899583,-0.0529 -0.02646,-0.89959 z"
       id="EH"
       name="Western Sahara"
       style="fill:#ececec;stroke:#000000;stroke-width:0.0529167;stroke-linecap:round;stroke-linejoin:round" />
    <path
       d="m 81.438774,198.22416 -0.185208,1.45521 -0.529167,1.69333 -0.873125,0.82021 -0.608542,1.32292 -0.132291,0.68791 -0.687917,0.47625 -0.396875,1.77271 v 0.21167 l -0.211667,-0.0529 0.02646,-0.84667 -0.211667,-0.58208 -0.767292,-0.66146 -0.238125,-1.21708 0.15875,-1.27 -0.687916,-0.10583 -0.105834,0.37041 -0.899583,0.10584 0.396875,0.47625 0.132292,1.03187 -0.79375,0.92604 -0.714375,1.21709 -0.767292,0.1852 -1.27,-0.97895 -0.555625,0.34395 -0.132292,0.47625 -0.767291,0.34396 -0.05292,0.34396 h -1.481666 l -0.211667,-0.34396 -1.084792,-0.0794 -0.529166,0.29104 -0.423334,-0.13229 -0.767291,-1.00542 -0.264584,-0.44979 -1.084791,0.23812 -0.396875,0.7673 -0.343959,1.53458 -0.529166,0.3175 -0.449792,0.18521 -0.132292,-0.0794 -0.502708,-0.50271 -0.105833,-0.52916 0.211666,-0.68792 v -0.71437 l -0.873125,-1.05834 -0.185208,-0.71437 v -0.42334 l -0.555625,-0.5027 -0.02646,-0.97896 -0.343959,-0.66146 -0.502708,0.10583 0.132292,-0.635 0.370416,-0.68791 -0.185208,-0.71438 0.47625,-0.52917 -0.3175,-0.39687 0.343958,-1.03188 0.661459,-1.27 1.27,0.1323 -0.291042,-6.74688 v -0.71437 h 1.693333 l -0.132291,-3.38667 h 5.900208 5.688541 5.847292 l 0.555625,1.66687 -0.3175,0.29105 0.3175,1.7727 0.661458,2.01084 0.582084,0.42333 0.846666,0.635 -0.714375,0.9525 -1.058333,0.29104 -0.449792,0.52917 -0.07937,1.11125 -0.529166,2.51354 z"
       id="SD"
       name="Sudan"
       style="fill:#ececec;stroke:#000000;stroke-width:0.0529167;stroke-linecap:round;stroke-linejoin:round" />
    <path
       d="m 78.025649,206.66437 0.05292,1.32291 -0.211667,0.50271 -0.79375,0.0529 -0.502708,0.9525 0.926041,0.13229 0.79375,0.82021 0.264584,0.68792 0.687916,0.39687 0.926042,1.85208 -1.005417,1.11125 -0.899583,1.00542 -0.926042,0.79375 h -1.058333 l -1.190625,0.39688 -0.9525,-0.39688 -0.608542,0.47625 -1.349375,-1.13771 -0.370416,-0.71437 -0.820209,0.34396 -0.687916,-0.10584 -0.396875,0.29104 -0.687917,-0.21166 -0.926041,-1.40229 -0.238125,-0.52917 -1.137709,-0.68792 -0.370416,-1.00541 -0.635,-0.74084 -1.031875,-0.87312 -0.02646,-0.55563 -0.820208,-0.68791 -1.031875,-0.66146 0.449792,-0.18521 0.529166,-0.3175 0.343959,-1.53458 0.396875,-0.7673 1.084791,-0.23812 0.264584,0.44979 0.767291,1.00542 0.423334,0.13229 0.529166,-0.29104 1.084792,0.0794 0.211667,0.34396 h 1.481666 l 0.05292,-0.34396 0.767291,-0.34396 0.132292,-0.47625 0.555625,-0.34395 1.27,0.97895 0.767292,-0.1852 0.714375,-1.21709 0.79375,-0.92604 -0.132292,-1.03187 -0.396875,-0.47625 0.899583,-0.10584 0.105834,-0.37041 0.687916,0.10583 -0.15875,1.27 0.238125,1.21708 0.767292,0.66146 0.211667,0.58208 -0.02646,0.84667 z"
       id="SS"
       name="South Sudan"
       style="fill:#ececec;stroke:#000000;stroke-width:0.0529167;stroke-linecap:round;stroke-linejoin:round" />
    <path
       d="m 9.2075247,197.90666 0.05292,1.05833 0.291041,0.97896 0.5291673,0.47625 0.132292,0.635 -0.07937,0.52917 -0.2116673,0.10583 -0.820208,-0.13229 -0.105834,0.18521 -0.3175,0.0265 -1.084791,-0.39688 -0.714375,-0.0265 -2.751667,-0.0794 -0.396875,0.21166 -0.502708,-0.0529 -0.79375,0.26458 -0.211667,-1.29646 1.349375,0.0265 0.370417,-0.23812 h 0.264583 l 0.555625,-0.39688 0.635,0.34396 0.635,0.0529 0.661458,-0.39688 -0.291041,-0.47625 -0.502709,0.26458 h -0.449791 l -0.582084,-0.42333 -0.47625,0.0265 -0.343958,0.42333 -1.613958,0.0265 -0.608542,-1.32292 -0.714375,-0.58208 0.661458,-0.34396 0.740834,-1.19062 0.370416,-0.87313 0.529167,-0.52916 0.714375,0.13229 0.740833,-0.37042 h 0.820209 l 0.714375,0.47625 0.9525,0.44979 0.899583,1.27 z"
       id="SN"
       name="Senegal"
       style="fill:#ececec;stroke:#000000;stroke-width:0.0529167;stroke-linecap:round;stroke-linejoin:round" />
    <path
       d="m 11.98565,208.46353 -0.687917,0.79375 -0.687916,0.89959 -0.07937,0.50271 -0.370417,0.55562 -0.3968753,-0.13229 -1.058333,-0.68792 -0.79375,-0.89958 -0.238125,-0.635 -0.185209,-1.24354 0.820209,-0.76729 0.15875,-0.4498 0.264583,-0.37041 0.423333,-0.0529 0.343959,-0.3175 h 1.1906253 l 0.423333,0.60854 0.3175,0.71438 -0.05292,0.50271 0.238125,0.44979 -0.02646,0.60854 z"
       id="SL"
       name="Sierra Leone"
       style="fill:#ececec;stroke:#000000;stroke-width:0.0529167;stroke-linecap:round;stroke-linejoin:round" />
    <path
       d="m 57.890858,147.68874 -0.291042,0.37042 0.185208,0.635 0.740834,0.71437 -0.47625,0.52917 -0.15875,0.52917 0.15875,0.21166 -0.185209,0.21167 -0.635,0.0529 -0.449791,0.0794 -0.07937,-0.13229 0.15875,-0.18521 0.105833,-0.42333 -0.185208,0.0265 -0.291042,-0.3175 -0.238125,-0.0794 -0.211667,-0.26458 -0.264583,-0.10583 -0.211667,-0.23813 -0.238125,0.10583 -0.132291,0.55563 -0.3175,0.10583 0.105833,-0.13229 -0.555625,-0.34396 -0.449792,-0.18521 -0.238125,-0.23812 -0.370416,-0.29104 0.291041,-0.0794 0.132292,-0.76729 -0.714375,-0.66146 0.291042,-0.74083 -0.502709,0.0265 0.449792,-0.635 -0.449792,-0.47625 -0.396875,-0.66146 0.978959,-0.42333 0.846666,0.0794 0.79375,0.635 0.211667,0.55563 0.846667,0.37041 0.185208,0.68792 0.820208,0.50271 0.396875,-0.37042 0.343959,0.18521 -0.264584,0.29104 z"
       id="RS"
       name="Serbia"
       style="fill:#ececec;stroke:#000000;stroke-width:0.0529167;stroke-linecap:round;stroke-linejoin:round" />
    <path
       d="m 56.858983,139.61895 -0.3175,0.44979 -0.185209,0.66146 -0.264583,0.15875 -1.455208,-0.50271 -0.423334,0.10584 -0.264583,0.39687 -0.608542,0.21167 -0.15875,-0.10584 -0.608541,0.23813 -0.502709,0.0529 -0.07938,0.34395 -1.084791,0.18521 -0.502709,-0.15875 -0.714375,-0.44979 -0.185208,-0.55562 0.07937,-0.21167 0.15875,-0.37042 0.582083,0.0265 0.423334,-0.15875 0.02646,-0.15875 0.238125,-0.0794 0.05292,-0.37042 0.291041,-0.0794 0.185209,-0.29104 h 0.396875 l 0.07938,0.10584 0.502708,-0.23813 0.714375,0.58208 0.740833,-0.34395 0.635,0.15875 0.926042,-0.23813 z"
       id="SK"
       name="Slovakia"
       style="fill:#ececec;stroke:#000000;stroke-width:0.0529167;stroke-linecap:round;stroke-linejoin:round" />
    <path
       d="m 49.371275,143.9052 -1.031875,0.44979 -0.07937,0.66146 -0.449792,0.18521 0.02646,0.44979 -0.529167,-0.0265 -0.47625,-0.26458 -0.211666,0.26458 -0.9525,-0.0529 0.291041,-0.1323 -0.370416,-0.71437 0.105833,-0.82021 1.11125,0.13229 0.635,-0.39687 1.164167,-0.0265 0.238125,-0.29104 0.211666,0.0265 z"
       id="SI"
       name="Slovenia"
       style="fill:#ececec;stroke:#000000;stroke-width:0.0529167;stroke-linecap:round;stroke-linejoin:round" />
    <path
       d="m 54.239608,112.97541 -1.852084,0.42333 -0.926041,1.03188 0.343958,0.92604 -1.640417,1.19062 -2.063749,1.32292 -0.555625,2.14313 0.978958,1.08479 1.27,0.87312 -0.873125,1.74625 -1.217083,0.37042 -0.15875,2.64583 -0.555625,1.50813 -1.508125,-0.15875 -0.582084,1.27 -1.455208,0.0794 -0.502708,-1.50812 -1.190625,-1.82563 -1.11125,-2.2225 0.47625,-0.89958 0.899583,-1.05833 0.211667,-1.82563 -0.820209,-0.76729 -0.264583,-2.03729 0.635,-1.42875 1.137708,0.0265 0.343959,-0.58209 -0.47625,-0.52916 1.508125,-2.09021 0.899583,-1.61396 0.608542,-1.03188 h 1.058333 l 0.15875,-0.8202 2.116667,0.23812 -0.02646,-0.9525 0.687916,-0.0529 1.5875,0.71438 1.905,0.97896 0.47625,2.24896 z"
       id="SE"
       name="Sweden"
       style="fill:#ececec;stroke:#000000;stroke-width:0.0529167;stroke-linecap:round;stroke-linejoin:round" />
    <path
       d="m 82.497107,166.02437 -2.566458,1.82562 -1.666875,-0.68791 h -0.02646 l 0.15875,-0.26459 -0.105834,-0.68791 0.238125,-0.92605 0.714375,-0.66145 -0.3175,-0.66146 -0.661458,-0.0794 -0.291042,-1.29646 0.264584,-0.71437 0.343958,-0.37042 0.3175,-0.37041 -0.05292,-0.92605 0.502709,0.3175 1.481666,-0.47625 0.79375,0.3175 h 1.164167 l 1.508125,-0.635 0.767292,0.0265 1.561041,-0.26458 -0.555625,1.05833 -0.714375,0.42334 0.3175,1.24354 -0.264583,2.03729 z"
       id="SY"
       name="Syria"
       style="fill:#ececec;stroke:#000000;stroke-width:0.0529167;stroke-linecap:round;stroke-linejoin:round" />
    <path
       d="m 62.441691,189.46645 0.291042,6.74688 -1.27,-0.1323 -0.661459,1.27 -0.343958,1.03188 0.3175,0.39687 -0.47625,0.52917 0.185208,0.71438 -0.370416,0.68791 -0.132292,0.635 0.502708,-0.10583 0.343959,0.66146 0.02646,0.97896 0.555625,0.5027 v 0.42334 l -0.9525,0.29104 -0.740833,0.68792 -1.058334,1.85208 -1.375833,0.79375 -1.455208,-0.10583 -0.423334,0.15875 0.15875,0.58208 -0.767291,0.60854 -0.635,0.66146 -1.878542,0.635 -0.370417,-0.37042 -0.264583,-0.0529 -0.264583,0.44979 -1.217084,0.13229 0.211667,-0.47625 -0.47625,-1.16417 -0.211667,-0.68791 -0.661458,-0.29105 -0.899583,-1.00541 0.3175,-0.79375 0.687917,0.15875 0.423333,-0.10584 h 0.846666 l -0.846666,-1.53458 0.05292,-1.13771 -0.132291,-1.11125 -0.608542,-1.08479 0.15875,-0.82021 -0.978958,-0.0265 v -1.08479 l -0.635,-0.635 0.608541,-2.24896 1.852084,-1.5875 0.05292,-2.2225 0.47625,-3.43958 0.3175,-0.74083 -0.635,-0.58209 -0.02646,-0.52916 -0.582083,-0.44979 -0.423334,-2.64584 1.455209,-0.92604 5.953125,3.25438 z"
       id="TD"
       name="Chad"
       style="fill:#ececec;stroke:#000000;stroke-width:0.0529167;stroke-linecap:round;stroke-linejoin:round" />
    <path
       d="m 28.627941,204.04499 -0.185208,0.89959 0.449792,0.5027 0.529166,0.58209 0.05292,0.84666 0.3175,0.34396 -0.07937,3.91584 0.370417,1.16416 -1.190625,0.37042 -0.343959,-0.60854 -0.396875,-1.08479 -0.132291,-0.84667 0.343958,-1.50813 -0.370417,-0.635 -0.15875,-1.32291 v -1.24354 l -0.608541,-0.87313 0.105833,-0.52917 z"
       id="TG"
       name="Togo"
       style="fill:#ececec;stroke:#000000;stroke-width:0.0529167;stroke-linecap:round;stroke-linejoin:round" />
    <path
       d="m 43.656275,166.4477 -0.02646,1.29646 -0.687917,0.47625 -0.423333,0.55562 -0.9525,0.66146 0.15875,0.68792 -0.105834,0.74083 -0.687916,0.37042 -0.687917,-3.04271 -0.899583,-0.68792 -0.02646,-0.39687 -1.190625,-1.03188 -0.15875,-1.27 0.846667,-0.9525 0.291042,-1.40229 -0.264584,-1.61396 0.264584,-0.87312 1.508125,-0.66146 0.978958,0.18521 v 0.87312 l 1.164167,-0.635 0.105833,0.3175 -0.661458,0.84667 0.02646,0.76729 0.502708,0.42334 -0.132292,1.48166 -0.926041,0.84667 0.3175,0.92604 0.740833,0.0265 0.370417,0.82021 z"
       id="TN"
       name="Tunisia"
       style="fill:#ececec;stroke:#000000;stroke-width:0.0529167;stroke-linecap:round;stroke-linejoin:round" />
    <path
       class="Turkey"
       d="m 84.269816,152.21312 1.455208,-0.0794 1.481667,0.84667 0.343958,0.58208 0.02646,0.82021 1.11125,0.42333 0.635,0.47625 -0.873125,0.50271 0.767292,1.93146 -0.185208,0.52917 1.005416,1.34937 -0.635,0.29104 -0.555625,-0.42333 -1.666875,-0.23812 -0.555625,0.26458 -1.561041,0.26458 -0.767292,-0.0265 -1.508125,0.635 h -1.164167 l -0.79375,-0.3175 -1.481666,0.47625 -0.502709,-0.3175 0.05292,0.92605 -0.3175,0.37041 -0.343958,0.37042 -0.608542,-0.76729 0.449792,-0.635 -0.846667,0.15875 -1.217083,-0.39688 -0.846667,0.97896 -2.116667,0.18521 -1.243541,-0.89958 -1.508125,-0.0529 -0.264583,0.68792 -0.9525,0.21166 -1.42875,-0.89958 -1.534584,0.0265 -1.005416,-1.69334 -1.11125,-0.92604 0.529166,-1.32291 -0.9525,-0.82021 1.349375,-1.61396 2.116667,-0.0529 0.423333,-1.29646 2.645834,0.23813 1.481666,-1.08479 1.534583,-0.47625 2.248959,-0.0529 2.592916,1.19063 2.090209,0.66145 1.534583,-0.26458 1.217083,0.15875 z"
       id="path474"
       style="fill:#ececec;stroke:#000000;stroke-width:0.0529167;stroke-linecap:round;stroke-linejoin:round" />
    <path
       class="Turkey"
       d="m 63.156066,153.4302 0.3175,-0.18521 0.291042,-1.05833 -0.714375,-0.44979 1.322916,-0.52917 1.217084,0.21167 0.238125,0.66146 1.27,0.52916 -0.185209,0.42334 -1.640416,0.0794 -0.529167,0.52917 -1.031875,0.89958 -0.529167,-0.76729 z"
       id="path476"
       style="fill:#ececec;stroke:#000000;stroke-width:0.0529167;stroke-linecap:round;stroke-linejoin:round" />
    <path
       d="m 78.263774,215.50145 0.714375,1.19063 0.185208,0.84666 0.687917,1.95792 -0.555625,1.24354 -0.740833,1.11125 -0.423334,0.68792 v 0.0794 l -0.05292,-0.10583 -0.79375,-0.34396 -0.635,0.42333 -0.9525,0.23813 -0.687917,0.97896 0.07938,0.66145 -1.640417,-0.0265 -0.529166,0.21166 -0.899584,0.52917 -0.370416,-0.18521 0.02646,-1.27 0.343958,-0.66146 0.07937,-1.34937 0.3175,-0.79375 0.582084,-0.87313 0.555625,-0.47625 0.502708,-0.58208 -0.608542,-0.23812 0.07938,-1.98438 0.608542,-0.47625 0.9525,0.39688 1.190625,-0.39688 h 1.058333 z"
       id="UG"
       name="Uganda"
       style="fill:#ececec;stroke:#000000;stroke-width:0.0529167;stroke-linecap:round;stroke-linejoin:round" />
    <path
       d="m 72.495857,136.15291 0.608542,0.71437 0.02646,0.3175 1.772709,0.58209 0.9525,-0.26459 0.9525,0.7673 0.767291,-0.0265 2.037292,0.52916 0.105833,0.50271 -0.343958,0.84667 0.47625,0.92604 -0.07937,0.55563 -1.27,0.10583 -0.582083,0.47625 0.105833,0.71437 -1.031875,0.1323 -0.79375,0.55562 -1.217083,0.0794 -1.058334,0.635 0.264584,1.03187 0.740833,0.39688 1.349375,-0.10584 -0.15875,0.60854 -1.42875,0.29105 -1.666875,0.9525 -0.820208,-0.34396 0.185208,-0.76729 -1.561042,-0.50271 0.185209,-0.3175 1.217083,-0.55563 -0.449792,-0.37041 -2.143124,-0.42334 -0.211667,-0.635 -1.190625,0.21167 -0.343958,0.92604 -0.873125,1.21708 -0.635,-0.29104 -0.608542,0.29104 -0.635,-0.3175 0.3175,-0.1852 0.15875,-0.55563 0.291042,-0.55562 -0.15875,-0.29105 0.264583,-0.13229 0.15875,0.23813 0.79375,0.0529 0.343958,-0.13229 -0.264583,-0.15875 0.05292,-0.26458 -0.529167,-0.42333 -0.291042,-0.68792 -0.529166,-0.26458 0.02646,-0.55563 -0.687917,-0.44979 -0.529166,-0.0794 -1.058334,-0.5027 -0.846666,0.15875 -0.291042,0.23812 h -0.555625 l -0.264583,0.39688 -0.9525,0.15875 -0.423334,0.26458 -0.661458,-0.42333 h -0.846667 l -0.846666,-0.18521 -0.529167,0.37041 -0.132292,-0.44979 -0.79375,-0.44979 0.185209,-0.66146 0.3175,-0.44979 0.291041,0.10583 -0.423333,-0.74083 1.005417,-1.37583 0.608541,-0.18521 0.07937,-0.44979 -0.846666,-1.42875 0.608541,-0.0794 0.635,-0.42333 1.005417,-0.0529 1.296458,0.13229 1.508125,0.39688 1.031875,0.0265 0.502709,0.23812 0.449791,-0.29104 0.396875,0.39688 1.137709,-0.0794 0.555625,0.15875 -0.07937,-0.82021 0.343958,-0.37041 1.084792,-0.0794 0.47625,0.0529 0.264583,-0.37042 0.396875,0.0794 1.296458,-0.15875 1.005417,0.92604 -0.238125,0.34396 0.211666,0.5027 z"
       id="UA"
       name="Ukraine"
       style="fill:#ececec;stroke:#000000;stroke-width:0.0529167;stroke-linecap:round;stroke-linejoin:round" />
    <path
       d="m 56.779608,151.02249 -0.3175,0.0794 -0.767292,0.26458 -0.02646,0.34396 -0.185209,-0.0265 -0.15875,-0.60854 -0.343958,-0.18521 -0.3175,-0.44979 0.211667,-0.37042 0.3175,-0.10583 0.132291,-0.55563 0.238125,-0.10583 0.211667,0.23813 0.264583,0.10583 0.211667,0.26458 0.238125,0.0794 0.291042,0.3175 0.185208,-0.0265 -0.105833,0.42333 -0.15875,0.18521 z"
       id="XK"
       name="Kosovo"
       style="fill:#ececec;stroke:#000000;stroke-width:0.0529167;stroke-linecap:round;stroke-linejoin:round" />
    <path
       d="m 35.268983,136.81437 -0.740833,-0.39688 -0.820209,-0.71437 -1.190625,0.34396 -0.9525,-0.1323 0.661459,-0.44979 1.058333,-2.38125 1.719792,-0.68791 1.058333,0.0529 0.238125,0.55563 -0.238125,1.48166 -0.3175,0.60855 h -0.767292 z"
       id="NL"
       name="Netherlands"
       style="fill:#ececec;stroke:#000000;stroke-width:0.0529167;stroke-linecap:round;stroke-linejoin:round" />
    <path
       d="m 16.853983,159.72728 -0.582083,0.42334 -0.740833,-0.23813 -0.714375,0.18521 0.238125,-1.32292 -0.07937,-1.03187 -0.635,-0.15875 -0.291042,-0.635 0.132292,-1.11125 0.582083,-0.60854 0.132292,-0.68792 0.3175,-1.00542 v -0.71437 l -0.238125,-0.60854 -0.05292,-0.58209 0.502708,-0.42333 0.582084,-0.23812 0.3175,0.8202 h 0.79375 l 0.238125,-0.21166 0.820208,0.0529 0.343958,0.84667 -0.635,0.44979 -0.07938,1.32292 -0.211666,0.23812 -0.07938,0.82021 -0.608542,0.13229 0.529167,1.00542 -0.423334,1.11125 0.47625,0.50271 -0.211666,0.44979 -0.529167,0.635 z"
       id="PT"
       name="Portugal"
       style="fill:#ececec;stroke:#000000;stroke-width:0.0529167;stroke-linecap:round;stroke-linejoin:round" />
    <path
       class="Russian Federation"
       d="m 55.932941,131.07291 -2.328333,0.0265 -1.561042,-0.18521 0.185208,-0.68792 1.666875,-0.52916 1.349375,0.29104 0.582084,0.23812 -0.05292,0.44979 z"
       id="path504"
       style="fill:#ececec;stroke:#000000;stroke-width:0.0529167;stroke-linecap:round;stroke-linejoin:round" />
    <path
       class="Russian Federation"
       d="m 88.794191,106.17562 -0.582084,0.10583 -3.571875,-0.18521 -0.608541,-0.60854 -2.090209,-0.37042 -0.529166,-0.76729 0.926041,-0.29104 -0.423333,-0.74083 1.42875,-1.16417 -1.058333,-0.15875 1.772708,-1.19062 -0.661458,-0.60855 1.799166,-0.687909 2.725209,-0.84667 3.095625,-0.23812 1.322916,-0.47625 1.772709,-0.15875 1.11125,0.5027 -0.343959,0.39688 -3.01625,0.66146 -2.619375,0.60854 -2.301875,1.269999 -0.740833,1.32292 -0.873125,1.32291 0.820208,1.13771 z"
       id="path512"
       style="fill:#ececec;stroke:#000000;stroke-width:0.0529167;stroke-linecap:round;stroke-linejoin:round" />
    <path
       class="Russian Federation"
       d="m 205.97815,151.07541 -0.37042,-0.29104 -0.50271,-0.87313 0.66146,-0.0265 -1.03187,-1.98437 -1.24354,-1.42875 0.76729,-0.58208 1.82562,0.29104 -0.15875,-1.64042 -0.74083,-1.79917 0.0794,-0.60854 -0.34395,-1.50812 -1.82563,0.50271 -0.68792,0.635 h -2.01083 l -1.5875,-1.53459 -2.38125,-1.19062 -2.64583,-0.52917 -1.64042,-1.5875 -1.19062,-1.00542 -1.00542,-0.71437 -2.03729,-1.64042 -1.5875,-0.58208 -2.27542,-0.50271 -1.64042,0.0529 -1.34937,0.29104 -0.44979,0.82021 0.97896,0.37041 0.66145,0.89959 -0.34395,0.52916 0.0529,1.7198 0.50271,0.74083 -1.16417,1.03187 -1.95791,-0.635 -1.48167,0.15875 -1.03187,-0.55562 -0.89959,-0.18521 -1.16416,1.16417 -1.56105,0.26458 -0.9525,0.42333 -1.79916,-0.26458 h -1.21709 l -1.29645,-0.84667 -1.74625,-0.76729 -1.42875,-0.23812 -1.50813,0.21166 -1.05833,0.3175 -2.24896,-0.68791 -0.9525,-1.21709 -1.77271,-0.42333 -1.27,-0.21167 -1.85208,-0.66145 -0.34396,1.69333 1.05833,0.9525 -0.635,1.16417 -2.11666,-0.42334 -1.32292,-0.0529 -1.27,-0.7673 -1.37583,-0.0265 -1.40229,-0.50271 -1.56105,0.76729 -1.7727,1.40229 -1.24355,0.29104 -0.44979,0.13229 -1.16416,-1.00541 -1.58751,0.23812 -0.87312,-0.71437 -1.05833,-0.3175 -1.0848,-0.9525 -0.87312,-0.29104 -1.64042,0.42333 -2.2225,-0.92604 -0.29104,0.84666 -4.84187,-4.1275 -2.2225,-1.24354 0.21166,-0.52916 -2.43417,1.53458 -1.16416,0.0794 -0.29104,-0.87312 -1.87855,-0.55563 -1.1377,0.39688 -1.16417,-1.66688 -2.40771,-0.34395 -0.82021,0.66145 -2.88396,0.60855 -0.44979,0.39687 -4.49791,0.55563 -0.37042,0.55562 1.34937,1.11125 -1.05833,0.42333 0.39688,0.42334 -0.92605,0.79375 2.48709,1.13771 -0.0529,0.76729 -1.85208,-0.0794 -0.21167,0.50271 -1.93146,-0.84667 -2.03729,0.0265 -1.164168,0.68792 -1.74625,-0.66146 -3.174999,-1.13771 -2.010834,0.0529 -2.143125,1.77271 0.15875,1.19062 -1.5875,-0.9525 -0.582083,1.82563 0.47625,0.3175 -0.449792,1.27 1.402292,1.11125 0.9525,-0.0529 1.137708,1.11125 0.05292,0.84667 0.740833,0.29104 -0.370416,0.97896 -1.217084,0.26458 -0.9525,1.71979 1.5875,1.61396 0.105834,1.11125 1.931458,1.98438 -0.661458,0.68791 -0.15875,0.42334 -0.635,-0.1323 -1.137709,-1.00541 -0.396875,-0.0529 -0.9525,-0.39687 -0.555625,-0.68792 -1.349375,-0.34396 -0.767291,0.26458 -0.3175,-0.3175 -2.010834,-0.8202 -2.037291,-0.26459 -1.217084,-0.29104 -0.105833,0.21167 -2.010833,-1.42875 -1.640417,-0.635 -1.349375,-0.97896 0.9525,-0.26458 0.846667,-1.37584 -0.873125,-0.66146 1.825625,-0.68791 -0.105834,-0.37042 -1.137708,0.26458 -0.105833,-0.71437 0.582083,-0.47625 1.27,-0.10583 0.07937,-0.55563 -0.47625,-0.92604 0.343958,-0.84667 -0.105833,-0.50271 -2.037292,-0.52916 -0.767291,0.0265 -0.9525,-0.7673 -0.9525,0.26459 -1.772709,-0.58209 -0.02646,-0.3175 -0.608542,-0.71437 -1.031875,-0.0794 -0.211666,-0.5027 0.238125,-0.34396 -1.005417,-0.92604 -1.296458,0.15875 -0.396875,-0.0794 -0.264583,0.37042 -0.47625,-0.0529 -0.529167,-1.05833 -0.396875,-0.52917 0.211667,-0.15875 1.031875,0.0529 0.423333,-0.34396 -0.449792,-0.42333 -0.899583,-0.29105 v -0.29104 l -0.555625,-0.29104 -1.005417,-1.05833 0.185209,-0.42334 -0.291042,-0.76729 -1.27,-0.37041 -0.635,0.1852 -0.238125,-0.39687 -1.402292,-0.39688 -0.555625,-0.9525 -0.264583,-0.76729 -0.661458,-0.34396 0.423333,-0.5027 -0.635,-1.48167 0.687917,-0.89958 -0.238125,-0.26459 1.190625,-0.87312 -1.42875,-0.74084 2.116666,-1.95791 0.899584,-0.89959 0.238125,-0.76729 -1.957917,-1.03187 0.238125,-1.00542 -1.296458,-1.11125 0.449791,-1.27 -1.719791,-1.66687 0.767291,-1.11125 -1.931458,-0.97896 -0.105833,-1.00542 0.846666,-0.13229 1.693334,-0.55563 0.978958,-0.5027 2.037292,0.84666 3.095625,0.34396 4.683124,1.64042 1.084792,0.68791 0.396875,0.97896 -0.978958,0.76729 -1.719792,0.39688 -5.344583,-1.11125 -0.767292,0.18521 2.143125,1.08479 0.264584,0.68792 0.502708,1.53458 1.613958,0.44979 1.005417,0.39688 -0.05292,-0.74084 -0.899583,-0.635 0.555625,-0.58208 3.069166,0.9525 0.846667,-0.37042 -1.137708,-1.11125 2.143125,-1.42875 1.084791,0.0794 1.217084,0.50271 0.291041,-1.00542 -1.243541,-0.87313 0.211666,-0.87312 -1.137708,-0.89958 3.254375,0.47625 0.9525,0.79375 -1.349375,0.1852 0.3175,0.82021 1.084792,0.50271 1.5875,-0.3175 -0.105834,-0.92604 2.037292,-0.71438 3.280833,-1.21708 0.846667,0.0529 -0.661458,0.87312 1.42875,0.15875 0.555625,-0.50271 2.037291,-0.0265 1.322917,-0.60855 1.693333,0.87313 0.740834,-0.9525 -1.5875,-0.82021 0.3175,-0.47625 3.439583,0.42333 1.74625,0.4498 4.921251,1.64041 0.29104,-0.74083 -1.56104,-0.76729 -0.21167,-0.29104 -1.40229,-0.15875 -0.05292,-0.66146 -1.243542,-1.11125 -0.291042,-0.44979 1.137709,-1.24355 -0.15875,-1.27 0.582083,-0.26458 3.016252,0.37042 0.76729,0.76729 -0.23813,1.11125 0.97896,0.44979 1.00542,0.97896 1.00542,1.95792 1.7727,0.87312 0.1323,0.97896 -0.92605,2.06375 1.4023,0.21167 0.13229,-0.52917 1.00541,-0.37042 -0.13229,-0.71437 0.50271,-0.71438 -1.16417,-0.82021 -0.10583,-0.9525 -1.27,-0.10583 -0.76729,-0.79375 -0.10583,-1.42875 -2.16959,-1.13771 1.24354,-0.92604 -0.97895,-0.97896 0.5027,-0.0265 1.11125,0.74084 0.55563,1.34937 1.32292,0.26459 -1.21709,-1.00542 1.34938,-0.55563 2.14312,-0.0794 2.54,0.79375 -1.82562,-1.13771 -1.29646,-1.45521 1.56104,-0.26458 2.51354,0.0529 2.06375,-0.18521 -1.48166,-0.68792 0.34395,-0.87312 1.11125,-0.0529 1.29646,-0.634999 2.46063,-0.18521 -0.0529,-0.37042 2.46062,-0.10583 1.13771,0.29104 1.42875,-0.68791 1.85209,0.0264 -0.39688,-0.58208 0.23813,-0.52917 1.64041,-0.52916 2.19604,0.42333 -0.92604,0.3175 2.48709,0.18521 1.08479,0.635 0.50271,-0.3175 2.88395,0.0265 3.06917,0.635 1.45521,0.47625 0.66146,0.68791 -0.635,0.396879 -1.74625,0.74083 -0.29104,0.39688 1.48166,0.18521 1.905,0.34395 0.635,-0.26458 1.53458,0.87313 0.0529,-0.34396 1.37583,-0.21167 3.59834,0.21167 1.00541,0.635 4.60375,0.21166 -1.27,-1.03187 2.51355,0.23812 1.61395,-0.0264 2.61938,0.71437 1.5875,0.87313 0.10583,0.58208 2.67229,1.11125 2.38125,0.55562 -0.79375,-1.4552 2.48709,0.60854 1.32291,-0.37042 2.59292,0.42333 0.26458,-0.37041 2.01084,0.18521 -2.48709,-1.29646 0.55563,-0.58209 10.68916,0.89959 2.09021,0.82021 4.31271,1.05833 3.91583,-0.26458 2.46063,0.23812 1.74625,0.58208 1.34937,1.03188 1.93146,0.39687 1.03188,-0.29104 1.85208,-0.0265 2.46063,0.26459 1.82562,-0.15875 3.78354,1.27 0.66146,-0.44979 -2.24896,-0.89959 -0.47625,-0.635 4.04813,0.39688 2.11666,-0.0794 4.18042,0.66146 2.51354,0.635 8.78417,5.84729 -0.52917,0.66146 -1.64041,-0.10583 2.16958,0.79375 2.40771,1.24354 1.11125,0.39687 1.00541,0.635 0.26459,0.39688 -2.64584,-0.3175 -1.74625,1.13771 -0.79375,0.18521 -0.42333,1.08479 -0.52917,0.9525 0.4498,0.71437 -3.04271,-1.08479 -1.61396,1.21708 -1.24354,-0.58208 -0.37042,0.68792 -1.85208,-0.23813 0.82021,1.03188 0.29104,1.53458 0.76729,0.635 1.79917,0.34396 2.4077,2.30187 -1.08479,0.0794 0.89959,1.32292 1.24354,0.68791 -1.32292,0.82021 1.42875,1.85208 -1.50812,0.39688 1.19062,1.64042 -0.44979,1.53458 -1.50813,-1.13771 -2.77812,-2.35479 -4.28625,-3.59833 -1.71979,-2.19605 0.0265,-0.9525 -0.74084,-0.74083 1.50813,-0.34396 -0.0529,-1.98437 0.18521,-1.5875 0.66146,-1.24354 -1.74625,-2.16959 -1.24354,0.13229 0.84666,1.27 -0.9525,1.69334 -3.25437,-1.905 -2.40771,0.52916 v 2.59292 l 2.03729,0.9525 -2.24896,0.42333 -1.69333,0.15875 -1.13771,-1.1377 -2.11667,-0.23813 -0.66145,0.76729 -3.99521,-0.26458 -3.4925,0.44979 -0.92604,3.09563 -1.32292,3.75708 2.16958,0.21167 1.50813,1.00541 1.53458,0.34396 0.10583,-0.79375 1.48167,0.10583 3.38667,1.77271 1.24354,1.37584 0.37042,1.64041 1.4552,1.95792 1.4023,2.61937 -0.26459,2.40771 0.34396,1.13771 -0.52917,1.95792 -0.55562,1.93146 -0.23813,0.97895 -1.21708,0.97896 -0.82021,0.0265 -1.37583,-0.82021 -1.08479,1.24354 z"
       id="path514"
       style="fill:#ececec;stroke:#000000;stroke-width:0.0529167;stroke-linecap:round;stroke-linejoin:round" />
    <path
       class="Russian Federation"
       d="m 128.0319,96.068531 -4.78896,0.47625 -0.34396,-1.61395 0.58209,-0.1323 0.8202,0.0794 3.33375,0.68792 z"
       id="path516"
       style="fill:#ececec;stroke:#000000;stroke-width:0.0529167;stroke-linecap:round;stroke-linejoin:round" />
    <path
       class="Russian Federation"
       d="m 74.506691,93.422701 -1.137709,0.13229 -0.767291,0.10584 v 0.1852 l -0.9525,0.18521 -1.190625,-0.26458 0.291041,-0.37042 -2.063749,-0.0265 1.666875,-0.21166 h 1.375833 l 0.396875,0.29104 0.343958,-0.26458 0.740833,-0.18521 1.534584,0.23812 z"
       id="path518"
       style="fill:#ececec;stroke:#000000;stroke-width:0.0529167;stroke-linecap:round;stroke-linejoin:round" />
    <path
       class="Russian Federation"
       d="m 122.21107,95.354161 -1.87855,0.15875 -3.09562,-0.34396 -2.14313,-0.44979 -1.74625,-0.84667 -1.56104,-0.21166 1.42875,-0.7673 1.64042,-0.23812 2.54,0.52917 3.62479,1.11125 z"
       id="path520"
       style="fill:#ececec;stroke:#000000;stroke-width:0.0529167;stroke-linecap:round;stroke-linejoin:round" />
    <path
       d="m 24.712108,149.06458 0.529167,0.635 2.513541,0.76729 0.502709,-0.37042 1.534583,0.76729 1.561042,-0.21166 0.105833,0.97895 -1.296458,1.11125 -1.74625,0.37042 -0.132292,0.55563 -0.846667,0.92604 -0.529166,1.37583 0.529166,0.97896 -0.79375,0.74083 -0.3175,1.11125 -1.058333,0.34396 -0.978958,1.29646 -1.799167,0.0265 -1.322917,-0.0265 -0.899583,0.58208 -0.555625,0.635 -0.687917,-0.13229 -0.502708,-0.58208 -0.370417,-0.9525 -1.296458,-0.26459 -0.105833,-0.58208 0.529167,-0.635 0.211666,-0.44979 -0.47625,-0.50271 0.423334,-1.11125 -0.529167,-1.00542 0.608542,-0.13229 0.07938,-0.82021 0.211666,-0.23812 0.07938,-1.32292 0.635,-0.44979 -0.343958,-0.84667 -0.820208,-0.0529 -0.238125,0.21166 h -0.79375 l -0.3175,-0.8202 -0.582084,0.23812 -0.502708,0.42333 0.132292,-1.19062 -0.529167,-0.71438 1.957917,-1.21708 1.640416,0.29104 h 1.825625 l 1.42875,0.29104 1.137708,-0.10583 z"
       id="ES"
       name="Spain"
       style="fill:#ececec;stroke:#000000;stroke-width:0.0529167;stroke-linecap:round;stroke-linejoin:round" />
    <path
       class="France"
       d="m 40.348983,151.18124 -0.396875,1.29646 -0.635,-0.34396 -0.343958,-1.11125 0.238125,-0.635 0.846666,-0.635 z"
       id="path523"
       style="fill:#ececec;stroke:#000000;stroke-width:0.0529167;stroke-linecap:round;stroke-linejoin:round" />
    <path
       class="France"
       d="m 34.713358,138.90458 0.291042,0.13229 0.370416,-0.0265 0.635,0.42333 1.905,0.3175 -0.635,1.11125 -0.105833,1.19063 -0.343958,0.29104 -0.608542,-0.15875 0.05292,0.42333 -0.9525,0.92604 v 0.7673 l 0.635,-0.26459 0.47625,0.71438 -0.02646,0.47625 0.396875,0.635 -0.449792,0.50271 0.396875,1.29645 0.740834,0.21167 -0.132292,0.71438 -1.190625,0.9525 -2.69875,-0.4498 -1.957917,0.55563 -0.15875,1.00542 -1.561041,0.21166 -1.534583,-0.76729 -0.502709,0.37042 -2.513541,-0.76729 -0.529167,-0.635 0.714375,-1.00542 0.264583,-3.33375 -1.349375,-1.74625 -0.978958,-0.84667 -2.010833,-0.635 -0.105834,-1.21708 1.719792,-0.34396 2.196042,0.42333 -0.396875,-1.87854 1.243541,0.71438 3.01625,-1.27 0.396875,-1.34938 1.11125,-0.34396 0.211667,0.58209 0.582083,0.0265 0.635,0.66145 0.926042,0.7673 0.661458,-0.1323 z"
       id="path525"
       style="fill:#ececec;stroke:#000000;stroke-width:0.0529167;stroke-linecap:round;stroke-linejoin:round" />
    <path
       class="Cyprus"
       d="m 75.406274,163.16687 0.02646,0.0529 0.07938,0.10584 -0.105833,-0.0265 h -0.07937 l -0.105833,0.0529 -0.07938,-0.0794 v -0.0794 l 0.07938,-0.0265 0.05292,0.0265 z"
       id="path629"
       style="fill:#ececec;stroke:#000000;stroke-width:0.0529167;stroke-linecap:round;stroke-linejoin:round" />
    <path
       class="Cyprus"
       d="m 74.956482,163.29916 v 0.0265 l -0.05292,0.0529 -0.02646,0.15875 -0.02646,0.0529 h -0.07937 l -0.05292,0.0529 -0.132291,0.0529 -0.05292,0.0265 -0.15875,0.0794 -0.105833,-0.0265 -0.132292,0.0265 -0.07938,0.10583 -0.05292,-0.0794 -0.07938,0.0264 h -0.05292 l -0.07937,-0.0794 -0.105834,0.0794 h -0.132291 l -0.132292,-0.0529 -0.132292,-0.0265 -0.105833,-0.0794 -0.07937,-0.15875 -0.07938,-0.0794 -0.05292,-0.18521 -0.05292,-0.0794 0.02646,-0.0794 0.132292,0.0794 0.105833,-0.0265 0.05292,-0.0794 0.02646,-0.0794 0.07937,-0.0265 0.05292,0.0265 0.05292,-0.0529 h 0.05292 l 0.02646,0.10583 0.132292,0.0529 0.02646,0.0529 h 0.15875 l 0.15875,-0.13229 0.105834,0.0265 0.07938,-0.0529 0.07937,0.0265 0.105833,0.0529 0.05292,-0.0794 h 0.07937 l 0.07937,0.10583 v 0.15875 l 0.07938,-0.0529 0.07937,0.0529 0.02646,-0.0265 z"
       id="path631"
       style="fill:#ececec;stroke:#000000;stroke-width:0.0529167;stroke-linecap:round;stroke-linejoin:round" />
    <path
       class="Faeroe Islands"
       d="m 19.155858,119.58999 0.105833,0.0529 h 0.07937 l 0.02646,0.0529 v 0.10583 l 0.05292,0.0794 -0.02646,0.0529 -0.15875,-0.10583 -0.05292,-0.10584 -0.05292,-0.0529 -0.05292,-0.0794 z"
       id="path656"
       style="fill:#ececec;stroke:#000000;stroke-width:0.0529167;stroke-linecap:round;stroke-linejoin:round" />
    <path
       class="Faeroe Islands"
       d="m 19.235233,119.16666 0.211667,0.0529 0.05292,0.0529 -0.02646,0.10584 -0.02646,0.0265 -0.105834,-0.13229 -0.132291,-0.0265 -0.05292,-0.10583 z"
       id="path658"
       style="fill:#ececec;stroke:#000000;stroke-width:0.0529167;stroke-linecap:round;stroke-linejoin:round" />
    <path
       class="Faeroe Islands"
       d="m 18.896566,118.80683 0.02117,0.0423 h 0.07937 v 0.0794 h -0.105833 l -0.05292,0.0529 -0.15875,-0.0529 -0.05292,-0.0265 -0.05292,-0.0794 0.132291,-0.0265 0.02646,-0.0265 0.14741,0.0246 -0.06803,-0.051 0.05292,-0.21167 0.132292,0.0265 0.07937,0.13229 v 0.0265 l 0.15875,0.0529 0.07937,0.1323 0.07938,0.0529 -0.02646,0.15875 -0.132292,-0.10583 -0.05292,-0.0529 -0.05292,-0.0265 -0.02646,-0.0529 -0.05292,-0.0529 h -0.132292 z"
       id="path660"
       style="fill:#ececec;stroke:#000000;stroke-width:0.0529167;stroke-linecap:round;stroke-linejoin:round" />
    <path
       class="Faeroe Islands"
       d="m 19.870233,118.63749 -0.05292,-0.0529 0.07937,-0.0529 z"
       id="path662"
       style="fill:#ececec;stroke:#000000;stroke-width:0.0529167;stroke-linecap:round;stroke-linejoin:round" />
    <path
       class="Faeroe Islands"
       d="m 19.235233,118.76978 -0.105833,-0.0529 -0.07937,-0.0794 -0.02646,-0.0794 0.02646,-0.0265 0.105833,-0.0265 h 0.07937 l 0.15875,0.10583 -0.02646,0.0529 0.02646,0.0529 0.15875,0.0529 v 0.0529 l -0.105833,0.0794 z"
       id="path664"
       style="fill:#ececec;stroke:#000000;stroke-width:0.0529167;stroke-linecap:round;stroke-linejoin:round" />
    <path
       class="Faeroe Islands"
       d="m 19.817316,118.61103 -0.07937,0.10584 -0.07938,-0.0529 h -0.07937 l 0.05292,-0.0794 -0.02646,-0.10584 0.02646,-0.0265 0.05292,0.10584 z"
       id="path666"
       style="fill:#ececec;stroke:#000000;stroke-width:0.0529167;stroke-linecap:round;stroke-linejoin:round" />
    <path
       class="Faeroe Islands"
       d="m 19.579191,118.61103 h -0.05292 l -0.05292,-0.10583 0.02646,-0.0794 0.05292,0.10583 z"
       id="path668"
       style="fill:#ececec;stroke:#000000;stroke-width:0.0529167;stroke-linecap:round;stroke-linejoin:round" />
    <path
       class="Federated States of Micronesia"
       d="m 264.05419,210.8977 h 0.10583 l 0.0794,0.0529 0.0265,0.10583 -0.0529,0.0265 0.0265,0.0529 -0.0265,0.0529 h -0.15875 l -0.0529,-0.0529 v -0.0529 l -0.0529,-0.0794 v -0.0794 z"
       id="path672"
       style="fill:#ececec;stroke:#000000;stroke-width:0.0529167;stroke-linecap:round;stroke-linejoin:round" />
    <path
       class="Federated States of Micronesia"
       d="m 233.70648,206.50562 0.0265,0.0794 h -0.0794 l -0.0794,0.13229 -0.0265,-0.0265 0.0794,-0.21167 0.10583,-0.0265 z"
       id="path674"
       style="fill:#ececec;stroke:#000000;stroke-width:0.0529167;stroke-linecap:round;stroke-linejoin:round" />
    <path
       d="m 242.78169,199.89103 -0.0265,0.10584 v 0.15875 l -0.0265,0.0794 h -0.0794 l -0.0529,-0.0794 -0.0265,-0.13229 v -0.1323 l 0.15875,-0.13229 0.0265,-0.0529 0.0265,-0.1323 0.0529,-0.0265 0.0265,0.0529 0.10583,0.0265 -0.0529,0.13229 z"
       id="GU"
       name="Guam"
       style="fill:#ececec;stroke:#000000;stroke-width:0.0529167;stroke-linecap:round;stroke-linejoin:round" />
    <path
       d="m 137.50398,215.58083 v 0.0529 l -0.0529,-0.0265 0.0529,-0.0529 z"
       id="MV"
       name="Maldives"
       style="fill:#ececec;stroke:#000000;stroke-width:0.0529167;stroke-linecap:round;stroke-linejoin:round" />
    <path
       d="m 283.26294,210.60666 0.26458,0.10583 h -0.0529 z"
       id="MH"
       name="Marshall Islands"
       style="fill:#ececec;stroke:#000000;stroke-width:0.0529167;stroke-linecap:round;stroke-linejoin:round" />
    <path
       class="Malta"
       d="m 47.810233,161.84395 -0.05292,0.0794 -0.132292,-0.0529 -0.132291,-0.0794 v -0.13229 l -0.02646,-0.0265 h 0.15875 l 0.105833,0.0794 0.05292,0.0529 z"
       id="path686"
       style="fill:#ececec;stroke:#000000;stroke-width:0.0529167;stroke-linecap:round;stroke-linejoin:round" />
    <path
       class="Malta"
       d="m 47.3869,161.55291 -0.132292,-0.0265 v -0.0529 l 0.105833,-0.0265 0.105834,0.0794 z"
       id="path688"
       style="fill:#ececec;stroke:#000000;stroke-width:0.0529167;stroke-linecap:round;stroke-linejoin:round" />
    <path
       class="Northern Mariana Islands"
       d="m 243.23148,198.72687 -0.0265,0.0265 -0.0529,-0.0265 -0.0265,-0.0529 0.13229,-0.0529 0.0529,0.0529 z"
       id="path690"
       style="fill:#ececec;stroke:#000000;stroke-width:0.0529167;stroke-linecap:round;stroke-linejoin:round" />
    <path
       class="Northern Mariana Islands"
       d="m 243.62836,197.37749 h -0.0529 l -0.0794,-0.15875 0.0264,-0.0794 h 0.0794 v 0.0794 l 0.0529,0.0529 z"
       id="path692"
       style="fill:#ececec;stroke:#000000;stroke-width:0.0529167;stroke-linecap:round;stroke-linejoin:round" />
    <path
       class="Northern Mariana Islands"
       d="m 243.76065,196.95416 -0.0529,0.0529 0.0265,0.0794 h -0.10583 v -0.18521 l 0.0265,-0.0529 0.10583,-0.0529 -0.0265,0.13229 z"
       id="path694"
       style="fill:#ececec;stroke:#000000;stroke-width:0.0529167;stroke-linecap:round;stroke-linejoin:round" />
    <path
       class="Northern Mariana Islands"
       d="m 243.25794,194.96978 h -0.0794 l -0.0265,-0.0529 h 0.10583 z"
       id="path696"
       style="fill:#ececec;stroke:#000000;stroke-width:0.0529167;stroke-linecap:round;stroke-linejoin:round" />
    <path
       class="Northern Mariana Islands"
       d="m 242.75523,192.05937 -0.0265,-0.0529 v -0.13229 l 0.0794,-0.0265 0.0529,0.0794 z"
       id="path698"
       style="fill:#ececec;stroke:#000000;stroke-width:0.0529167;stroke-linecap:round;stroke-linejoin:round" />
    <path
       class="Northern Mariana Islands"
       d="m 242.43773,190.92166 -0.10583,-0.0265 v -0.0794 l 0.0529,-0.0265 0.0529,0.0529 z"
       id="path700"
       style="fill:#ececec;stroke:#000000;stroke-width:0.0529167;stroke-linecap:round;stroke-linejoin:round" />
    <path
       class="São Tomé and Principe"
       d="m 37.2269,222.59228 h -0.05292 l -0.05292,0.0794 h -0.05292 l -0.02646,-0.10584 -0.05292,-0.21166 v -0.0794 l 0.105833,-0.13229 0.07937,-0.0265 0.07938,-0.0794 0.105833,0.0265 0.05292,0.10583 0.02646,0.0794 -0.02646,0.10584 -0.05292,0.0794 -0.07938,0.10584 z"
       id="path827"
       style="fill:#ececec;stroke:#000000;stroke-width:0.0529167;stroke-linecap:round;stroke-linejoin:round" />
    <path
       class="São Tomé and Principe"
       d="m 38.443983,219.99937 -0.02646,0.0794 -0.05292,0.0265 -0.07937,-0.0265 v -0.0794 l 0.05292,-0.0265 v -0.0794 l 0.05292,-0.0529 0.07938,0.0265 z"
       id="path829"
       style="fill:#ececec;stroke:#000000;stroke-width:0.0529167;stroke-linecap:round;stroke-linejoin:round" />
    <path
       class="Seychelles"
       d="m 110.38419,230.5827 0.10583,0.10583 -0.0529,0.0794 -0.0529,-0.0794 -0.0794,-0.0529 0.0529,-0.1323 z"
       id="path836"
       style="fill:#ececec;stroke:#000000;stroke-width:0.0529167;stroke-linecap:round;stroke-linejoin:round" />
  </g>
</svg>
