<?xml version="1.0" encoding="UTF-8" standalone="no"?>
<!-- Created with Inkscape (http://www.inkscape.org/) -->

<svg
   width="210mm"
   height="297mm"
   viewBox="0 0 210 297"
   version="1.1"
   id="svg1625"
   inkscape:version="1.2.2 (732a01da63, 2022-12-09)"
   sodipodi:docname="usa.svg"
   xmlns:inkscape="http://www.inkscape.org/namespaces/inkscape"
   xmlns:sodipodi="http://sodipodi.sourceforge.net/DTD/sodipodi-0.dtd"
   xmlns="http://www.w3.org/2000/svg"
   xmlns:svg="http://www.w3.org/2000/svg">
  <sodipodi:namedview
     id="namedview1627"
     pagecolor="#ffffff"
     bordercolor="#000000"
     borderopacity="0.25"
     inkscape:showpageshadow="2"
     inkscape:pageopacity="0.0"
     inkscape:pagecheckerboard="0"
     inkscape:deskcolor="#d1d1d1"
     inkscape:document-units="mm"
     showgrid="false"
     inkscape:zoom="2.3786088"
     inkscape:cx="399.60333"
     inkscape:cy="908.93467"
     inkscape:window-width="2560"
     inkscape:window-height="1494"
     inkscape:window-x="-11"
     inkscape:window-y="-11"
     inkscape:window-maximized="1"
     inkscape:current-layer="layer1" />
  <defs
     id="defs1622" />
  <g
     inkscape:label="Calque 1"
     inkscape:groupmode="layer"
     id="layer1">
    <path
       d="m 89.437365,256.32618 h -0.44979 l 0.34396,-1.905 0.18521,-1.34938 0.0265,-0.26458 0.1852,-0.0794 0.23813,0.21167 0.66146,-1.03188 0.29104,-0.0264 -0.0265,0.26458 h 0.26458 l -0.0794,0.47625 -0.34396,0.71437 0.10583,0.26459 -0.23812,0.60854 0.0794,0.15875 -0.26458,0.87312 -0.34396,0.4498 -0.29104,0.0529 z"
       id="BZ"
       name="Belize"
       style="fill:#ececec;stroke:#000000;stroke-width:0.0529167;stroke-linecap:round;stroke-linejoin:round" />
    <path
       class="Canada"
       d="m 136.55965,204.41493 0.89959,0.23812 1.24354,-0.0529 -0.87313,0.68792 -0.52916,0.10583 -1.45521,-0.71437 -0.15875,-0.55563 0.66146,-0.5027 z"
       id="path218"
       style="fill:#ececec;stroke:#000000;stroke-width:0.0529167;stroke-linecap:round;stroke-linejoin:round" />
    <path
       class="Canada"
       d="m 140.36965,200.18159 -0.635,0.0265 -1.53458,-0.50271 -0.92604,-0.79375 0.50271,-0.13229 1.56104,0.42333 1.11125,0.68792 z"
       id="path220"
       style="fill:#ececec;stroke:#000000;stroke-width:0.0529167;stroke-linecap:round;stroke-linejoin:round" />
    <path
       class="Canada"
       d="m 148.62465,197.58868 -1.32291,1.42875 1.03187,-0.55563 0.76729,0.37042 -0.635,0.55562 1.00542,0.44979 0.74083,-0.39687 1.13771,0.50271 -0.74083,1.21708 1.00541,-0.29104 -0.0794,0.87312 0.13229,1.03188 -0.9525,1.48167 -0.635,0.0529 -0.76729,-0.3175 0.66146,-1.34937 -0.3175,-0.21167 -1.93146,1.42875 -0.79375,-0.0529 1.16417,-0.79375 -1.16417,-0.39687 -1.45521,0.10583 -2.54,-0.0529 -0.0529,-0.47625 1.00541,-0.60855 -0.44979,-0.42333 1.42875,-1.00542 2.16958,-2.61937 1.11125,-0.92604 1.32292,-0.55563 0.55562,0.0529 -0.39687,0.44979 z"
       id="path224"
       style="fill:#ececec;stroke:#000000;stroke-width:0.0529167;stroke-linecap:round;stroke-linejoin:round" />
    <path
       class="Canada"
       d="m 128.35757,179.35888 -0.9525,0.79375 -0.44979,-0.13229 -0.0265,-0.44979 0.10583,-0.10583 0.74084,-0.44979 0.44979,0.0265 z"
       id="path228"
       style="fill:#ececec;stroke:#000000;stroke-width:0.0529167;stroke-linecap:round;stroke-linejoin:round" />
    <path
       class="Canada"
       d="m 125.79111,178.51222 -1.905,0.84666 -0.79375,-0.0529 v -0.39688 l 1.32292,-0.71437 1.5875,0.0265 z"
       id="path230"
       style="fill:#ececec;stroke:#000000;stroke-width:0.0529167;stroke-linecap:round;stroke-linejoin:round" />
    <path
       class="Canada"
       d="m 124.9709,174.06722 -0.23812,0.66146 0.71437,-0.23813 0.39688,0.39688 0.92604,0.52916 1.00542,0.44979 -0.37042,0.71438 0.92604,-0.10583 0.50271,0.5027 -1.32292,0.47625 -1.56104,-0.37041 -0.21166,-0.68792 -1.66688,0.82021 -2.16958,0.76729 0.18521,-0.87312 -1.66688,0.13229 1.50813,-0.74084 0.9525,-1.19062 1.34937,-1.34938 z"
       id="path232"
       style="fill:#ececec;stroke:#000000;stroke-width:0.0529167;stroke-linecap:round;stroke-linejoin:round" />
    <path
       class="Canada"
       d="m 136.8507,171.87118 -1.29646,0.0794 0.18521,-0.71437 1.00541,-0.82021 1.13771,-0.18521 0.60854,0.39687 -0.39687,0.60855 -0.23813,0.21166 z"
       id="path234"
       style="fill:#ececec;stroke:#000000;stroke-width:0.0529167;stroke-linecap:round;stroke-linejoin:round" />
    <path
       class="Canada"
       d="m 117.13924,169.04013 -1.08479,0.50271 -1.11125,-0.42333 -1.03188,0.13229 -0.89958,-0.635 1.32291,-0.44979 1.29646,-0.60854 0.79375,0.39687 0.42334,0.26459 0.10583,0.26458 z"
       id="path236"
       style="fill:#ececec;stroke:#000000;stroke-width:0.0529167;stroke-linecap:round;stroke-linejoin:round" />
    <path
       class="Canada"
       d="m 131.16215,206.76972 -0.58208,-0.9525 0.76729,-2.24896 -0.42333,-0.47625 -0.97896,0.26458 -0.29104,-0.42333 -1.45521,1.24354 -0.84667,1.29646 -0.74083,0.76729 -0.66146,0.26458 -0.44979,0.0794 -0.29104,0.39687 h -2.46063 l -2.06375,0.0265 -0.71437,0.29104 -1.79917,1.16417 v -0.0265 l -0.23812,-0.10583 -0.52917,0.23812 -0.50271,0.34396 -0.47625,-0.29104 -1.24354,0.21167 -1.03187,0.23812 -0.50271,0.21167 -0.60854,0.55562 0.47625,0.18521 0.44979,-0.10583 h 0.0794 l -0.0794,0.50271 -1.27,0.18521 -0.74084,0.21166 -0.44979,0.26459 -0.68791,-0.15875 -0.42334,0.0794 -0.76729,0.47625 -1.21708,0.52917 -0.71438,-0.10584 0.52917,-0.58208 0.97896,-0.92604 1.08479,-0.55563 0.29104,-0.47625 0.23813,-0.79375 1.00541,-0.92604 0.23813,-1.05833 0.29104,1.03187 1.00542,0.23813 0.635,-0.55563 -0.37042,-1.27 -0.23813,-0.52916 -1.05833,-0.3175 -1.00542,-0.18521 h -1.03187 l -0.89958,-0.21167 -0.10584,-0.37041 -0.37041,0.23812 -0.3175,-0.0529 0.5027,-0.55562 -0.47625,-0.21167 0.50271,-0.635 -0.3175,-0.47625 0.44979,-0.47625 -1.37583,-0.23812 -0.0265,-0.9525 -0.21166,-0.21167 -0.87313,-0.0529 -1.08479,-0.3175 -0.39688,0.21167 -0.47625,0.39688 -0.87312,0.26458 -0.82021,0.66146 -1.42875,-0.44979 -1.16417,0.21166 -1.031865,-0.50271 -1.21708,-0.26458 -0.87313,-0.10583 -0.26458,-0.26459 0.23812,-0.89958 h -0.44979 l -0.34396,0.635 h -2.69875 -4.49791 -4.445004 -3.942292 -3.915833 -3.889375 -3.995208 -1.27 -3.889375 -3.730625 -0.185209 l -1.42875,-1.61396 -0.423333,-0.71437 -1.852083,-0.68792 0.343958,-1.45521 0.9525,-0.97896 -1.084792,-0.71437 0.820209,-1.29646 -0.555625,-1.16417 0.661458,-0.84666 1.349375,-0.76729 0.846667,-1.00542 -1.217084,-1.00542 0.370417,-1.82562 0.291042,-1.11125 -0.423334,-0.71438 -0.211666,-0.635 0.15875,-0.82021 -1.719792,0.50271 -2.010833,0.87313 -0.07937,-1.00542 -0.132292,-0.68792 -0.740833,-0.42333 -1.11125,-0.0529 9.419166,-8.65187 6.50875,-5.3975 1.5875,0.34396 0.873125,0.68791 0.978959,0.1323 1.666875,-0.58209 1.852083,-0.44979 1.402292,0.15875 2.354791,-0.60854 2.169583,-0.34396 0.05292,0.58208 1.190625,-0.34395 1.031875,-0.66146 0.555625,0.15875 0.370417,1.27 2.513546,-0.97896 -1.03188,1.08479 1.5875,-0.23812 0.84667,-0.39688 1.21708,0.0794 1.03188,0.58208 1.98437,0.52917 1.24354,0.23812 1.16417,-0.0794 0.76729,0.74083 -2.24896,0.71437 1.69334,0.29105 3.14854,-0.15875 1.164165,-0.26459 0.37041,0.87313 1.87854,-0.71438 -0.55562,-0.635 1.19062,-0.47625 1.37584,-0.0794 1.03187,-0.13229 0.55563,0.34395 0.39687,0.7673 1.32292,-0.10584 1.40229,0.66146 1.905,-0.23812 1.5875,0.0265 0.635,-0.89958 1.19063,-0.23812 1.29645,0.47625 -1.1377,1.37583 1.64041,-1.16417 0.84667,0.0529 1.69333,-1.45521 -0.42333,-0.87312 -0.76729,-0.58209 1.45521,-1.56104 2.16958,-1.00542 1.19062,0.23813 0.52917,0.60854 0.10583,1.5875 -1.53458,0.68792 1.77271,0.29104 -1.16417,1.45521 2.35479,-1.11125 0.58209,0.92604 -1.13771,1.05833 0.34396,0.97896 1.93146,-1.03187 1.71979,-1.27 1.24354,-1.56105 1.45521,0.10584 1.42875,0.21166 0.9525,0.71438 -0.44979,0.71437 -1.34938,0.7673 0.23813,0.76729 -0.635,0.71437 -2.88396,1.03188 -1.71979,0.23812 -0.84667,-0.44979 -0.87313,0.74083 -1.95791,1.24355 -0.79375,0.66145 -2.03729,1.00542 -1.7198,0.10583 -1.34937,0.635 -0.76729,1.00542 -1.50813,0.18521 -2.30187,1.24354 -2.48709,1.71979 -1.32291,1.21709 -1.29646,1.82562 1.5875,0.26458 -0.39688,1.45521 -0.21166,1.21709 1.93146,-0.3175 1.85208,0.68791 0.87312,0.60854 0.4498,0.74084 1.29645,0.44979 0.9525,0.66146 2.01084,0.10583 1.27,0.15875 -0.9525,1.37583 -0.44979,1.61396 0.0265,1.82563 1.16417,1.56104 1.24354,-0.52917 1.48167,-1.69333 0.60854,-2.54 -0.44979,-0.84667 2.38125,-0.76729 1.98437,-1.11125 1.27,-1.11125 0.4498,-1.05833 -0.10584,-1.34938 -0.84666,-1.19062 2.35479,-1.64042 0.26458,-1.40229 1.03188,-2.38125 1.00541,-0.37042 1.77271,0.42334 1.11125,0.15875 1.19063,-0.42334 0.8202,0.52917 0.9525,0.89958 0.0529,0.58209 2.03729,0.13229 -0.68791,1.29646 -0.60855,1.95791 1.00542,0.26459 0.42333,0.92604 2.16959,-0.87313 1.98437,-1.74625 1.11125,-0.71437 0.29104,1.40229 0.68792,1.98437 0.52917,1.905 -0.89959,1.00542 1.27,0.89958 0.76729,0.89959 1.82563,0.42333 0.635,0.50271 v 1.37583 l 0.89958,0.21167 0.29104,0.60854 -0.52916,1.82563 -1.13771,0.60854 -1.11125,0.58208 -2.32833,0.58208 -2.09021,1.32292 -2.27542,0.29104 -2.67229,-0.37041 h -1.93146 l -1.40229,0.10583 -1.50812,1.19062 -1.95792,0.74084 -2.67229,2.16958 -2.09021,1.53458 1.24354,-0.26458 2.88396,-2.19604 3.25437,-1.37583 2.01084,-0.15875 0.87312,0.8202 -1.61396,1.11125 -0.15875,1.77271 0.0265,1.27 1.48167,0.82021 2.27542,-0.23812 1.905,-1.87855 -0.26459,1.21709 0.66146,0.60854 -1.95792,1.08479 -3.28083,1.00542 -1.53458,0.66146 -1.905,1.21708 -0.97896,-0.13229 0.39687,-1.40229 2.75167,-1.4023 -2.14312,0.0529 z"
       id="path238"
       style="fill:#ececec;stroke:#000000;stroke-width:0.0529167;stroke-linecap:round;stroke-linejoin:round" />
    <path
       class="Canada"
       d="m 102.98403,163.43097 -1.24354,0.635 2.77812,-0.39688 0.68792,0.68792 1.93146,-0.71438 0.47625,0.4498 -0.58209,1.34937 1.13771,-0.55562 0.74084,-1.4023 1.1377,-0.21166 0.79375,0.21166 0.58209,0.55563 -0.71438,1.34937 -0.635,0.97896 1.11125,0.68792 1.32292,0.68792 -0.68792,0.60854 -1.87854,0.13229 0.21167,0.52917 -0.84667,0.52916 -1.77271,-0.21166 -1.50812,-0.39688 -1.34938,0.0794 -2.51354,0.5027 -2.989785,0.21167 -2.09021,0.13229 0.0794,-0.68791 -1.0848,-0.37042 -1.1377,0.15875 -0.15875,-1.13771 0.87312,-0.15875 1.93146,-0.23812 1.45521,0.0794 1.640405,-0.26458 -1.719785,-0.3175 -2.40771,0.10583 -1.50812,-0.0265 v -0.50271 l 3.09562,-0.58208 -1.66687,0.0265 -1.42875,-0.37042 2.06375,-1.03187 1.37583,-0.55563 3.757085,-0.82021 z"
       id="path240"
       style="fill:#ececec;stroke:#000000;stroke-width:0.0529167;stroke-linecap:round;stroke-linejoin:round" />
    <path
       class="Canada"
       d="m 131.6384,163.37805 0.0794,0.84667 1.905,-1.08479 3.09562,-0.55563 0.60855,1.40229 -0.84667,0.89959 2.38125,-0.39688 1.40229,-0.55562 1.79917,0.68791 0.97896,0.66146 -0.29105,0.60854 2.16959,-0.3175 0.50271,0.89959 2.22249,0.55562 0.58209,0.55563 0.23812,1.34937 -2.40771,0.66146 2.0373,0.9525 1.56104,0.3175 0.87312,1.32292 1.71979,0.10583 -0.87312,1.03187 -2.88396,1.7198 -1.05833,-0.635 -1.00542,-1.42875 -1.56104,0.1852 -0.60854,0.87313 0.71437,0.84667 1.19063,0.68791 0.26458,0.39688 -0.0265,1.50812 -0.9525,1.08479 -1.24354,-0.42333 -2.27541,-1.19062 0.9525,1.29645 0.74083,0.92605 -0.0794,0.52916 -2.88395,-0.60854 -2.01084,-0.89958 -1.00541,-0.71438 0.635,-0.44979 -1.27,-0.76729 -1.24355,-0.71438 -0.23812,0.42334 -3.46604,0.23812 -0.635,-0.50271 1.42875,-1.11125 2.14312,-0.0265 2.46063,-0.18521 -0.0529,-0.52917 0.82021,-0.74083 2.32833,-1.42875 0.10584,-0.66146 -0.1323,-0.47625 -1.24354,-0.71438 -1.87854,-0.47625 0.92604,-0.37041 -0.52916,-0.89959 -0.89959,-0.0794 -0.50271,-0.47625 -0.87312,0.42333 -2.09021,0.18521 -3.70417,-0.3175 -1.95791,-0.42333 -1.56104,-0.21167 -0.50271,-0.50271 1.66687,-0.635 h -1.50812 l 0.87312,-1.40229 1.87854,-1.21708 1.5875,-0.55563 2.96334,-0.37041 z"
       id="path246"
       style="fill:#ececec;stroke:#000000;stroke-width:0.0529167;stroke-linecap:round;stroke-linejoin:round" />
    <path
       class="Canada"
       d="m 118.3034,162.45201 0.9525,0.29104 2.01084,-0.18521 -0.13229,0.39688 -1.61396,0.66146 1.00541,0.58208 -1.37583,1.24354 -2.2225,0.52917 -0.89958,-0.10584 -0.23813,-0.52916 -1.56104,-1.05834 0.44979,-0.44979 1.95792,0.15875 -0.23813,-0.87312 z"
       id="path248"
       style="fill:#ececec;stroke:#000000;stroke-width:0.0529167;stroke-linecap:round;stroke-linejoin:round" />
    <path
       class="Canada"
       d="m 124.28299,163.90722 -2.06375,1.03187 -1.16417,-0.0529 0.47625,-1.21709 0.68792,-0.66146 1.11125,-0.58208 1.37583,-0.37042 2.09021,0.0529 1.64042,0.3175 -2.6723,1.21708 z"
       id="path250"
       style="fill:#ececec;stroke:#000000;stroke-width:0.0529167;stroke-linecap:round;stroke-linejoin:round" />
    <path
       class="Canada"
       d="m 93.644245,165.81222 -3.57188,0.68791 0.15875,-0.60854 -1.5875,-0.74083 1.16417,-0.58208 1.98437,-1.00542 2.01084,-0.89958 0.10583,-0.82021 3.70417,-0.21167 1.11125,0.29104 2.513535,0.0794 0.50271,0.37041 0.42333,0.58209 -1.71979,0.34396 -3.677705,0.9525 -2.43417,0.97895 z"
       id="path252"
       style="fill:#ececec;stroke:#000000;stroke-width:0.0529167;stroke-linecap:round;stroke-linejoin:round" />
    <path
       class="Canada"
       d="m 126.77007,160.94388 -1.08479,0.50271 -1.37583,-0.10583 -0.84667,-0.34396 1.19062,-0.58208 1.82563,-0.37042 0.37042,0.47625 z"
       id="path254"
       style="fill:#ececec;stroke:#000000;stroke-width:0.0529167;stroke-linecap:round;stroke-linejoin:round" />
    <path
       class="Canada"
       d="m 124.44174,158.64201 0.0529,0.60854 -0.74083,0.66146 -1.53458,1.00542 -1.82563,0.13229 -0.84666,-0.21167 0.89958,-0.76729 -1.74625,0.0794 1.13771,-1.00541 1.00541,0.0529 2.0373,-0.44979 1.29645,0.0794 z"
       id="path256"
       style="fill:#ececec;stroke:#000000;stroke-width:0.0529167;stroke-linecap:round;stroke-linejoin:round" />
    <path
       class="Canada"
       d="m 114.01715,159.32993 -0.1852,0.44979 1.16416,-0.21167 0.9525,0.0529 -0.60854,0.66146 -1.34937,0.60854 -3.67771,0.21166 -3.25438,0.58209 -1.5875,0.0265 0.39688,-0.42334 2.83104,-0.60854 -4.73604,0.15875 -1.11125,-0.23812 3.09562,-1.27 1.42875,-0.37042 2.19604,0.44979 0.7673,0.76729 1.61395,0.10584 0.18521,-1.24355 1.53459,-0.47625 0.8202,0.1323 z"
       id="path258"
       style="fill:#ececec;stroke:#000000;stroke-width:0.0529167;stroke-linecap:round;stroke-linejoin:round" />
    <path
       class="Canada"
       d="m 128.75445,158.16576 0.60854,0.42333 h 1.95791 l 0.37042,0.42334 -0.74083,0.47625 0.82021,0.29104 0.3175,0.3175 1.29645,0.0529 1.34938,0.10584 1.87854,-0.26459 2.14313,-0.13229 1.53458,0.10584 0.60854,0.5027 -0.26458,0.52917 -0.9525,0.37042 -1.77271,0.29104 -1.13771,-0.18521 -3.12208,0.21167 -2.11667,0.0265 -1.48167,-0.15875 -2.27541,-0.42334 0.42333,-0.74083 0.55563,-0.635 -0.37042,-0.58208 -1.85208,-0.15875 -0.68792,-0.39688 1.00542,-0.52917 z"
       id="path260"
       style="fill:#ececec;stroke:#000000;stroke-width:0.0529167;stroke-linecap:round;stroke-linejoin:round" />
    <path
       class="Canada"
       d="m 108.72549,157.47784 -1.53459,0.97896 -1.40229,0.44979 -1.00541,0.0529 -2.61938,0.55562 -1.87854,0.21167 -0.952495,-0.29104 3.095615,-0.97896 3.22792,-0.82021 1.45521,0.0265 z"
       id="path262"
       style="fill:#ececec;stroke:#000000;stroke-width:0.0529167;stroke-linecap:round;stroke-linejoin:round" />
    <path
       class="Canada"
       d="m 130.20965,157.63659 -0.47625,0.0265 -1.74625,-0.0794 0.18521,-0.34396 1.905,0.0265 0.42334,0.21166 z"
       id="path264"
       style="fill:#ececec;stroke:#000000;stroke-width:0.0529167;stroke-linecap:round;stroke-linejoin:round" />
    <path
       class="Canada"
       d="m 114.65215,157.39847 -2.32833,0.37041 -0.87312,-0.39687 1.34937,-0.39688 1.5875,-0.13229 1.08479,0.18521 z"
       id="path266"
       style="fill:#ececec;stroke:#000000;stroke-width:0.0529167;stroke-linecap:round;stroke-linejoin:round" />
    <path
       class="Canada"
       d="m 116.7159,156.28722 -1.50812,0.23812 h -1.5875 l 0.26458,-0.18521 1.50813,-0.34395 0.44979,0.0529 z"
       id="path268"
       style="fill:#ececec;stroke:#000000;stroke-width:0.0529167;stroke-linecap:round;stroke-linejoin:round" />
    <path
       class="Canada"
       d="m 129.0984,156.94868 -1.74625,0.26458 -0.42333,-0.29104 0.15875,-0.44979 0.58208,-0.50271 1.16417,0.0529 0.44979,0.0794 0.60854,0.42333 z"
       id="path270"
       style="fill:#ececec;stroke:#000000;stroke-width:0.0529167;stroke-linecap:round;stroke-linejoin:round" />
    <path
       class="Canada"
       d="m 125.44715,156.63118 -0.29104,0.5027 -1.40229,-0.13229 -1.05833,-0.39687 -2.06375,-0.0529 1.40229,-0.34396 -0.74083,-0.29104 0.58208,-0.47625 1.61396,0.15875 1.98437,0.44979 z"
       id="path272"
       style="fill:#ececec;stroke:#000000;stroke-width:0.0529167;stroke-linecap:round;stroke-linejoin:round" />
    <path
       class="Canada"
       d="m 139.76111,155.01722 0.71438,0.39687 -1.71979,0.34396 -2.80459,0.92604 -1.79916,0.0794 -1.79917,-0.15875 -0.42333,-0.50271 0.55562,-0.42333 1.13771,-0.3175 h -1.74625 l -0.52917,-0.39688 0.10584,-0.50271 1.29645,-0.50271 1.0848,-0.34395 1.05833,-0.0794 -0.0794,-0.26458 2.19605,-0.0529 0.42333,0.58208 1.24354,0.23813 1.27,0.23812 z"
       id="path274"
       style="fill:#ececec;stroke:#000000;stroke-width:0.0529167;stroke-linecap:round;stroke-linejoin:round" />
    <path
       class="Canada"
       d="m 160.71611,151.31305 2.30188,0.0794 1.7727,0.13229 1.37584,0.26458 -0.29104,0.26458 -2.59292,0.4498 -2.38125,0.21166 -1.05833,0.23813 h 1.98437 l -2.77812,0.66146 -1.79917,0.3175 -2.46063,0.92604 -2.14312,0.18521 -0.82021,0.26458 -2.98979,0.10583 1.16417,0.15875 -0.87313,0.21167 0.18521,0.60854 -1.32292,0.42333 -1.82562,0.34396 -0.92604,0.47625 -1.74625,0.39688 -0.13229,0.29104 1.71979,-0.0529 -0.29104,0.3175 -3.36021,0.76729 -2.24896,-0.37041 -3.09563,0.21166 -1.32291,-0.15875 -1.79917,-0.0794 0.55563,-0.60854 2.11666,-0.29104 0.52917,-0.89959 0.68792,-0.0794 1.98437,0.52916 -0.44979,-0.79375 -1.29646,-0.23812 1.32292,-0.47625 2.01083,-0.29104 0.74083,-0.42334 -0.79375,-0.44979 0.29105,-0.58208 2.48708,0.0265 0.58208,0.13229 1.93146,-0.42333 -1.93146,-0.1323 -3.33375,0.0794 -1.16416,-0.37042 -0.21167,-0.44979 -0.66146,-0.3175 0.29104,-0.34396 1.5875,-0.21166 1.11125,-0.0265 1.95792,-0.15875 1.79917,-0.39688 1.03187,0.0529 0.635,0.29104 1.32292,-0.52917 1.37583,-0.15875 1.71979,-0.10583 2.75167,-0.0529 0.34396,0.10584 2.7252,-0.15875 1.85209,0.0529 z"
       id="path276"
       style="fill:#ececec;stroke:#000000;stroke-width:0.0529167;stroke-linecap:round;stroke-linejoin:round" />
    <path
       d="m 114.99611,263.31118 -0.97896,0.29104 -0.42333,0.84666 -0.60854,0.47625 -0.47625,0.635 -0.23813,1.21709 -0.47625,1.00541 0.7673,0.10584 0.15875,0.76729 0.3175,0.39687 0.0794,0.66146 -0.18521,0.635 0.0265,0.37042 0.37042,0.13229 0.3175,0.58208 1.93146,-0.15875 0.87312,0.21167 1.00542,1.48167 0.60854,-0.18521 1.08479,0.0794 0.84667,-0.1852 0.52916,0.29104 -0.3175,0.89958 -0.34395,0.58208 -0.15875,1.21709 0.29104,1.13771 0.39687,0.5027 0.0529,0.37042 -0.76729,0.84667 0.52916,0.37041 0.39688,0.60855 0.42333,1.69333 -0.29104,0.21167 -0.26458,-1.00542 -0.42334,-0.55563 -0.5027,0.60855 -2.91042,-0.0529 v 1.05833 l 0.87312,0.18521 -0.0529,0.66146 -0.29104,-0.18521 -0.84667,0.26458 -0.0265,1.24354 0.68792,0.635 0.23812,0.9525 -0.0265,0.74084 -0.58208,4.65666 -0.76729,-0.89958 -0.44979,-0.0265 0.92604,-1.74625 -1.16417,-0.79375 -0.89958,0.15875 -0.55563,-0.29104 -0.8202,0.44979 -1.11125,-0.23812 -0.92605,-1.77271 -0.68791,-0.42333 -0.47625,-0.82021 -1.00542,-0.79375 -0.39687,0.15875 -0.635,-0.39688 -0.74084,-0.55562 -0.42333,0.26458 -1.27,-0.23812 -0.37042,-0.74084 -0.29104,0.0265 -1.48167,-0.9525 -0.1852,-0.52916 0.55562,-0.1323 -0.0529,-0.84666 0.37042,-0.635 0.74083,-0.10584 0.66146,-1.05833 0.58209,-0.89958 -0.52917,-0.39688 0.3175,-0.97896 -0.29104,-1.56104 0.34396,-0.44979 -0.18521,-1.42875 -0.58209,-0.92604 0.23813,-0.82021 0.47625,0.13229 0.29104,-0.50271 -0.29104,-1.00541 0.18521,-0.23813 0.76729,0.0529 1.19062,-1.19063 0.635,-0.1852 0.0265,-0.55563 0.37042,-1.45521 0.89958,-0.76729 0.92604,-0.0529 0.15875,-0.34395 1.16417,0.13229 1.21708,-0.84667 0.60855,-0.37042 0.76729,-0.8202 0.52916,0.10583 0.34396,0.44979 z"
       id="CO"
       name="Colombia"
       style="fill:#ececec;stroke:#000000;stroke-width:0.0529167;stroke-linecap:round;stroke-linejoin:round" />
    <path
       d="m 96.528205,264.73993 0.3175,0.92604 0.52916,0.68791 0.66146,0.71438 -0.58208,0.15875 -0.0265,0.68792 0.29104,0.23812 -0.23812,0.21167 0.0529,0.29104 -0.15875,0.34396 -0.0794,0.34396 -0.79375,-0.37042 -0.29104,-0.37042 0.1852,-0.29104 -0.0265,-0.37042 -0.39688,-0.39687 -0.58208,-0.34396 -0.47625,-0.21167 -0.0794,-0.5027 -0.37041,-0.29105 0.0529,0.47625 -0.3175,0.42334 -0.3175,-0.47625 -0.44979,-0.18521 -0.18521,-0.3175 0.0265,-0.52917 0.23813,-0.52916 -0.39688,-0.23813 0.37042,-0.34396 0.23812,-0.21166 0.9525,0.44979 0.34396,-0.21167 0.47625,0.13229 0.21167,0.34396 0.44979,0.13229 z"
       id="CR"
       name="Costa Rica"
       style="fill:#ececec;stroke:#000000;stroke-width:0.0529167;stroke-linecap:round;stroke-linejoin:round" />
    <path
       d="m 104.51861,244.65805 0.50271,0.60854 1.37583,-0.18521 0.47625,0.39688 1.11125,1.05833 0.84667,0.76729 0.47625,-0.0265 0.84667,0.34395 -0.15875,0.47625 1.05833,0.0794 1.03188,0.68792 -0.21167,0.39687 -1.00542,0.21167 -1.00541,0.0794 -0.97896,-0.13229 -2.14313,0.15875 1.11125,-0.92604 -0.55562,-0.44979 -0.9525,-0.10584 -0.44979,-0.5027 -0.21167,-0.9525 -0.84667,0.0529 -1.32291,-0.44979 -0.39688,-0.37042 -1.87854,-0.26458 -0.47625,-0.3175 0.60854,-0.42333 -1.428745,-0.0794 -1.16417,0.87313 -0.60854,0.0265 -0.26458,0.42333 -0.74083,0.18521 -0.60855,-0.18521 0.84667,-0.50271 0.39688,-0.635 0.71437,-0.37042 0.79375,-0.3175 1.137705,-0.15875 0.37042,-0.21166 1.24354,0.13229 1.16416,0.0265 z"
       id="CU"
       name="Cuba"
       style="fill:#ececec;stroke:#000000;stroke-width:0.0529167;stroke-linecap:round;stroke-linejoin:round" />
    <path
       d="m 115.34007,252.67493 0.0794,-0.47625 -0.34396,-0.50271 0.39687,-0.29104 0.18521,-0.66146 -0.0265,-0.89959 0.21167,-0.29104 h 1.13771 l 0.84666,0.42334 0.39688,-0.0265 0.18521,0.60854 0.82021,-0.0529 -0.10584,0.50271 0.66146,0.0794 0.66146,0.60854 -0.60854,0.68791 -0.68792,-0.37041 -0.68792,0.0794 -0.47625,-0.0794 -0.29104,0.3175 -0.58208,0.10583 -0.18521,-0.42333 -0.50271,0.23812 -0.71437,1.16417 -0.34396,-0.26458 z"
       id="DO"
       name="Dominican Republic"
       style="fill:#ececec;stroke:#000000;stroke-width:0.0529167;stroke-linecap:round;stroke-linejoin:round" />
    <path
       d="m 89.516745,253.0718 -0.18521,1.34938 -0.34396,1.905 h 0.44979 l 0.44979,0.3175 0.15875,-0.26459 0.39688,0.21167 -0.74083,0.66146 -0.7673,0.47625 -0.13229,0.3175 0.0794,0.34396 -0.34396,0.42333 -0.37042,0.10583 0.0794,0.21167 -0.3175,0.18521 -0.52917,0.42333 -0.0794,0.23813 -0.740838,-0.29105 -0.926041,-0.0264 -0.635,-0.34396 -0.740834,-0.68792 0.105834,-0.50271 0.211666,-0.39687 -0.185208,-0.3175 0.873125,-1.37584 h 1.904996 l 0.10584,-0.58208 -0.21167,-0.10583 -0.132291,-0.37042 -0.502708,-0.39687 -0.47625,-0.55563 0.661458,-0.0265 0.132292,-0.9525 h 1.375829 z"
       id="GT"
       name="Guatemala"
       style="fill:#ececec;stroke:#000000;stroke-width:0.0529167;stroke-linecap:round;stroke-linejoin:round" />
    <path
       d="m 135.7659,273.18013 -0.26458,1.53459 -0.92604,0.42333 0.0794,0.39688 -0.29104,0.89958 0.635,1.21708 h 0.47625 l 0.18521,0.9525 0.87313,1.48167 -0.34396,0.0794 -0.84667,-0.15875 -0.47625,0.4498 -0.68792,0.29104 -0.47625,0.0794 -0.15875,0.34396 -0.74083,-0.0794 -0.92604,-0.79375 -0.0794,-0.79375 -0.37041,-0.87313 0.26458,-1.42875 0.42333,-0.60854 -0.3175,-0.79375 -0.52916,-0.23813 0.21166,-0.76729 -0.3175,-0.37041 -0.79375,0.0529 -0.97895,-1.27 0.42333,-0.47625 v -0.79375 l 0.92604,-0.26458 0.37042,-0.3175 -0.47625,-0.635 0.13229,-0.60854 1.24354,-1.00542 0.9525,0.635 0.87313,1.08479 0.0264,0.89959 0.55563,0.0264 0.79375,0.82021 z"
       id="GY"
       name="Guyana"
       style="fill:#ececec;stroke:#000000;stroke-width:0.0529167;stroke-linecap:round;stroke-linejoin:round" />
    <path
       d="m 97.851115,257.8343 -0.50271,-0.0265 -0.23812,0.23813 -0.52917,0.21166 h -0.37041 l -0.34396,0.21167 -0.29104,-0.0529 -0.23813,-0.26458 -0.15875,0.0529 -0.23812,0.39687 -0.1323,-0.0265 -0.0529,0.37042 -0.55563,0.44979 -0.3175,0.21167 -0.15875,0.21167 -0.39687,-0.34396 -0.37042,0.44979 h -0.3175 l -0.34396,0.0265 -0.0529,0.84666 h -0.21167 l -0.21167,0.39688 -0.47625,0.0794 -0.21166,-0.52916 -0.4498,-0.15875 0.18521,-0.68792 -0.18521,-0.18521 -0.3175,-0.10583 -0.66145,0.18521 -0.0265,-0.21167 -0.42334,-0.29104 -0.29104,-0.3175 -0.42333,-0.15875 0.34396,-0.42333 -0.0794,-0.34396 0.13229,-0.3175 0.7673,-0.47625 0.74083,-0.66146 0.15875,0.0794 0.34396,-0.29104 0.42333,-0.0265 0.13229,0.1323 0.23813,-0.0794 0.68791,0.15875 0.68792,-0.0529 0.47625,-0.1852 0.21167,-0.18521 0.44979,0.0794 0.34396,0.10584 0.39687,-0.0265 0.3175,-0.15875 0.66146,0.23812 0.21167,0.0529 0.42333,0.3175 0.39688,0.37042 0.5027,0.26458 z"
       id="HN"
       name="Honduras"
       style="fill:#ececec;stroke:#000000;stroke-width:0.0529167;stroke-linecap:round;stroke-linejoin:round" />
    <path
       d="m 115.63111,249.84388 0.0265,0.89959 -0.18521,0.66146 -0.39687,0.29104 0.34396,0.50271 -0.0794,0.47625 -0.9525,-0.29105 -0.71437,0.10584 -0.89959,-0.10584 -0.71437,0.3175 -0.74084,-0.52916 0.18521,-0.55563 1.34938,0.23813 1.08479,0.13229 0.58208,-0.37042 -0.60854,-0.74083 0.10583,-0.66146 -0.92604,-0.26458 0.39688,-0.44979 0.89958,0.0529 z"
       id="HT"
       name="Haiti"
       style="fill:#ececec;stroke:#000000;stroke-width:0.0529167;stroke-linecap:round;stroke-linejoin:round" />
    <path
       d="m 107.61424,252.96597 -0.47625,0.29104 -0.79375,-0.29104 -0.76729,-0.60854 0.21166,-0.39688 0.635,-0.10583 0.34396,0.0529 0.97896,0.15875 0.71437,0.39688 0.21167,0.47625 z"
       id="JM"
       name="Jamaica"
       style="fill:#ececec;stroke:#000000;stroke-width:0.0529167;stroke-linecap:round;stroke-linejoin:round" />
    <path
       d="m 79.250909,239.4193 0.582083,-0.0529 -0.846666,1.50813 -0.47625,1.21708 -0.47625,2.27542 -0.291042,0.82021 0.105834,0.92604 0.343958,0.84667 0.105833,1.29645 0.79375,1.27 0.211667,0.97896 0.449791,0.82021 1.508125,0.44979 0.502709,0.71438 1.375833,-0.47625 1.137708,-0.15875 1.164167,-0.3175 0.9525,-0.29104 1.031876,-0.68792 0.47625,-0.97896 0.3175,-1.42875 0.3175,-0.50271 1.05833,-0.44979 1.61396,-0.39687 1.29646,0.0794 0.89958,-0.15875 0.3175,0.37042 -0.15875,0.82021 -0.92604,1.00541 -0.47625,1.03188 0.23813,0.29104 -0.3175,0.74083 -0.55563,1.32292 -0.3175,-0.44979 -0.29104,0.0265 -0.29104,0.0264 -0.66146,1.03188 -0.23813,-0.21167 -0.1852,0.0794 -0.0265,0.26458 -1.37584,-0.0265 h -1.375829 l -0.132292,0.9525 -0.661458,0.0265 0.47625,0.55563 0.502708,0.39687 0.132291,0.37042 0.21167,0.10583 -0.10584,0.58208 h -1.904996 l -0.873125,1.37584 0.185208,0.3175 -0.211666,0.39687 -0.105834,0.50271 -1.481666,-1.82562 -0.687917,-0.55563 -1.164167,-0.44979 -0.846666,0.13229 -1.27,0.635 -0.767292,0.15875 -0.978958,-0.44979 -1.084792,-0.3175 -1.27,-0.76729 -1.084791,-0.23813 -1.561042,-0.79375 -1.137708,-0.82021 -0.291042,-0.44979 -0.820208,-0.10583 -1.42875,-0.52917 -0.502709,-0.76729 -1.42875,-0.97896 -0.582083,-1.05833 -0.211667,-0.84667 0.502709,-0.15875 -0.07937,-0.47625 0.423333,-0.44979 0.105833,-0.58208 -0.396875,-0.76729 v -0.66146 l -0.343958,-0.87313 -1.005417,-1.69333 -1.217083,-1.32292 -0.502708,-1.05833 -1.084792,-0.68792 -0.185208,-0.42333 0.449791,-1.03188 -0.635,-0.39687 -0.661458,-0.84667 -0.05292,-1.16416 -0.740833,-0.15875 -0.608542,-0.87313 -0.449791,-0.84667 0.07937,-0.52916 -0.396875,-1.27 -0.07937,-1.29646 0.211666,-0.66146 -0.820208,-0.68792 -0.502708,0.0794 -0.635,-0.44979 -0.47625,0.68791 -0.02646,0.79375 -0.264583,1.29646 0.264583,0.68792 0.740834,1.16417 0.105833,0.42333 0.185208,0.10583 0.02646,0.58209 0.264583,-0.0265 v 1.11125 l 0.343958,0.42333 0.132292,0.60854 0.714375,0.84667 0.105833,1.5875 0.264584,0.74083 0.238125,0.79375 -0.07937,0.89959 0.687916,0.0529 0.423334,0.76729 0.396875,0.7673 -0.07938,0.3175 -0.740834,0.60854 h -0.264583 l -0.185208,-1.03188 -0.767292,-0.97896 -0.899583,-0.8202 -0.661459,-0.42334 0.3175,-1.24354 -0.02646,-0.92604 -0.555625,-0.52917 -0.820208,-0.74083 -0.238125,0.21167 -0.264584,-0.4498 -0.79375,-0.39687 -0.582083,-1.00542 0.132292,-0.10583 0.555625,0.0794 0.714375,-0.635 0.264583,-0.76729 -0.767292,-1.21708 -0.687916,-0.44979 -0.211667,-1.05834 -0.15875,-1.1377 -0.211667,-1.34938 -0.05292,-1.53458 1.666875,-0.13229 1.878541,-0.18521 -0.238125,0.34396 1.852084,0.8202 2.883958,1.19063 h 2.8575 1.137708 l 0.211667,-0.71438 h 2.487083 l 0.343959,0.60855 0.555625,0.55562 0.635,0.74083 0.211666,0.87313 0.105834,0.9525 0.608541,0.50271 1.058334,0.50271 1.27,-1.32292 1.190625,-0.0529 0.846666,0.68792 0.423334,1.16417 0.238125,1.00541 0.635,0.9525 0.05292,1.19063 0.238125,0.79375 1.031875,0.52916 z"
       id="MX"
       name="Mexico"
       style="fill:#ececec;stroke:#000000;stroke-width:0.0529167;stroke-linecap:round;stroke-linejoin:round" />
    <path
       d="m 97.851115,257.8343 -0.13229,0.18521 -0.13229,0.37042 0.10583,0.60854 -0.39687,0.58208 -0.21167,0.68792 -0.13229,0.74083 0.0529,0.44979 -0.0265,0.76729 -0.23813,0.15875 -0.18521,0.74084 0.0529,0.44979 -0.3175,0.42333 0.0265,0.44979 0.21167,0.29105 -0.37042,0.37041 -0.44979,-0.13229 -0.21167,-0.34396 -0.47625,-0.13229 -0.34396,0.21167 -0.9525,-0.44979 -0.23812,0.21166 -0.47625,-0.52916 -0.66146,-0.68792 -0.29104,-0.55563 -0.58209,-0.55562 -0.66145,-0.76729 0.1852,-0.26459 0.21167,0.26459 0.13229,-0.10584 0.47625,-0.0794 0.21167,-0.39688 h 0.21167 l 0.0529,-0.84666 0.34396,-0.0265 h 0.3175 l 0.37042,-0.44979 0.39687,0.34396 0.15875,-0.21167 0.3175,-0.21167 0.55563,-0.44979 0.0529,-0.37042 0.1323,0.0265 0.23812,-0.39687 0.15875,-0.0529 0.23813,0.26458 0.29104,0.0529 0.34396,-0.21167 h 0.37041 l 0.52917,-0.21166 0.23812,-0.23813 z"
       id="NI"
       name="Nicaragua"
       style="fill:#ececec;stroke:#000000;stroke-width:0.0529167;stroke-linecap:round;stroke-linejoin:round" />
    <path
       d="m 105.70924,268.60284 -0.18521,0.23813 0.29104,1.00541 -0.29104,0.50271 -0.47625,-0.13229 -0.23813,0.82021 -0.47625,-0.47625 -0.26458,-0.92604 0.37042,-0.44979 -0.37042,-0.10584 -0.23812,-0.55562 -0.74084,-0.47625 -0.635,0.10583 -0.34396,0.58208 -0.635,0.42334 -0.3175,0.0529 -0.15875,0.37042 0.66146,0.92604 -0.42333,0.21167 -0.21167,0.23812 -0.71437,0.10584 -0.21167,-1.03188 -0.211665,0.29104 -0.47625,-0.10583 -0.26458,-0.66146 -0.60854,-0.13229 -0.39688,-0.18521 h -0.635 l -0.0529,0.37042 -0.15875,-0.26458 0.0794,-0.34396 0.15875,-0.34396 -0.0529,-0.29104 0.23812,-0.21167 -0.29104,-0.23812 0.0265,-0.68792 0.58208,-0.15875 0.50271,0.60854 -0.0529,0.37042 0.58209,0.0794 0.15875,-0.15875 0.39687,0.42334 0.740825,-0.1323 0.66146,-0.42333 0.92604,-0.34396 0.52917,-0.50271 0.82021,0.10584 -0.0529,0.15875 0.82021,0.0529 0.635,0.3175 0.47625,0.50271 z"
       id="PA"
       name="Panama"
       style="fill:#ececec;stroke:#000000;stroke-width:0.0529167;stroke-linecap:round;stroke-linejoin:round" />
    <path
       d="m 140.55486,273.55055 -0.82021,1.45521 0.0794,1.16417 0.58208,1.00541 -0.29104,0.71438 -0.13229,0.79375 -0.39688,0.71437 -0.84666,-0.37041 -0.71438,0.1852 -0.60854,-0.15875 -0.15875,0.50271 0.26458,0.3175 -0.15875,0.37042 -0.8202,-0.15875 -0.87313,-1.48167 -0.18521,-0.9525 h -0.47625 l -0.635,-1.21708 0.29104,-0.89958 -0.0794,-0.39688 0.92604,-0.42333 0.26458,-1.53459 1.79917,0.34396 0.15875,-0.3175 1.21708,-0.13229 z"
       id="SR"
       name="Suriname"
       style="fill:#ececec;stroke:#000000;stroke-width:0.0529167;stroke-linecap:round;stroke-linejoin:round" />
    <path
       d="m 132.00882,269.10555 -1.24354,1.00542 -0.13229,0.60854 0.47625,0.635 -0.37042,0.3175 -0.92604,0.26458 v 0.79375 l -0.42333,0.47625 0.97895,1.27 0.18521,0.47625 -0.55562,0.66146 -1.69334,0.635 -1.08479,0.26458 -0.44979,0.39688 -1.19062,-0.42333 -1.0848,-0.21167 -0.29104,0.15875 0.66146,0.42333 -0.0794,1.13771 0.1852,1.08479 1.27,0.13229 0.0794,0.37042 -1.08479,0.47625 -0.18521,0.71438 -0.635,0.29104 -1.11125,0.39687 -0.29104,0.52917 -1.16417,0.10583 -0.82021,-0.89958 -0.42333,-1.69333 -0.39688,-0.60855 -0.52916,-0.37041 0.76729,-0.84667 -0.0529,-0.37042 -0.39687,-0.5027 -0.29104,-1.13771 0.15875,-1.21709 0.34395,-0.58208 0.3175,-0.89958 -0.52916,-0.29104 -0.84667,0.1852 -1.08479,-0.0794 -0.60854,0.18521 -1.00542,-1.48167 -0.87312,-0.21167 -1.93146,0.15875 -0.3175,-0.58208 -0.37042,-0.13229 -0.0265,-0.37042 0.18521,-0.635 -0.0794,-0.66146 -0.3175,-0.39687 -0.15875,-0.76729 -0.7673,-0.10584 0.47625,-1.00541 0.23813,-1.21709 0.47625,-0.635 0.60854,-0.47625 0.42333,-0.84666 0.97896,-0.29104 -0.0529,0.39687 -0.89959,0.21167 0.44979,0.76729 -0.0794,0.89958 -0.71438,0.97896 0.50271,1.34938 0.66146,-0.10584 0.39688,-1.24354 -0.4498,-0.58208 v -1.29646 l 1.905,-0.68792 -0.15875,-0.79375 0.55563,-0.55562 0.44979,1.21708 1.05833,0.0265 0.89959,0.92604 0.0529,0.58208 h 1.32292 l 1.61396,-0.15875 0.82021,0.74084 1.11125,0.21166 0.87312,-0.52916 0.0265,-0.42334 1.87854,-0.10583 1.77271,-0.0265 -1.29646,0.50271 0.47625,0.82021 1.19063,0.10583 1.11125,0.84667 0.18521,1.34937 0.76729,-0.0265 z"
       id="VE"
       name="Venezuela"
       style="fill:#ececec;stroke:#000000;stroke-width:0.0529167;stroke-linecap:round;stroke-linejoin:round" />
    <path
       class="United States"
       d="m 103.11632,202.00722 -1.61396,0.52916 -1.24354,0.66146 -1.217075,0.71438 -0.13229,0.23812 1.508115,-0.34396 0.55563,0.55563 1.21708,-0.39688 1.29646,-0.55562 1.42875,-0.55563 -0.82021,0.87313 0.66146,0.21167 0.66146,0.635 1.34937,-0.37042 1.34938,-0.13229 0.0794,0.47625 0.39688,0.0529 0.3175,0.0529 0.39687,0.66146 -1.24354,0.15875 h -0.0265 l -0.97896,-0.18521 -1.19062,0.3175 -0.97896,0.15875 -1.24354,1.08479 -0.79375,0.60854 0.10583,0.18521 1.45521,-1.08479 h 0.18521 l -1.24354,1.29646 -0.7673,1.16417 -0.66145,0.9525 -0.15875,0.8202 -0.21167,0.39688 -0.15875,0.44979 0.0265,0.87313 0.0794,0.13229 0.47625,-0.0265 0.42334,-0.18521 0.37041,-0.21167 0.87313,-0.8202 0.47625,-1.11125 -0.0265,-1.03188 0.37042,-0.71437 0.68791,-0.82021 0.55563,-0.58209 0.71437,-0.39687 -0.10583,0.55562 0.58208,-0.8202 0.34396,-0.15875 0.44979,-0.635 1.00542,0.34395 0.74083,0.635 -0.21166,0.7673 -0.42334,0.76729 -1.00541,0.66146 -0.10584,0.42333 h 0.26459 l 1.1377,-0.71438 0.42334,0.15875 -0.13229,0.97896 -0.18521,0.68792 -0.97896,0.92604 -0.52917,0.58208 -0.71437,0.635 0.71437,0.34396 0.66146,0.10584 1.05833,-0.23813 0.97896,-0.44979 0.79375,-0.23813 1.21709,-0.47625 1.53458,-1.00541 0.0265,-0.15875 0.0794,-0.50271 0.71438,-0.21167 1.03187,0.0794 1.05834,0.13229 1.21708,-0.55563 0.15875,-0.66145 -0.0529,-0.23813 1.79917,-1.16417 0.71437,-0.29104 2.06375,-0.0265 h 2.46063 l 0.29104,-0.39687 0.44979,-0.0794 0.66146,-0.26458 0.74083,-0.76729 0.84667,-1.29646 1.45521,-1.24354 0.29104,0.42333 0.97896,-0.26458 0.42333,0.47625 -0.76729,2.24896 0.58208,0.9525 0.0529,0.55562 -1.69333,0.79375 -1.5875,0.58209 -1.5875,0.5027 -1.05834,1.00542 -0.34395,0.37042 -0.3175,0.89958 0.1852,0.87313 0.55563,0.0529 0.0529,-0.60854 0.29104,0.37042 -0.26459,0.47625 -1.00541,0.26458 -0.66146,-0.0265 -1.11125,0.29104 -0.60854,0.0794 -0.82021,0.0794 -1.32292,0.50271 2.14313,-0.3175 0.29104,0.3175 -2.09021,0.50271 h -0.87312 l 0.10583,-0.21167 -0.55563,0.47625 0.37042,0.0794 -0.66146,1.21708 -1.40229,1.29646 0.0265,-0.44979 -0.29104,-0.0794 -0.3175,-0.42333 v 0.92604 l 0.26458,0.29104 -0.15875,0.635 -0.635,0.66146 -1.19062,1.34938 -0.10584,-0.0529 0.76729,-1.16417 -0.52916,-0.635 0.26458,-1.42875 -0.50271,0.74084 v 1.08479 l -0.84666,-0.26458 0.79375,0.52916 -0.39688,1.61396 0.37042,0.13229 v 0.58209 l -0.26459,1.69333 -1.21708,1.24354 -1.61396,0.50271 -1.16416,1.00542 -0.74084,0.10583 -0.89958,0.635 -0.34396,0.55562 -1.82562,1.11125 -1.00542,0.82021 -0.92604,1.00542 -0.50271,1.19062 v 1.19063 l 0.15875,1.45521 0.39687,1.19062 -0.13229,0.74084 0.34396,1.95791 -0.26458,1.16417 -0.15875,0.66146 -0.52917,1.03187 -0.47625,0.21167 -0.68792,-0.21167 -0.10583,-0.74083 -0.47625,-0.39688 -0.52917,-1.4552 -0.42333,-1.29646 -0.10583,-0.66146 0.52916,-1.13771 -0.21166,-0.92604 -0.82021,-1.42875 -0.50271,-0.26458 -1.613955,0.79375 -0.23812,-0.10584 -0.52917,-0.79375 -0.79375,-0.42333 -1.69333,0.23812 -1.21709,-0.21166 -1.1377,0.13229 -0.66146,0.26458 0.15875,0.44979 -0.18521,0.68792 0.21167,0.34396 -0.3175,0.21167 -0.47625,-0.23813 -0.60855,0.3175 -1.03187,-0.0529 -0.87313,-0.89958 -1.29645,0.21167 -0.9525,-0.39688 -0.926046,0.13229 -1.322917,0.39688 -1.613958,1.24354 -1.613958,0.74083 -0.978959,0.79375 -0.502708,0.7673 -0.264583,1.19062 -0.105834,0.79375 0.15875,0.58208 -0.582083,0.0529 -0.9525,-0.37042 -1.031875,-0.52916 -0.238125,-0.79375 -0.05292,-1.19063 -0.635,-0.9525 -0.238125,-1.00541 -0.423334,-1.16417 -0.846666,-0.68792 -1.190625,0.0529 -1.27,1.32292 -1.058334,-0.50271 -0.608541,-0.50271 -0.105834,-0.9525 -0.211666,-0.87313 -0.635,-0.74083 -0.555625,-0.55562 -0.343959,-0.60855 h -2.487083 l -0.211667,0.71438 h -1.137708 -2.8575 l -2.883958,-1.19063 -1.852084,-0.8202 0.238125,-0.34396 -1.878541,0.18521 -1.666875,0.13229 0.07937,-0.84667 -0.555625,-0.97896 -0.582084,-0.21166 0.02646,-0.47625 -0.767292,-0.10584 -0.3175,-0.44979 -1.27,-0.15875 -0.238125,-0.29104 0.211667,-0.92604 -0.661458,-1.69334 -0.132292,-2.35479 0.238125,-0.39687 -0.343958,-0.55563 -0.396875,-1.42875 0.47625,-1.37583 -0.238125,-0.92604 1.031875,-1.40229 0.740833,-1.42875 0.291042,-1.29646 1.455208,-1.5875 1.058333,-1.50813 1.058333,-1.50812 1.137709,-2.24896 0.47625,-1.40229 0.105833,-0.76729 0.370417,-0.34396 1.534583,0.58208 -0.264583,1.56104 0.582083,-0.44979 0.661458,-1.34937 0.423334,-1.34938 h 3.730625 3.889375 1.27 3.995208 3.889375 3.915833 3.942292 4.445002 4.49791 2.69875 l 0.34396,-0.635 h 0.44979 l -0.23812,0.89958 0.26458,0.26459 0.87313,0.10583 1.21708,0.26458 1.031865,0.50271 1.16417,-0.21166 z"
       id="path537"
       style="fill:#ececec;stroke:#000000;stroke-width:0.0529167;stroke-linecap:round;stroke-linejoin:round" />
    <path
       d="m 139.5759,279.39784 0.39688,-0.74083 0.13229,-0.76729 0.26458,-0.71438 -0.55562,-1.00541 -0.0794,-1.16417 0.82021,-1.45521 0.50271,0.18521 1.08479,0.39687 1.56104,1.42875 0.21167,0.68792 -0.89958,1.56104 -0.47625,1.24354 -0.58209,0.66146 -0.71437,0.10584 -0.21167,-0.47625 -0.34396,-0.0529 -0.44979,0.44979 z"
       id="GF"
       name="French Guiana"
       style="fill:#ececec;stroke:#000000;stroke-width:0.0529167;stroke-linecap:round;stroke-linejoin:round" />
    <path
       class="Bahamas"
       d="m 107.6407,242.32972 0.10583,0.0529 0.0529,-0.0529 0.0264,-0.13229 0.0529,-0.0265 0.0529,0.15875 v 0.13229 l -0.0265,0.0794 0.0265,0.15875 v 0.0794 l -0.10584,0.21167 -0.0529,0.0265 -0.10584,-0.0529 0.0529,-0.0794 0.10583,-0.0529 -0.0264,-0.0265 -0.15875,0.10583 -0.0529,-0.0529 0.10583,-0.0794 h -0.10583 l -0.0529,0.0265 -0.0529,-0.0529 v -0.18521 l 0.0264,-0.0529 -0.10583,-0.1323 v -0.0529 l 0.10583,-0.0529 0.0265,-0.0794 0.0794,-0.0265 0.0265,-0.0529 0.15875,-0.0794 0.0264,0.10583 -0.13229,0.10583 z"
       id="path581"
       style="fill:#ececec;stroke:#000000;stroke-width:0.0529167;stroke-linecap:round;stroke-linejoin:round" />
    <path
       class="Bahamas"
       d="m 107.37611,240.58347 0.10584,-0.0529 0.0794,0.0794 -0.0265,0.0529 0.0265,0.0529 -0.0529,0.10583 0.0794,0.0794 0.0529,0.23812 0.0529,0.0794 0.10584,0.13229 -0.0529,0.18521 0.0265,0.15875 -0.0529,0.0794 -0.0794,0.0265 -0.10584,0.10583 -0.0794,0.0529 h -0.0794 l -0.0794,0.0529 h -0.0794 v -0.10584 l -0.0794,-0.0529 0.0265,-0.15875 -0.0794,0.0794 -0.0529,-0.0265 -0.15875,-0.10583 -0.0794,-0.0794 -0.0529,-0.0794 0.18521,-0.0794 0.13229,0.1852 0.0265,-0.15875 -0.0794,-0.0265 -0.0265,-0.0794 0.0265,-0.0794 0.15875,-0.15875 0.0529,-0.10584 -0.0265,-0.0265 0.0794,-0.10583 v -0.13229 l -0.0529,-0.18521 0.0265,-0.0265 h 0.0794 z"
       id="path587"
       style="fill:#ececec;stroke:#000000;stroke-width:0.0529167;stroke-linecap:round;stroke-linejoin:round" />
    <path
       class="Puerto Rico"
       d="m 122.35153,251.88118 0.15875,0.0264 h 0.15875 l 0.0794,0.0265 0.15875,-0.0265 0.0794,0.0265 0.10583,-0.0265 0.0529,0.0265 0.13229,-0.0265 0.10583,0.0265 h 0.0794 l 0.21167,0.0529 v -0.0529 l 0.15875,0.0529 0.0264,-0.0265 0.21167,0.0265 0.0529,0.0529 h 0.0529 l 0.15875,0.0794 0.0529,-0.0265 -0.0265,0.18521 0.0529,0.0794 -0.23813,0.0794 -0.0794,0.10583 -0.0794,0.15875 -0.0794,0.0529 -0.0794,0.0265 h -0.10583 l -0.15875,0.0265 -0.0794,0.0529 -0.18521,-0.0265 -0.0529,-0.0529 -0.13229,0.0529 -0.0794,-0.0794 -0.1852,0.0529 -0.23813,-0.0265 -0.0794,0.0265 -0.15875,0.0265 -0.0529,0.0265 -0.0529,-0.0529 -0.10583,-0.0265 -0.0794,0.0529 -0.15875,-0.0265 0.0794,-0.18521 v -0.10583 l 0.0529,-0.10584 -0.0529,-0.15875 -0.0529,-0.0265 -0.0265,-0.10583 0.10584,-0.0529 0.0529,-0.0264 v -0.1323 l 0.10584,-0.0529 z"
       id="path729"
       style="fill:#ececec;stroke:#000000;stroke-width:0.0529167;stroke-linecap:round;stroke-linejoin:round" />
  </g>
</svg>
