<?xml version="1.0" encoding="UTF-8" standalone="no"?>
<!-- Created with Inkscape (http://www.inkscape.org/) -->

<svg
   width="210mm"
   height="297mm"
   viewBox="0 0 210 297"
   version="1.1"
   id="svg1625"
   inkscape:version="1.2.2 (732a01da63, 2022-12-09)"
   sodipodi:docname="usa.svg"
   xmlns:inkscape="http://www.inkscape.org/namespaces/inkscape"
   xmlns:sodipodi="http://sodipodi.sourceforge.net/DTD/sodipodi-0.dtd"
   xmlns="http://www.w3.org/2000/svg"
   xmlns:svg="http://www.w3.org/2000/svg">
  <sodipodi:namedview
     id="namedview1627"
     pagecolor="#ffffff"
     bordercolor="#000000"
     borderopacity="0.25"
     inkscape:showpageshadow="2"
     inkscape:pageopacity="0.0"
     inkscape:pagecheckerboard="0"
     inkscape:deskcolor="#d1d1d1"
     inkscape:document-units="mm"
     showgrid="false"
     inkscape:zoom="1.1893044"
     inkscape:cx="621.79203"
     inkscape:cy="511.2232"
     inkscape:window-width="2560"
     inkscape:window-height="1494"
     inkscape:window-x="-11"
     inkscape:window-y="-11"
     inkscape:window-maximized="1"
     inkscape:current-layer="layer1" />
  <defs
     id="defs1622" />
  <g
     inkscape:label="Calque 1"
     inkscape:groupmode="layer"
     id="layer1">
    <path
       class="Argentina"
       d="m 124.27166,270.92575 -0.79375,-0.0529 h -1.32292 l -1.5875,-3.59833 0.82021,0.74083 1.13771,1.21708 2.06375,0.97896 1.93146,0.39688 -0.21167,0.79375 -1.16416,0.0794 z"
       id="path189"
       style="fill:#ececec;stroke:#000000;stroke-width:0.0529167;stroke-linecap:round;stroke-linejoin:round" />
    <path
       class="Argentina"
       d="m 116.20187,216.157 2.98979,2.75166 1.21708,0.26459 1.93146,1.27 1.56104,0.66145 0.29105,0.74084 -1.11125,2.59291 1.53458,0.4498 1.66687,0.26458 1.11125,-0.26458 1.13771,-1.32292 0.0794,-1.48167 0.68791,-0.34396 0.84667,1.00542 0.10583,1.34938 -1.11125,0.92604 -0.87312,0.68791 -1.40229,1.66688 -1.5875,2.30187 -0.13229,1.37584 -0.10584,1.74625 0.3175,1.69333 -0.23812,0.37042 0.10583,1.08479 0.0794,0.89958 2.06375,1.45521 0.0529,1.16417 1.03188,0.74083 0.0794,0.82021 -0.87312,2.16958 -1.85209,0.92604 -2.69875,0.34396 -1.5875,-0.18521 0.55563,1.03188 0.0265,1.24354 0.47625,0.84667 -0.66146,0.60854 -1.34938,0.23812 -1.48166,-0.635 -0.39688,0.4498 0.66146,1.66687 1.05833,0.50271 0.60855,-0.52917 0.66145,0.87313 -1.11125,0.52916 -0.76729,1.05834 0.3175,1.66687 -0.0265,0.89959 h -1.27 l -0.79375,0.84666 0.0265,1.27 1.71979,1.21709 1.37584,0.3175 0.0529,1.50812 -1.21708,0.92604 -0.15875,1.93146 -0.92604,0.635 -0.23813,0.76729 1.11125,1.71979 1.21709,0.92605 -0.55563,-0.0794 -1.29646,-0.26458 -3.20145,-0.21167 -0.92605,-0.9525 -0.5027,-1.21708 -0.82021,0.10583 -0.68792,-0.60854 -0.82021,-1.71979 0.71438,-0.74084 0.0265,-1.03187 -0.47625,-0.84667 0.1852,-1.42875 -0.29104,-2.19604 -0.47625,-0.97896 0.47625,-0.3175 -0.37041,-0.635 -0.74084,-0.3175 0.21167,-0.71437 -0.82021,-0.635 -0.97896,-1.93146 0.44979,-0.34396 -0.87312,-2.06375 -0.21167,-1.71979 -0.0529,-1.50813 0.66145,-0.60854 -0.87312,-1.66687 -0.42333,-1.53459 0.79375,-1.11125 -0.37042,-1.42875 0.42333,-1.64041 -0.37041,-1.56104 -0.42334,-0.3175 -1.29646,-2.93688 0.55563,-1.74625 -0.44979,-1.64042 0.23812,-1.56104 0.68792,-1.5875 0.87312,-1.05833 -0.52916,-0.66146 0.21166,-0.55562 -0.42333,-2.83105 1.48167,-0.8202 0.3175,-1.77271 -0.23813,-0.42334 1.05834,-1.53458 1.98437,0.42333 0.97896,1.21709 0.42333,-1.37584 1.69334,0.0794 z"
       id="path191"
       style="fill:#ececec;stroke:#000000;stroke-width:0.0529167;stroke-linecap:round;stroke-linejoin:round" />
    <path
       d="m 76.302697,151.36054 h -0.44979 l 0.34396,-1.905 0.18521,-1.34938 0.0265,-0.26458 0.1852,-0.0794 0.23813,0.21166 0.66146,-1.03187 0.29104,-0.0265 -0.0265,0.26458 h 0.26458 l -0.0794,0.47625 -0.34396,0.71438 0.10583,0.26458 -0.23812,0.60854 0.0794,0.15875 -0.26458,0.87313 -0.34396,0.44979 -0.29104,0.0529 z"
       id="BZ"
       name="Belize"
       style="fill:#ececec;stroke:#000000;stroke-width:0.0529167;stroke-linecap:round;stroke-linejoin:round" />
    <path
       d="m 122.52541,212.63804 -0.0794,-0.52917 -1.42875,-0.87312 -1.37584,-0.0265 -2.54,0.50271 -0.55562,1.48166 0.0529,0.92604 -0.39687,2.0373 -0.26458,-0.37042 -1.69334,-0.0794 -0.42333,1.37584 -0.97896,-1.21709 -1.98437,-0.42333 -1.05834,1.53458 -1.03187,0.23813 -0.82021,-2.35479 -0.97896,-1.905 0.29104,-1.64042 -0.84666,-0.71437 -0.3175,-1.21709 -0.84667,-1.16416 0.76729,-1.82563 -0.76729,-1.42875 0.29104,-0.58208 -0.3175,-0.635 0.50271,-0.84667 -0.0794,-1.42875 v -1.21708 l 0.29105,-0.55563 -1.45521,-2.75166 1.11125,0.15875 0.76729,-0.0529 0.29104,-0.50271 1.27,-0.68792 0.76729,-0.635 1.93146,-0.29104 -0.10583,1.27 0.23812,0.66146 -0.0794,1.13771 1.71979,1.50812 1.69333,0.29105 0.60854,0.635 1.03188,0.34395 0.66146,0.47625 h 0.92604 l 0.89958,0.50271 0.13229,0.97896 0.3175,0.50271 0.0794,0.71437 -0.44979,0.0265 0.74083,1.98438 2.83104,0.0794 -0.13229,0.97896 0.21167,0.66146 0.84666,0.47625 0.4498,1.05833 -0.15875,1.34938 -0.34396,0.74083 0.21166,0.9525 z"
       id="BO"
       name="Bolivia"
       style="fill:#ececec;stroke:#000000;stroke-width:0.0529167;stroke-linecap:round;stroke-linejoin:round" />
    <path
       d="m 123.39854,175.12012 0.8202,0.15875 0.15875,-0.37042 -0.26458,-0.3175 0.15875,-0.5027 0.60854,0.15875 0.71438,-0.18521 0.84666,0.37041 0.66146,0.34396 0.44979,-0.44979 0.34396,0.0529 0.21167,0.47625 0.71437,-0.10584 0.58209,-0.66145 0.47625,-1.24355 0.89958,-1.56104 0.52917,-0.0794 0.34396,0.9525 0.79375,2.96333 0.8202,0.29104 0.0265,1.16417 -1.13771,1.40229 0.4498,0.50271 2.67229,0.26458 0.0529,1.71979 1.13771,-1.11125 1.87854,0.60855 2.51355,1.03187 0.74083,0.97896 -0.23813,0.9525 1.74625,-0.52917 2.91042,0.89959 2.24896,-0.0529 2.2225,1.40229 1.95792,1.905 1.16416,0.47625 1.27,0.0794 0.55563,0.52916 0.52916,2.16959 0.29105,1.03187 -0.55563,2.80458 -0.71437,1.11125 -2.0373,2.3548 -0.89958,1.93145 -1.05833,1.45521 -0.37042,0.0529 -0.34396,1.24354 0.23813,3.175 -0.29104,2.61938 -0.0794,1.11125 -0.42333,0.68791 -0.13229,2.27542 -1.37584,2.19604 -0.13229,1.77271 -1.13771,0.71437 -0.29104,1.03188 h -1.5875 l -2.24896,0.635 -0.97896,0.76729 -1.5875,0.50271 -1.61395,1.34937 -1.0848,1.69334 -0.0794,1.27 0.34396,0.92604 -0.0794,1.71979 -0.21166,0.82021 -0.89959,0.9525 -1.19062,2.98979 -1.05834,1.32292 -0.84666,0.82021 -0.39688,1.61395 -0.76729,0.9525 -0.55562,-0.9525 0.47625,-0.8202 -1.00542,-1.13771 -1.27,-0.9525 -1.66688,-1.08479 -0.5027,0.0529 -1.66688,-1.32291 -0.89958,0.1852 1.5875,-2.30187 1.40229,-1.66688 0.87312,-0.68791 1.11125,-0.92604 -0.10583,-1.34938 -0.84667,-1.00542 -0.68791,0.34396 0.18521,-0.97896 0.0794,-1.00541 -0.0794,-0.9525 -0.55563,-0.29104 -0.52917,0.26458 -0.55562,-0.0794 -0.21167,-0.635 -0.29104,-1.56104 -0.3175,-0.50271 -1.03187,-0.47625 -0.58209,0.34396 -1.56104,-0.34396 -0.10583,-2.30187 -0.52917,-0.92604 0.42333,-0.37042 -0.21166,-0.9525 0.34396,-0.74083 0.15875,-1.34938 -0.4498,-1.05833 -0.84666,-0.47625 -0.21167,-0.66146 0.13229,-0.97896 -2.83104,-0.0794 -0.74083,-1.98438 0.44979,-0.0265 -0.0794,-0.71437 -0.3175,-0.50271 -0.13229,-0.97896 -0.89958,-0.50271 h -0.92604 l -0.66146,-0.47625 -1.03188,-0.34395 -0.60854,-0.635 -1.69333,-0.29105 -1.71979,-1.50812 0.0794,-1.13771 -0.23812,-0.66146 0.10583,-1.27 -1.93146,0.29104 -0.76729,0.635 -1.27,0.68792 -0.29104,0.50271 -0.76729,0.0529 -1.11125,-0.15875 -0.84667,0.29104 -0.68792,-0.18521 -0.0265,-2.56646 -1.16417,0.97896 -1.32292,-0.0265 -0.608543,-0.92604 -1.00542,-0.0794 0.26459,-0.74083 -0.87313,-1.03187 -0.68791,-1.53459 0.39687,-0.29104 -0.0529,-0.74083 0.89959,-0.47625 -0.18521,-0.92604 0.37042,-0.58209 0.0794,-0.79375 1.666883,-1.16416 1.21708,-0.3175 0.21167,-0.26459 1.34937,0.0794 0.58208,-4.65667 0.0265,-0.74083 -0.23812,-0.9525 -0.68792,-0.635 0.0265,-1.24354 0.84667,-0.26459 0.29104,0.18521 0.0529,-0.66146 -0.87312,-0.18521 v -1.05833 l 2.91042,0.0529 0.5027,-0.60854 0.42334,0.55562 0.26458,1.00542 0.29104,-0.21167 0.82021,0.89958 1.16417,-0.10583 0.29104,-0.52917 1.11125,-0.39687 0.635,-0.29104 0.18521,-0.71438 1.08479,-0.47625 -0.0794,-0.37041 -1.27,-0.1323 -0.1852,-1.08479 0.0794,-1.13771 -0.66146,-0.42333 0.29104,-0.15875 1.0848,0.21167 1.19062,0.42333 0.44979,-0.39687 1.08479,-0.26459 1.69334,-0.635 0.55562,-0.66146 -0.18521,-0.47625 0.79375,-0.0529 0.3175,0.37041 -0.21166,0.7673 0.52916,0.23812 0.3175,0.79375 -0.42333,0.60854 -0.26458,1.42875 0.37041,0.87313 0.0794,0.79375 0.92604,0.79375 0.74083,0.0794 0.15875,-0.34396 0.47625,-0.0794 0.68792,-0.29104 0.47625,-0.44979 0.84667,0.15875 z"
       id="BR"
       name="Brazil"
       style="fill:#ececec;stroke:#000000;stroke-width:0.0529167;stroke-linecap:round;stroke-linejoin:round" />
    <path
       class="Canada"
       d="m 123.42499,99.449294 0.89959,0.23812 1.24354,-0.0529 -0.87313,0.687906 -0.52916,0.10584 -1.45521,-0.714376 -0.15875,-0.55562 0.66146,-0.50271 z"
       id="path218"
       style="fill:#ececec;stroke:#000000;stroke-width:0.0529167;stroke-linecap:round;stroke-linejoin:round" />
    <path
       class="Canada"
       d="m 127.23499,95.215964 -0.635,0.0264 -1.53458,-0.5027 -0.92604,-0.79375 0.50271,-0.1323 1.56104,0.42334 1.11125,0.68791 z"
       id="path220"
       style="fill:#ececec;stroke:#000000;stroke-width:0.0529167;stroke-linecap:round;stroke-linejoin:round" />
    <path
       class="Canada"
       d="m 45.769784,96.194914 -0.820209,0.23813 -1.666875,-0.74083 v -0.58209 l -0.767291,-0.58208 0.07937,-0.47625 -1.137709,-0.29104 0.15875,-0.89959 0.396875,-0.37041 1.084792,0.34396 0.635,0.26458 1.084792,0.15875 0.05292,0.58208 0.105834,0.76729 0.846666,0.68792 z"
       id="path222"
       style="fill:#ececec;stroke:#000000;stroke-width:0.0529167;stroke-linecap:round;stroke-linejoin:round" />
    <path
       class="Canada"
       d="m 135.48999,92.623044 -1.32291,1.42875 1.03187,-0.55563 0.76729,0.37042 -0.635,0.55563 1.00542,0.44979 0.74083,-0.39688 1.13771,0.50271 -0.74083,1.21708 1.00542,-0.29104 -0.0794,0.87313 0.13229,1.03187 -0.9525,1.48167 -0.635,0.0529 -0.76729,-0.3175 0.66146,-1.34938 -0.3175,-0.21167 -1.93146,1.42875 -0.79375,-0.0529 1.16417,-0.79375 -1.16417,-0.39688 -1.45521,0.10584 -2.54,-0.0529 -0.0529,-0.47625 1.00541,-0.60854 -0.44979,-0.42334 1.42875,-1.00541 2.16958,-2.61938 1.11125,-0.92604 1.32292,-0.55562 0.55563,0.0529 -0.39688,0.44979 z"
       id="path224"
       style="fill:#ececec;stroke:#000000;stroke-width:0.0529167;stroke-linecap:round;stroke-linejoin:round" />
    <path
       class="Canada"
       d="m 40.239992,86.96096 0.396875,0.211666 1.322917,-0.132291 -1.905,1.825629 0.07937,1.32291 h -0.502709 l -0.185208,-0.74083 0.132292,-0.76729 -0.211667,-0.502711 0.343958,-0.714375 z"
       id="path226"
       style="fill:#ececec;stroke:#000000;stroke-width:0.0529167;stroke-linecap:round;stroke-linejoin:round" />
    <path
       class="Canada"
       d="m 115.22291,74.393252 -0.9525,0.79375 -0.44979,-0.132292 -0.0265,-0.449792 0.10583,-0.105833 0.74084,-0.449792 0.44979,0.02646 z"
       id="path228"
       style="fill:#ececec;stroke:#000000;stroke-width:0.0529167;stroke-linecap:round;stroke-linejoin:round" />
    <path
       class="Canada"
       d="m 112.65645,73.546585 -1.905,0.846667 -0.79375,-0.05292 v -0.396875 l 1.32292,-0.714375 1.5875,0.02646 z"
       id="path230"
       style="fill:#ececec;stroke:#000000;stroke-width:0.0529167;stroke-linecap:round;stroke-linejoin:round" />
    <path
       class="Canada"
       d="m 111.83624,69.101585 -0.23812,0.661458 0.71437,-0.238125 0.39688,0.396875 0.92604,0.529167 1.00542,0.449792 -0.37042,0.714375 0.92604,-0.105834 0.50271,0.502709 -1.32292,0.47625 -1.56104,-0.370417 -0.21166,-0.687917 -1.66688,0.820209 -2.16958,0.767291 0.18521,-0.873125 -1.66688,0.132292 1.50813,-0.740833 0.9525,-1.190625 1.34937,-1.349375 z"
       id="path232"
       style="fill:#ececec;stroke:#000000;stroke-width:0.0529167;stroke-linecap:round;stroke-linejoin:round" />
    <path
       class="Canada"
       d="m 123.71604,66.905543 -1.29646,0.07937 0.18521,-0.714375 1.00541,-0.820208 1.13771,-0.185208 0.60854,0.396875 -0.39687,0.608541 -0.23813,0.211667 z"
       id="path234"
       style="fill:#ececec;stroke:#000000;stroke-width:0.0529167;stroke-linecap:round;stroke-linejoin:round" />
    <path
       class="Canada"
       d="m 104.00458,64.074502 -1.08479,0.502708 -1.11125,-0.423333 -1.03188,0.132291 -0.899583,-0.635 1.322913,-0.449791 1.29646,-0.608542 0.79375,0.396875 0.42334,0.264583 0.10583,0.264584 z"
       id="path236"
       style="fill:#ececec;stroke:#000000;stroke-width:0.0529167;stroke-linecap:round;stroke-linejoin:round" />
    <path
       class="Canada"
       d="m 118.02749,101.80408 -0.58208,-0.9525 0.76729,-2.248956 -0.42333,-0.47625 -0.97896,0.26459 -0.29104,-0.42334 -1.45521,1.24354 -0.84667,1.296456 -0.74083,0.76729 -0.66146,0.26459 -0.44979,0.0794 -0.29104,0.39688 h -2.46063 l -2.06375,0.0265 -0.71437,0.29104 -1.79917,1.16416 v -0.0264 l -0.23812,-0.10584 -0.52917,0.23813 -0.50271,0.34396 -0.47625,-0.29105 -1.24354,0.21167 -1.03187,0.23813 -0.50271,0.21166 -0.608543,0.55563 0.476253,0.18521 0.44979,-0.10584 h 0.0794 l -0.0794,0.50271 -1.270003,0.18521 -0.74084,0.21167 -0.44979,0.26458 -0.68791,-0.15875 -0.42334,0.0794 -0.76729,0.47625 -1.21708,0.52917 -0.71438,-0.10583 0.52917,-0.58209 0.97896,-0.92604 1.08479,-0.55562 0.29104,-0.47625 0.23813,-0.79375 1.00541,-0.92604 0.23813,-1.05834 0.29104,1.03188 1.005423,0.23812 0.635,-0.55562 -0.37042,-1.27 -0.23813,-0.52917 -1.058333,-0.3175 -1.00542,-0.18521 h -1.03187 l -0.89958,-0.211656 -0.10584,-0.37042 -0.37041,0.23812 -0.3175,-0.0529 0.5027,-0.55563 -0.47625,-0.21166 0.50271,-0.635 -0.3175,-0.47625 0.44979,-0.47625 -1.37583,-0.23813 -0.0265,-0.9525 -0.21166,-0.21167 -0.87313,-0.0529 -1.08479,-0.3175 -0.39688,0.21166 -0.47625,0.39688 -0.87312,0.26458 -0.82021,0.66146 -1.42875,-0.44979 -1.16417,0.21167 -1.03187,-0.50271 -1.21708,-0.26459 -0.87313,-0.10583 -0.26458,-0.26458 0.23812,-0.89959 h -0.44979 l -0.34396,0.635 h -2.69875 -4.49791 -4.445 -3.9423 -3.91583 -3.88937 -3.99521 -1.270002 -3.889375 -3.730625 -0.185208 l -1.42875,-1.61395 -0.423333,-0.71438 -1.852084,-0.68792 0.343959,-1.4552 0.9525,-0.97896 -1.084792,-0.71438 0.820208,-1.296456 -0.555625,-1.164167 0.661459,-0.846666 1.349375,-0.767292 0.846666,-1.005416 -1.217083,-1.005417 0.370417,-1.825625 0.291041,-1.11125 -0.423333,-0.714375 -0.211667,-0.635 0.15875,-0.820208 -1.719791,0.502708 -2.010834,0.873125 -0.07937,-1.005417 -0.132291,-0.687916 -0.740834,-0.423334 -1.11125,-0.05292 9.419167,-8.651875 6.508745,-5.3975 1.5875,0.343958 0.87312,0.687917 0.97896,0.132291 1.66688,-0.582083 1.85208,-0.449792 1.40229,0.15875 2.35479,-0.608541 2.16959,-0.343959 0.0529,0.582084 1.19063,-0.343959 1.03187,-0.661458 0.55563,0.15875 0.37042,1.27 2.51354,-0.978958 -1.03188,1.084791 1.5875,-0.238125 0.84667,-0.396875 1.21708,0.07937 1.03188,0.582084 1.98437,0.529166 1.24354,0.238125 1.16417,-0.07938 0.76729,0.740834 -2.24896,0.714375 1.69334,0.291041 3.14854,-0.15875 1.16417,-0.264583 0.37041,0.873125 1.87854,-0.714375 -0.55562,-0.635 1.19062,-0.47625 1.37584,-0.07937 1.03187,-0.132292 0.55563,0.343959 0.39687,0.767291 1.32292,-0.105833 1.40229,0.661458 1.905,-0.238125 1.5875,0.02646 0.635,-0.899584 1.190633,-0.238125 1.29645,0.47625 -1.1377,1.375834 1.64041,-1.164167 0.84667,0.05292 1.69333,-1.455209 -0.42333,-0.873125 -0.76729,-0.582083 1.45521,-1.561042 2.16958,-1.005416 1.19062,0.238125 0.52917,0.608541 0.10583,1.5875 -1.53458,0.687917 1.77271,0.291042 -1.16417,1.455208 2.35479,-1.11125 0.58209,0.926042 -1.13771,1.058333 0.34396,0.978958 1.93146,-1.031875 1.71979,-1.27 1.24354,-1.561041 1.45521,0.105833 1.42875,0.211667 0.9525,0.714375 -0.44979,0.714375 -1.34938,0.767291 0.23813,0.767292 -0.635,0.714375 -2.88396,1.031875 -1.71979,0.238125 -0.84667,-0.449792 -0.87313,0.740834 -1.95791,1.243541 -0.79375,0.661459 -2.03729,1.005416 -1.7198,0.105834 -1.34937,0.635 -0.76729,1.005416 -1.50813,0.185209 -2.301873,1.243541 -2.48709,1.719792 -1.32291,1.217083 -1.29646,1.825625 1.5875,0.264584 -0.39688,1.455208 -0.21166,1.217083 1.93146,-0.3175 1.85208,0.687917 0.87312,0.608542 0.4498,0.740833 1.296453,0.449792 0.9525,0.661458 2.01084,0.105833 1.27,0.15875 -0.9525,1.375833 -0.44979,1.613968 0.0264,1.82562 1.16417,1.56104 1.24354,-0.52916 1.48167,-1.69335 0.60854,-2.539993 -0.44979,-0.846666 2.38125,-0.767292 1.98437,-1.11125 1.27,-1.11125 0.4498,-1.058333 -0.10584,-1.349375 -0.84666,-1.190625 2.35479,-1.640417 0.26458,-1.402291 1.03188,-2.38125 1.00541,-0.370417 1.77271,0.423333 1.11125,0.15875 1.19063,-0.423333 0.8202,0.529167 0.9525,0.899583 0.0529,0.582083 2.03729,0.132292 -0.68791,1.296458 -0.60855,1.957917 1.00542,0.264583 0.42333,0.926042 2.16959,-0.873125 1.98437,-1.74625 1.11125,-0.714375 0.29104,1.402292 0.68792,1.984375 0.52917,1.905 -0.89959,1.005416 1.27,0.899584 0.76731,0.899583 1.82561,0.423333 0.635,0.502708 v 1.375834 l 0.89958,0.211666 0.29105,0.608533 -0.52917,1.82564 -1.13771,0.60854 -1.11125,0.58208 -2.32833,0.58209 -2.09021,1.3229 -2.27542,0.29105 -2.67229,-0.37041 h -1.93146 l -1.40229,0.10582 -1.50812,1.19063 -1.95792,0.74083 -2.67229,2.16958 -2.09021,1.53459 1.24354,-0.26459 2.88396,-2.19604 3.25437,-1.37582 2.01084,-0.15875 0.87312,0.82021 -1.61396,1.11125 -0.15875,1.77271 0.0265,1.27 1.48167,0.820196 2.27542,-0.23812 1.905,-1.878536 -0.26459,1.21708 0.66146,0.608536 -1.95792,1.08479 -3.28083,1.00542 -1.53458,0.66146 -1.905,1.21708 -0.97896,-0.13229 0.39687,-1.40229 2.75167,-1.40229 -2.14312,0.0529 z"
       id="path238"
       style="fill:#ececec;stroke:#000000;stroke-width:0.0529167;stroke-linecap:round;stroke-linejoin:round" />
    <path
       class="Canada"
       d="m 89.849367,58.465335 -1.24354,0.635 2.77812,-0.396875 0.68792,0.687917 1.93146,-0.714375 0.47625,0.449791 -0.58209,1.349375 1.13771,-0.555625 0.74084,-1.402291 1.1377,-0.211667 0.79375,0.211667 0.58209,0.555625 -0.71438,1.349375 -0.635,0.978958 1.11125,0.687917 1.32292,0.687916 -0.68792,0.608542 -1.87854,0.132292 0.21167,0.529166 -0.84667,0.529167 -1.77271,-0.211667 -1.50812,-0.396875 -1.34938,0.07937 -2.51354,0.502709 -2.98979,0.211666 -2.09021,0.132292 0.0794,-0.687917 -1.0848,-0.370416 -1.1377,0.15875 -0.15875,-1.137709 0.87312,-0.15875 1.93146,-0.238125 1.45521,0.07937 1.64041,-0.264583 -1.71979,-0.3175 -2.40771,0.105833 -1.50812,-0.02646 V 61.53449 l 3.09562,-0.582084 -1.66687,0.02646 -1.42875,-0.370417 2.06375,-1.031875 1.37583,-0.555625 3.75709,-0.820208 z"
       id="path240"
       style="fill:#ececec;stroke:#000000;stroke-width:0.0529167;stroke-linecap:round;stroke-linejoin:round" />
    <path
       class="Canada"
       d="m 100.30041,58.06846 -1.852083,0.899583 -0.60854,-0.952499 0.55562,-0.211667 1.45521,-0.05292 z"
       id="path242"
       style="fill:#ececec;stroke:#000000;stroke-width:0.0529167;stroke-linecap:round;stroke-linejoin:round" />
    <path
       class="Canada"
       d="m 129.03416,58.491794 -0.18521,0.370416 -1.08479,-0.02646 -1.08479,-0.02646 -1.29646,0.185209 -0.23812,-0.105834 -0.55563,-0.714374 0.44979,-0.47625 0.58209,-0.105834 2.2225,0.15875 z"
       id="path244"
       style="fill:#ececec;stroke:#000000;stroke-width:0.0529167;stroke-linecap:round;stroke-linejoin:round" />
    <path
       class="Canada"
       d="m 118.50374,58.412419 0.0794,0.846666 1.905,-1.084791 3.09562,-0.555625 0.60855,1.402291 -0.84667,0.899583 2.38125,-0.396875 1.40229,-0.555625 1.79917,0.687917 0.97896,0.661458 -0.29105,0.608542 2.16959,-0.3175 0.50271,0.899583 2.2225,0.555625 0.58208,0.555625 0.23812,1.349375 -2.4077,0.661459 2.03729,0.9525 1.56104,0.3175 0.87312,1.322916 1.7198,0.105834 -0.87313,1.031875 -2.88396,1.719791 -1.05833,-0.635 -1.00542,-1.42875 -1.56104,0.185209 -0.60854,0.873125 0.71437,0.846666 1.19063,0.687917 0.26458,0.396875 -0.0265,1.508125 -0.9525,1.084792 -1.24354,-0.423334 -2.27541,-1.190625 0.9525,1.296459 0.74083,0.926041 -0.0794,0.529167 -2.88395,-0.608542 -2.01084,-0.899583 -1.00541,-0.714375 0.635,-0.449792 -1.27,-0.767291 -1.24355,-0.714375 -0.23812,0.423333 -3.46604,0.238125 -0.635,-0.502708 1.42875,-1.11125 2.14312,-0.02646 2.46063,-0.185208 -0.0529,-0.529167 0.82021,-0.740833 2.32833,-1.42875 0.10584,-0.661458 -0.1323,-0.47625 -1.24354,-0.714375 -1.87854,-0.47625 0.92604,-0.370417 -0.52916,-0.899583 -0.89959,-0.07937 -0.50271,-0.47625 -0.87312,0.423333 -2.09021,0.185208 -3.70417,-0.3175 -1.95791,-0.423333 -1.56104,-0.211667 -0.50271,-0.502708 1.66687,-0.635 h -1.50812 l 0.87312,-1.402292 1.87854,-1.217083 1.5875,-0.555625 2.96334,-0.370416 z"
       id="path246"
       style="fill:#ececec;stroke:#000000;stroke-width:0.0529167;stroke-linecap:round;stroke-linejoin:round" />
    <path
       class="Canada"
       d="m 105.16874,57.486377 0.9525,0.291042 2.01084,-0.185209 -0.13229,0.396875 -1.61396,0.661459 1.00541,0.582083 -1.37583,1.243541 -2.2225,0.529167 -0.89958,-0.105833 -0.23813,-0.529167 -1.56104,-1.058333 0.44979,-0.449792 1.95792,0.15875 -0.23813,-0.873125 z"
       id="path248"
       style="fill:#ececec;stroke:#000000;stroke-width:0.0529167;stroke-linecap:round;stroke-linejoin:round" />
    <path
       class="Canada"
       d="m 111.14833,58.941585 -2.06375,1.031875 -1.16417,-0.05292 0.47625,-1.217083 0.68792,-0.661458 1.11125,-0.582083 1.37583,-0.370417 2.09021,0.05292 1.64042,0.3175 -2.6723,1.217083 z"
       id="path250"
       style="fill:#ececec;stroke:#000000;stroke-width:0.0529167;stroke-linecap:round;stroke-linejoin:round" />
    <path
       class="Canada"
       d="m 80.509577,60.846585 -3.57188,0.687917 0.15875,-0.608542 -1.5875,-0.740833 1.16417,-0.582084 1.98437,-1.005416 2.01084,-0.899583 0.10583,-0.820209 3.70417,-0.211666 1.11125,0.291041 2.51354,0.07937 0.50271,0.370417 0.42333,0.582083 -1.71979,0.343959 -3.67771,0.952499 -2.43417,0.978959 z"
       id="path252"
       style="fill:#ececec;stroke:#000000;stroke-width:0.0529167;stroke-linecap:round;stroke-linejoin:round" />
    <path
       class="Canada"
       d="m 113.63541,55.978252 -1.08479,0.502708 -1.37583,-0.105833 -0.84667,-0.343958 1.19062,-0.582084 1.82563,-0.370416 0.37042,0.47625 z"
       id="path254"
       style="fill:#ececec;stroke:#000000;stroke-width:0.0529167;stroke-linecap:round;stroke-linejoin:round" />
    <path
       class="Canada"
       d="m 111.30708,53.676377 0.0529,0.608542 -0.74083,0.661458 -1.53458,1.005417 -1.82563,0.132291 -0.84666,-0.211666 0.89958,-0.767292 -1.74625,0.07937 1.13771,-1.005417 1.00541,0.05292 2.0373,-0.449792 1.29645,0.07937 z"
       id="path256"
       style="fill:#ececec;stroke:#000000;stroke-width:0.0529167;stroke-linecap:round;stroke-linejoin:round" />
    <path
       class="Canada"
       d="m 100.88249,54.364294 -0.1852,0.449791 1.16416,-0.211666 0.9525,0.05292 -0.60854,0.661459 -1.34937,0.608541 -3.677713,0.211667 -3.25438,0.582083 -1.5875,0.02646 0.39688,-0.423334 2.83104,-0.608541 -4.73604,0.15875 -1.11125,-0.238125 3.09562,-1.27 1.42875,-0.370417 2.19604,0.449792 0.7673,0.767291 1.61395,0.105834 0.18521,-1.243542 1.534593,-0.47625 0.8202,0.132292 z"
       id="path258"
       style="fill:#ececec;stroke:#000000;stroke-width:0.0529167;stroke-linecap:round;stroke-linejoin:round" />
    <path
       class="Canada"
       d="m 115.61979,53.200127 0.60854,0.423333 h 1.95791 l 0.37042,0.423334 -0.74083,0.47625 0.82021,0.291041 0.3175,0.3175 1.29645,0.05292 1.34938,0.105833 1.87854,-0.264583 2.14313,-0.132292 1.53458,0.105834 0.60854,0.502708 -0.26458,0.529167 -0.9525,0.370416 -1.77271,0.291042 -1.13771,-0.185208 -3.12208,0.211666 -2.11667,0.02646 -1.48167,-0.15875 -2.27541,-0.423334 0.42333,-0.740833 0.55563,-0.635 -0.37042,-0.582083 -1.85208,-0.15875 -0.68792,-0.396875 1.00542,-0.529167 z"
       id="path260"
       style="fill:#ececec;stroke:#000000;stroke-width:0.0529167;stroke-linecap:round;stroke-linejoin:round" />
    <path
       class="Canada"
       d="m 95.590827,52.51221 -1.53459,0.978959 -1.40229,0.449791 -1.00541,0.05292 -2.61938,0.555625 -1.87854,0.211667 -0.9525,-0.291042 3.09562,-0.978958 3.22792,-0.820209 1.45521,0.02646 z"
       id="path262"
       style="fill:#ececec;stroke:#000000;stroke-width:0.0529167;stroke-linecap:round;stroke-linejoin:round" />
    <path
       class="Canada"
       d="m 117.07499,52.67096 -0.47625,0.02646 -1.74625,-0.07937 0.18521,-0.343959 1.905,0.02646 0.42334,0.211666 z"
       id="path264"
       style="fill:#ececec;stroke:#000000;stroke-width:0.0529167;stroke-linecap:round;stroke-linejoin:round" />
    <path
       class="Canada"
       d="m 101.51749,52.432835 -2.328333,0.370417 -0.87312,-0.396875 1.34937,-0.396875 1.587503,-0.132292 1.08479,0.185209 z"
       id="path266"
       style="fill:#ececec;stroke:#000000;stroke-width:0.0529167;stroke-linecap:round;stroke-linejoin:round" />
    <path
       class="Canada"
       d="m 103.58124,51.321585 -1.50812,0.238125 h -1.5875 l 0.26458,-0.185208 1.50813,-0.343958 0.44979,0.05292 z"
       id="path268"
       style="fill:#ececec;stroke:#000000;stroke-width:0.0529167;stroke-linecap:round;stroke-linejoin:round" />
    <path
       class="Canada"
       d="m 115.96374,51.983044 -1.74625,0.264583 -0.42333,-0.291042 0.15875,-0.449791 0.58208,-0.502709 1.16417,0.05292 0.44979,0.07937 0.60854,0.423333 z"
       id="path270"
       style="fill:#ececec;stroke:#000000;stroke-width:0.0529167;stroke-linecap:round;stroke-linejoin:round" />
    <path
       class="Canada"
       d="m 112.31249,51.665544 -0.29104,0.502708 -1.40229,-0.132292 -1.05833,-0.396875 -2.06375,-0.05292 1.40229,-0.343959 -0.74083,-0.291041 0.58208,-0.47625 1.61396,0.15875 1.98437,0.449791 z"
       id="path272"
       style="fill:#ececec;stroke:#000000;stroke-width:0.0529167;stroke-linecap:round;stroke-linejoin:round" />
    <path
       class="Canada"
       d="m 126.62645,50.051585 0.71438,0.396875 -1.71979,0.343959 -2.80459,0.926041 -1.79916,0.07937 -1.79917,-0.15875 -0.42333,-0.502708 0.55562,-0.423333 1.13771,-0.3175 h -1.74625 l -0.52917,-0.396875 0.10584,-0.502709 1.29645,-0.502708 1.0848,-0.343958 1.05833,-0.07938 -0.0794,-0.264584 2.19605,-0.05292 0.42333,0.582083 1.24354,0.238125 1.27,0.238125 z"
       id="path274"
       style="fill:#ececec;stroke:#000000;stroke-width:0.0529167;stroke-linecap:round;stroke-linejoin:round" />
    <path
       class="Canada"
       d="m 147.58145,46.347419 2.30188,0.07937 1.77271,0.132291 1.37583,0.264584 -0.29104,0.264583 -2.59292,0.449792 -2.38125,0.211666 -1.05833,0.238125 h 1.98437 l -2.77812,0.661459 -1.79917,0.3175 -2.46062,0.926041 -2.14313,0.185209 -0.82021,0.264583 -2.98979,0.105833 1.16417,0.15875 -0.87313,0.211667 0.18521,0.608542 -1.32292,0.423333 -1.82562,0.343958 -0.92604,0.47625 -1.74625,0.396875 -0.13229,0.291042 1.71979,-0.05292 -0.29104,0.3175 -3.36021,0.767292 -2.24896,-0.370417 -3.09563,0.211667 -1.32291,-0.15875 -1.79917,-0.07937 0.55563,-0.608542 2.11666,-0.291041 0.52917,-0.899584 0.68792,-0.07937 1.98437,0.529167 -0.44979,-0.79375 -1.29646,-0.238125 1.32292,-0.47625 2.01083,-0.291042 0.74083,-0.423333 -0.79375,-0.449792 0.29105,-0.582083 2.48708,0.02646 0.58208,0.132292 1.93146,-0.423333 -1.93146,-0.132292 -3.33375,0.07937 -1.16416,-0.370417 -0.21167,-0.449791 -0.66146,-0.3175 0.29104,-0.343959 1.5875,-0.211666 1.11125,-0.02646 1.95792,-0.15875 1.79917,-0.396875 1.03187,0.05292 0.635,0.291042 1.32292,-0.529167 1.37583,-0.15875 1.71979,-0.105833 2.75167,-0.05292 0.34396,0.105833 2.72521,-0.15875 1.85208,0.05292 z"
       id="path276"
       style="fill:#ececec;stroke:#000000;stroke-width:0.0529167;stroke-linecap:round;stroke-linejoin:round" />
    <path
       d="m 101.86145,158.34554 -0.97896,0.29104 -0.42333,0.84667 -0.608543,0.47625 -0.47625,0.635 -0.23813,1.21708 -0.47625,1.00542 0.7673,0.10583 0.15875,0.76729 0.3175,0.39688 0.0794,0.66145 -0.18521,0.635 0.0265,0.37042 0.370423,0.13229 0.3175,0.58209 1.93146,-0.15875 0.87312,0.21166 1.00542,1.48167 0.60854,-0.18521 1.08479,0.0794 0.84667,-0.18521 0.52916,0.29104 -0.3175,0.89958 -0.34395,0.58209 -0.15875,1.21708 0.29104,1.13771 0.39687,0.50271 0.0529,0.37041 -0.76729,0.84667 0.52916,0.37042 0.39688,0.60854 0.42333,1.69333 -0.29104,0.21167 -0.26458,-1.00542 -0.42334,-0.55562 -0.5027,0.60854 -2.91042,-0.0529 v 1.05833 l 0.87312,0.18521 -0.0529,0.66146 -0.29104,-0.18521 -0.84667,0.26459 -0.0265,1.24354 0.68792,0.635 0.23812,0.9525 -0.0265,0.74083 -0.58208,4.65667 -0.76729,-0.89959 -0.44979,-0.0265 0.92604,-1.74625 -1.16417,-0.79375 -0.89958,0.15875 -0.55563,-0.29105 -0.820203,0.4498 -1.11125,-0.23813 -0.92605,-1.77271 -0.68791,-0.42333 -0.47625,-0.82021 -1.00542,-0.79375 -0.39687,0.15875 -0.635,-0.39687 -0.74084,-0.55563 -0.42333,0.26458 -1.27,-0.23812 -0.37042,-0.74083 -0.29104,0.0264 -1.48167,-0.9525 -0.1852,-0.52916 0.55562,-0.13229 -0.0529,-0.84667 0.37042,-0.635 0.74083,-0.10583 0.66146,-1.05834 0.58209,-0.89958 -0.52917,-0.39688 0.3175,-0.97895 -0.29104,-1.56105 0.34396,-0.44979 -0.18521,-1.42875 -0.58209,-0.92604 0.23813,-0.82021 0.47625,0.13229 0.29104,-0.5027 -0.29104,-1.00542 0.18521,-0.23813 0.76729,0.0529 1.19062,-1.19062 0.635,-0.18521 0.0265,-0.55563 0.37042,-1.45521 0.89958,-0.76729 0.92604,-0.0529 0.15875,-0.34396 1.16417,0.13229 1.21708,-0.84667 0.608553,-0.37041 0.76729,-0.82021 0.52916,0.10583 0.34396,0.44979 z"
       id="CO"
       name="Colombia"
       style="fill:#ececec;stroke:#000000;stroke-width:0.0529167;stroke-linecap:round;stroke-linejoin:round" />
    <path
       d="m 83.393537,159.77429 0.3175,0.92604 0.52916,0.68792 0.66146,0.71437 -0.58208,0.15875 -0.0265,0.68792 0.29104,0.23812 -0.23812,0.21167 0.0529,0.29104 -0.15875,0.34396 -0.0794,0.34396 -0.79375,-0.37042 -0.29104,-0.37042 0.1852,-0.29104 -0.0265,-0.37041 -0.39688,-0.39688 -0.58208,-0.34396 -0.47625,-0.21166 -0.0794,-0.50271 -0.37041,-0.29104 0.0529,0.47625 -0.3175,0.42333 -0.3175,-0.47625 -0.44979,-0.18521 -0.18521,-0.3175 0.0265,-0.52917 0.23813,-0.52916 -0.39688,-0.23813 0.37042,-0.34396 0.23812,-0.21166 0.9525,0.44979 0.34396,-0.21167 0.47625,0.13229 0.21167,0.34396 0.44979,0.13229 z"
       id="CR"
       name="Costa Rica"
       style="fill:#ececec;stroke:#000000;stroke-width:0.0529167;stroke-linecap:round;stroke-linejoin:round" />
    <path
       d="m 91.383947,139.69241 0.50271,0.60855 1.37583,-0.18521 0.47625,0.39687 1.11125,1.05834 0.84667,0.76729 0.47625,-0.0265 0.84667,0.34396 -0.15875,0.47625 1.05833,0.0794 1.03188,0.68792 -0.21167,0.39687 -1.00542,0.21167 -1.00541,0.0794 -0.97896,-0.1323 -2.14313,0.15875 1.11125,-0.92604 -0.55562,-0.44979 -0.9525,-0.10583 -0.44979,-0.50271 -0.21167,-0.9525 -0.84667,0.0529 -1.32291,-0.4498 -0.39688,-0.37041 -1.87854,-0.26459 -0.47625,-0.3175 0.60854,-0.42333 -1.42875,-0.0794 -1.16417,0.87312 -0.60854,0.0265 -0.26458,0.42333 -0.74083,0.18521 -0.60855,-0.18521 0.84667,-0.50271 0.39688,-0.635 0.71437,-0.37041 0.79375,-0.3175 1.13771,-0.15875 0.37042,-0.21167 1.24354,0.13229 1.16416,0.0265 z"
       id="CU"
       name="Cuba"
       style="fill:#ececec;stroke:#000000;stroke-width:0.0529167;stroke-linecap:round;stroke-linejoin:round" />
    <path
       d="m 102.20541,147.70929 0.0794,-0.47625 -0.34396,-0.50271 0.39687,-0.29104 0.18521,-0.66146 -0.0265,-0.89958 0.21167,-0.29104 h 1.13771 l 0.84666,0.42333 0.39688,-0.0265 0.18521,0.60854 0.82021,-0.0529 -0.10584,0.5027 0.66146,0.0794 0.66146,0.60854 -0.60854,0.68792 -0.68792,-0.37042 -0.68792,0.0794 -0.47625,-0.0794 -0.29104,0.3175 -0.58208,0.10583 -0.18521,-0.42333 -0.50271,0.23813 -0.71437,1.16416 -0.34396,-0.26458 z"
       id="DO"
       name="Dominican Republic"
       style="fill:#ececec;stroke:#000000;stroke-width:0.0529167;stroke-linecap:round;stroke-linejoin:round" />
    <path
       d="m 95.141037,178.61262 0.21166,1.29646 -0.44979,1.08479 -1.61396,1.79917 -1.77271,0.66146 -0.89958,1.48166 -0.23812,1.13771 -0.82021,0.71438 -0.66146,-0.87313 -0.60854,-0.18521 -0.60854,0.13229 -0.0794,-0.60854 0.42333,-0.39687 -0.1852,-0.71438 0.76729,-1.27 -0.34396,-0.74083 -0.55563,0.79375 -0.92604,-0.76729 0.29104,-0.47625 -0.26458,-1.53459 0.52917,-0.26458 0.26458,-1.05833 0.55563,-1.08479 -0.0794,-0.68792 0.82021,-0.37042 1.03187,-0.66146 1.48167,0.9525 0.29104,-0.0264 0.37042,0.74083 1.27,0.23812 0.42333,-0.26458 0.74084,0.55563 z"
       id="EC"
       name="Ecuador"
       style="fill:#ececec;stroke:#000000;stroke-width:0.0529167;stroke-linecap:round;stroke-linejoin:round" />
    <path
       d="m 184.38499,45.950544 5.26521,0.79375 -1.77271,0.370416 -3.43958,0.05292 -4.89479,0.105833 0.37041,0.185209 3.25438,-0.132292 2.56646,0.370417 1.85208,-0.3175 0.635,0.370416 -1.19062,0.635 2.43416,-0.423333 4.52438,-0.396875 2.64583,0.211667 0.44979,0.449791 -3.91583,0.767292 -0.58208,0.264583 -3.01625,0.211667 2.14312,0.05292 -1.29646,0.846666 -0.9525,0.767292 -0.3175,1.375833 0.97896,0.846667 -1.56104,0.02646 -1.71979,0.423334 1.66687,0.687916 -0.0265,1.11125 -1.11125,0.132292 1.0848,1.137708 -2.30188,0.105834 1.05833,0.529166 -0.42333,0.47625 -1.50812,0.211667 -1.45521,0.02646 1.11125,0.899583 -0.13229,0.635 -1.93146,-0.582083 -0.635,0.370417 1.32291,0.343958 1.21709,0.846667 0.15875,1.137708 -1.95792,0.264583 -0.71437,-0.555625 -1.11125,-0.79375 0.13229,0.9525 -1.42875,0.740834 2.83104,0.05292 1.45521,0.07937 -3.14854,1.243542 -3.22792,1.137708 -3.36021,0.47625 -1.21708,0.02646 -1.29646,0.555625 -1.98437,1.534583 -2.69875,1.031875 -0.79375,0.07937 -1.61396,0.343958 -1.74625,0.370417 -1.27,0.899583 -0.37042,1.058334 -0.89958,1.005416 -2.27542,1.217084 0.0794,1.190625 -0.9525,1.27 -1.0848,1.508125 -1.71979,0.105833 -1.32291,-1.27 -2.38125,-0.02646 -0.84667,-0.846667 -0.21167,-1.481667 -1.27,-1.905 -0.18521,-0.978958 0.39688,-1.349375 -0.97896,-1.349375 0.87313,-1.084792 -0.50271,-0.529166 1.85208,-1.693334 1.905,-0.555625 0.68792,-0.582083 0.74083,-1.11125 -1.45521,0.502708 -0.68791,0.211667 -1.0848,0.185208 -1.11125,-0.449791 0.39688,-0.978959 0.79375,-0.740833 1.00542,-0.02646 2.01083,0.396875 -1.40229,-0.899584 -0.71438,-0.47625 -1.16416,0.185209 -0.68792,-0.343959 1.85208,-1.27 -0.34396,-0.529166 -0.29104,-0.926042 -0.37041,-1.42875 -0.9525,-0.502708 0.37041,-0.555625 -2.14312,-0.767292 -2.03729,-0.105833 -2.6723,0.05292 -2.51354,0.105833 -0.82021,-0.423333 -1.00541,-0.820209 2.91041,-0.396875 2.01084,-0.05292 -3.86292,-0.343959 -1.71979,-0.502708 0.58208,-0.47625 4.15396,-0.582083 3.96875,-0.582084 0.74083,-0.423333 -2.14312,-0.423333 1.21708,-0.449792 3.88938,-0.767292 1.42875,-0.105833 0.0529,-0.47625 2.38125,-0.291042 2.91042,-0.15875 h 2.75167 l 0.74083,0.3175 2.80458,-0.582083 1.87855,0.396875 1.21708,0.07937 1.64042,0.343958 -1.77271,-0.555625 0.42333,-0.449791 3.36021,-0.582084 3.06916,0.05292 1.34938,-0.370417 3.14854,-0.07938 z"
       id="GL"
       name="Greenland"
       style="fill:#ececec;stroke:#000000;stroke-width:0.0529167;stroke-linecap:round;stroke-linejoin:round" />
    <path
       d="m 76.382077,148.10616 -0.18521,1.34938 -0.34396,1.905 h 0.44979 l 0.44979,0.3175 0.15875,-0.26459 0.39688,0.21167 -0.74083,0.66146 -0.7673,0.47625 -0.13229,0.3175 0.0794,0.34396 -0.34396,0.42333 -0.37042,0.10583 0.0794,0.21167 -0.3175,0.18521 -0.52917,0.42333 -0.0794,0.23813 -0.74084,-0.29104 -0.92604,-0.0265 -0.635,-0.34396 -0.74083,-0.68792 0.10583,-0.50271 0.21167,-0.39687 -0.18521,-0.3175 0.87312,-1.37583 h 1.905 l 0.10584,-0.58209 -0.21167,-0.10583 -0.13229,-0.37042 -0.50271,-0.39687 -0.47625,-0.55563 0.66146,-0.0265 0.13229,-0.9525 h 1.37583 z"
       id="GT"
       name="Guatemala"
       style="fill:#ececec;stroke:#000000;stroke-width:0.0529167;stroke-linecap:round;stroke-linejoin:round" />
    <path
       d="m 122.63124,168.2145 -0.26458,1.53458 -0.92604,0.42333 0.0794,0.39688 -0.29104,0.89958 0.635,1.21708 h 0.47625 l 0.18521,0.9525 0.87313,1.48167 -0.34396,0.0794 -0.84667,-0.15875 -0.47625,0.44979 -0.68792,0.29104 -0.47625,0.0794 -0.15875,0.34396 -0.74083,-0.0794 -0.92604,-0.79375 -0.0794,-0.79375 -0.37041,-0.87313 0.26458,-1.42875 0.42333,-0.60854 -0.3175,-0.79375 -0.52916,-0.23812 0.21166,-0.7673 -0.3175,-0.37041 -0.79375,0.0529 -0.97895,-1.27 0.42333,-0.47625 v -0.79375 l 0.92604,-0.26458 0.37042,-0.3175 -0.47625,-0.635 0.13229,-0.60854 1.24354,-1.00542 0.9525,0.635 0.87313,1.08479 0.0265,0.89959 0.55563,0.0265 0.79375,0.8202 z"
       id="GY"
       name="Guyana"
       style="fill:#ececec;stroke:#000000;stroke-width:0.0529167;stroke-linecap:round;stroke-linejoin:round" />
    <path
       d="m 84.716447,152.86866 -0.50271,-0.0265 -0.23812,0.23813 -0.52917,0.21167 h -0.37041 l -0.34396,0.21166 -0.29104,-0.0529 -0.23813,-0.26459 -0.15875,0.0529 -0.23812,0.39687 -0.1323,-0.0264 -0.0529,0.37041 -0.55563,0.44979 -0.3175,0.21167 -0.15875,0.21167 -0.39687,-0.34396 -0.37042,0.44979 h -0.3175 l -0.34396,0.0265 -0.0529,0.84667 h -0.21167 l -0.21167,0.39687 -0.47625,0.0794 -0.21166,-0.52917 -0.4498,-0.15875 0.18521,-0.68792 -0.18521,-0.18521 -0.3175,-0.10583 -0.66145,0.18521 -0.0265,-0.21167 -0.42334,-0.29104 -0.29104,-0.3175 -0.42333,-0.15875 0.34396,-0.42333 -0.0794,-0.34396 0.13229,-0.3175 0.7673,-0.47625 0.74083,-0.66146 0.15875,0.0794 0.34396,-0.29105 0.42333,-0.0264 0.13229,0.13229 0.23813,-0.0794 0.68791,0.15875 0.68792,-0.0529 0.47625,-0.18521 0.21167,-0.18521 0.44979,0.0794 0.34396,0.10583 0.39687,-0.0265 0.3175,-0.15875 0.66146,0.23812 0.21167,0.0529 0.42333,0.3175 0.39688,0.37042 0.5027,0.26458 z"
       id="HN"
       name="Honduras"
       style="fill:#ececec;stroke:#000000;stroke-width:0.0529167;stroke-linecap:round;stroke-linejoin:round" />
    <path
       d="m 102.49645,144.87825 0.0265,0.89958 -0.18521,0.66146 -0.39687,0.29104 0.34396,0.50271 -0.0794,0.47625 -0.9525,-0.29104 -0.71437,0.10583 -0.899593,-0.10583 -0.71437,0.3175 -0.74084,-0.52917 0.18521,-0.55562 1.34938,0.23812 1.084793,0.13229 0.58208,-0.37041 -0.60854,-0.74084 0.10583,-0.66146 -0.926043,-0.26458 0.396883,-0.44979 0.89958,0.0529 z"
       id="HT"
       name="Haiti"
       style="fill:#ececec;stroke:#000000;stroke-width:0.0529167;stroke-linecap:round;stroke-linejoin:round" />
    <path
       d="m 191.92562,67.937418 -0.37042,0.9525 1.16417,1.005417 -1.61396,1.137708 -3.46604,1.031875 -1.03188,0.291042 -1.48166,-0.238125 -3.14855,-0.47625 1.27,-0.661458 -2.38125,-0.714375 2.09021,-0.291042 0.0265,-0.449792 -2.32833,-0.343958 0.9525,-0.978958 1.74625,-0.211667 1.5875,1.005417 1.85208,-0.79375 1.34938,0.396875 1.93145,-0.767292 z"
       id="IS"
       name="Iceland"
       style="fill:#ececec;stroke:#000000;stroke-width:0.0529167;stroke-linecap:round;stroke-linejoin:round" />
    <path
       d="m 94.479577,148.00033 -0.47625,0.29104 -0.79375,-0.29104 -0.76729,-0.60854 0.21166,-0.39688 0.635,-0.10583 0.34396,0.0529 0.97896,0.15875 0.71437,0.39687 0.21167,0.47625 z"
       id="JM"
       name="Jamaica"
       style="fill:#ececec;stroke:#000000;stroke-width:0.0529167;stroke-linecap:round;stroke-linejoin:round" />
    <path
       d="m 66.116237,134.45366 0.58209,-0.0529 -0.84667,1.50812 -0.47625,1.21709 -0.47625,2.27541 -0.29104,0.82021 0.10583,0.92604 0.34396,0.84667 0.10583,1.29646 0.79375,1.27 0.21167,0.97896 0.44979,0.8202 1.50813,0.4498 0.50271,0.71437 1.37583,-0.47625 1.13771,-0.15875 1.16416,-0.3175 0.9525,-0.29104 1.03188,-0.68792 0.47625,-0.97896 0.3175,-1.42875 0.3175,-0.5027 1.05833,-0.4498 1.61396,-0.39687 1.29646,0.0794 0.89958,-0.15875 0.3175,0.37042 -0.15875,0.82021 -0.92604,1.00542 -0.47625,1.03187 0.23813,0.29104 -0.3175,0.74084 -0.55563,1.32291 -0.3175,-0.44979 -0.29104,0.0265 -0.29104,0.0265 -0.66146,1.03187 -0.23813,-0.21166 -0.1852,0.0794 -0.0265,0.26458 -1.37584,-0.0265 h -1.37583 l -0.13229,0.9525 -0.66146,0.0265 0.47625,0.55563 0.50271,0.39687 0.13229,0.37042 0.21167,0.10583 -0.10584,0.58209 h -1.905 l -0.87312,1.37583 0.18521,0.3175 -0.21167,0.39687 -0.10583,0.50271 -1.48167,-1.82562 -0.68792,-0.55563 -1.16416,-0.44979 -0.84667,0.13229 -1.27,0.635 -0.76729,0.15875 -0.97896,-0.44979 -1.08479,-0.3175 -1.27,-0.76729 -1.08479,-0.23812 -1.56104,-0.79375 -1.13771,-0.82021 -0.29104,-0.44979 -0.82021,-0.10584 -1.42875,-0.52916 -0.50271,-0.7673 -1.42875,-0.97895 -0.582083,-1.05834 -0.211667,-0.84666 0.502708,-0.15875 -0.07938,-0.47625 0.423333,-0.4498 0.105834,-0.58208 -0.396875,-0.76729 v -0.66146 l -0.343958,-0.87312 -1.005417,-1.69334 -1.217083,-1.32291 -0.502709,-1.05834 -1.084791,-0.68791 -0.185209,-0.42334 0.449792,-1.03187 -0.635,-0.39688 -0.661458,-0.84666 -0.05292,-1.16417 -0.740833,-0.15875 -0.608542,-0.87313 -0.449792,-0.84666 0.07938,-0.52917 -0.396875,-1.27 -0.07937,-1.29646 0.211667,-0.66146 -0.820208,-0.68791 -0.502709,0.0794 -0.635,-0.44979 -0.47625,0.68792 -0.02646,0.79375 -0.264583,1.29646 0.264583,0.68791 0.740833,1.16417 0.105834,0.42333 0.185208,0.10584 0.02646,0.58208 0.264584,-0.0265 v 1.11125 l 0.343958,0.42333 0.132292,0.60855 0.714375,0.84666 0.105833,1.5875 0.264583,0.74084 0.238125,0.79375 -0.07937,0.89958 0.687917,0.0529 0.423333,0.76729 0.396875,0.76729 -0.07937,0.3175 -0.740833,0.60854 h -0.264583 l -0.185209,-1.03187 -0.767291,-0.97896 -0.899584,-0.82021 -0.661458,-0.42333 0.3175,-1.24355 -0.02646,-0.92604 -0.555625,-0.52916 -0.820209,-0.74084 -0.238125,0.21167 -0.264583,-0.44979 -0.79375,-0.39688 -0.582083,-1.00541 0.132291,-0.10584 0.555625,0.0794 0.714375,-0.635 0.264584,-0.76729 -0.767292,-1.21709 -0.687917,-0.44979 -0.211666,-1.05833 -0.15875,-1.13771 -0.211667,-1.34938 -0.05292,-1.53458 1.666875,-0.13229 1.878542,-0.18521 -0.238125,0.34396 1.852083,0.82021 2.883959,1.19062 h 2.8575 1.137708 L 53.231,124.39964 h 2.487087 l 0.34396,0.60854 0.55562,0.55562 0.635,0.74084 0.21167,0.87312 0.10583,0.9525 0.60854,0.50271 1.05834,0.50271 1.27,-1.32292 1.19062,-0.0529 0.84667,0.68791 0.42333,1.16417 0.23813,1.00542 0.635,0.9525 0.0529,1.19062 0.23813,0.79375 1.03187,0.52917 z"
       id="MX"
       name="Mexico"
       style="fill:#ececec;stroke:#000000;stroke-width:0.0529167;stroke-linecap:round;stroke-linejoin:round" />
    <path
       d="m 84.716447,152.86866 -0.13229,0.18521 -0.13229,0.37042 0.10583,0.60854 -0.39687,0.58208 -0.21167,0.68792 -0.13229,0.74083 0.0529,0.44979 -0.0265,0.7673 -0.23813,0.15875 -0.18521,0.74083 0.0529,0.44979 -0.3175,0.42333 0.0265,0.4498 0.21167,0.29104 -0.37042,0.37041 -0.44979,-0.13229 -0.21167,-0.34396 -0.47625,-0.13229 -0.34396,0.21167 -0.9525,-0.44979 -0.23812,0.21166 -0.47625,-0.52916 -0.66146,-0.68792 -0.29104,-0.55562 -0.58209,-0.55563 -0.66145,-0.76729 0.1852,-0.26458 0.21167,0.26458 0.13229,-0.10583 0.47625,-0.0794 0.21167,-0.39687 h 0.21167 l 0.0529,-0.84667 0.34396,-0.0265 h 0.3175 l 0.37042,-0.44979 0.39687,0.34396 0.15875,-0.21167 0.3175,-0.21167 0.55563,-0.44979 0.0529,-0.37041 0.1323,0.0264 0.23812,-0.39687 0.15875,-0.0529 0.23813,0.26459 0.29104,0.0529 0.34396,-0.21166 h 0.37041 l 0.52917,-0.21167 0.23812,-0.23813 z"
       id="NI"
       name="Nicaragua"
       style="fill:#ececec;stroke:#000000;stroke-width:0.0529167;stroke-linecap:round;stroke-linejoin:round" />
    <path
       d="m 92.574577,163.6372 -0.18521,0.23813 0.29104,1.00542 -0.29104,0.5027 -0.47625,-0.13229 -0.23813,0.82021 -0.47625,-0.47625 -0.26458,-0.92604 0.37042,-0.44979 -0.37042,-0.10584 -0.23812,-0.55562 -0.74084,-0.47625 -0.635,0.10583 -0.34396,0.58209 -0.635,0.42333 -0.3175,0.0529 -0.15875,0.37041 0.66146,0.92604 -0.42333,0.21167 -0.21167,0.23813 -0.71437,0.10583 -0.21167,-1.03188 -0.21167,0.29105 -0.47625,-0.10584 -0.26458,-0.66146 -0.60854,-0.13229 -0.39688,-0.18521 h -0.635 l -0.0529,0.37042 -0.15875,-0.26458 0.0794,-0.34396 0.15875,-0.34396 -0.0529,-0.29104 0.23812,-0.21167 -0.29104,-0.23812 0.0265,-0.68792 0.58208,-0.15875 0.50271,0.60854 -0.0529,0.37042 0.58209,0.0794 0.15875,-0.15875 0.39687,0.42334 0.74083,-0.13229 0.66146,-0.42334 0.92604,-0.34396 0.52917,-0.5027 0.82021,0.10583 -0.0529,0.15875 0.82021,0.0529 0.635,0.3175 0.47625,0.5027 z"
       id="PA"
       name="Panama"
       style="fill:#ececec;stroke:#000000;stroke-width:0.0529167;stroke-linecap:round;stroke-linejoin:round" />
    <path
       d="m 103.47541,185.65054 -1.34937,-0.0794 -0.21167,0.26459 -1.21708,0.3175 -1.666883,1.16416 -0.0794,0.79375 -0.37042,0.58209 0.18521,0.92604 -0.89959,0.47625 0.0529,0.74083 -0.39687,0.29104 0.68791,1.53459 0.87313,1.03187 -0.26459,0.74083 1.00542,0.0794 0.608543,0.92604 1.32292,0.0265 1.16417,-0.97896 0.0265,2.56646 0.68792,0.18521 0.84667,-0.29104 1.45521,2.75166 -0.29105,0.55563 v 1.21708 l 0.0794,1.42875 -0.50271,0.84667 0.3175,0.635 -0.29104,0.58208 0.76729,1.42875 -0.76729,1.82563 -0.29104,0.87312 -0.74084,0.42333 -1.56104,-0.97895 -0.21166,-0.68792 -3.095633,-1.69333 -2.83104,-1.87855 -1.24354,-1.03187 -0.74084,-1.40229 0.21167,-0.50271 -1.42875,-2.2225 -1.69333,-3.12208 -1.5875,-3.38667 -0.635,-0.79375 -0.52917,-1.24354 -1.21708,-1.11125 -1.08479,-0.68792 0.44979,-0.74083 -0.79375,-1.64042 0.44979,-1.19062 1.16417,-1.05834 0.1852,0.71438 -0.42333,0.39687 0.0794,0.60854 0.60854,-0.13229 0.60854,0.18521 0.66146,0.87313 0.82021,-0.71438 0.23812,-1.13771 0.89958,-1.48166 1.77271,-0.66146 1.61396,-1.79917 0.44979,-1.08479 -0.21166,-1.29646 0.39687,-0.15875 1.00542,0.79375 0.47625,0.82021 0.68791,0.42333 0.92605,1.77271 1.11125,0.23813 0.820203,-0.4498 0.55563,0.29105 0.89958,-0.15875 1.16417,0.79375 -0.92604,1.74625 0.44979,0.0265 z"
       id="PE"
       name="Peru"
       style="fill:#ececec;stroke:#000000;stroke-width:0.0529167;stroke-linecap:round;stroke-linejoin:round" />
    <path
       d="m 122.52541,212.63804 0.52917,0.92604 0.10583,2.30187 1.56104,0.34396 0.58209,-0.34396 1.03187,0.47625 0.3175,0.50271 0.29104,1.56104 0.21167,0.635 0.55562,0.0794 0.52917,-0.26458 0.55563,0.29104 0.0794,0.9525 -0.0794,1.00541 -0.18521,0.97896 -0.0794,1.48167 -1.13771,1.32292 -1.11125,0.26458 -1.66687,-0.26458 -1.53458,-0.4498 1.11125,-2.59291 -0.29105,-0.74084 -1.56104,-0.66145 -1.93146,-1.27 -1.21708,-0.26459 -2.98979,-2.75166 0.39687,-2.0373 -0.0529,-0.92604 0.55562,-1.48166 2.54,-0.50271 1.37584,0.0265 1.42875,0.87312 z"
       id="PY"
       name="Paraguay"
       style="fill:#ececec;stroke:#000000;stroke-width:0.0529167;stroke-linecap:round;stroke-linejoin:round" />
    <path
       d="m 77.546237,155.62033 -0.1852,0.39687 -0.87313,-0.0265 -0.52917,-0.15875 -0.58208,-0.34396 -0.79375,-0.10584 -0.39687,-0.37041 0.0794,-0.23813 0.52917,-0.42333 0.3175,-0.18521 -0.0794,-0.21167 0.37042,-0.10583 0.42333,0.15875 0.29104,0.3175 0.42334,0.29104 0.0265,0.21167 0.66145,-0.18521 0.3175,0.10583 0.18521,0.18521 z"
       id="SV"
       name="El Salvador"
       style="fill:#ececec;stroke:#000000;stroke-width:0.0529167;stroke-linecap:round;stroke-linejoin:round" />
    <path
       d="m 127.4202,168.58491 -0.82021,1.45521 0.0794,1.16417 0.58208,1.00541 -0.29104,0.71438 -0.13229,0.79375 -0.39688,0.71437 -0.84666,-0.37041 -0.71438,0.18521 -0.60854,-0.15875 -0.15875,0.5027 0.26458,0.3175 -0.15875,0.37042 -0.8202,-0.15875 -0.87313,-1.48167 -0.18521,-0.9525 h -0.47625 l -0.635,-1.21708 0.29104,-0.89958 -0.0794,-0.39688 0.92604,-0.42333 0.26458,-1.53458 1.79917,0.34395 0.15875,-0.3175 1.21708,-0.13229 z"
       id="SR"
       name="Suriname"
       style="fill:#ececec;stroke:#000000;stroke-width:0.0529167;stroke-linecap:round;stroke-linejoin:round" />
    <path
       d="m 132.36791,235.7097 -0.42333,1.0848 -1.42875,0.92604 -1.11125,-0.34396 -0.74084,0.18521 -1.4552,-0.71438 -0.9525,0.0529 -1.03188,-0.9525 -0.10583,-1.08479 0.23812,-0.37042 -0.3175,-1.69333 0.10584,-1.74625 0.13229,-1.37584 0.89958,-0.1852 1.66688,1.32291 0.5027,-0.0529 1.66688,1.08479 1.27,0.9525 1.00542,1.13771 -0.47625,0.8202 z"
       id="UY"
       name="Uruguay"
       style="fill:#ececec;stroke:#000000;stroke-width:0.0529167;stroke-linecap:round;stroke-linejoin:round" />
    <path
       d="m 118.87416,164.13991 -1.24354,1.00542 -0.13229,0.60854 0.47625,0.635 -0.37042,0.3175 -0.92604,0.26458 v 0.79375 l -0.42333,0.47625 0.97895,1.27 0.18521,0.47625 -0.55562,0.66146 -1.69334,0.635 -1.08479,0.26459 -0.44979,0.39687 -1.19062,-0.42333 -1.0848,-0.21167 -0.29104,0.15875 0.66146,0.42333 -0.0794,1.13771 0.1852,1.08479 1.27,0.1323 0.0794,0.37041 -1.08479,0.47625 -0.18521,0.71438 -0.635,0.29104 -1.11125,0.39687 -0.29104,0.52917 -1.16417,0.10583 -0.82021,-0.89958 -0.42333,-1.69333 -0.39688,-0.60854 -0.52916,-0.37042 0.76729,-0.84667 -0.0529,-0.37041 -0.39687,-0.50271 -0.29104,-1.13771 0.15875,-1.21708 0.34395,-0.58209 0.3175,-0.89958 -0.52916,-0.29104 -0.84667,0.18521 -1.08479,-0.0794 -0.60854,0.18521 -1.00542,-1.48167 -0.87312,-0.21166 -1.93146,0.15875 -0.3175,-0.58209 -0.370423,-0.13229 -0.0265,-0.37042 0.18521,-0.635 -0.0794,-0.66145 -0.3175,-0.39688 -0.15875,-0.76729 -0.7673,-0.10583 0.47625,-1.00542 0.23813,-1.21708 0.47625,-0.635 0.608543,-0.47625 0.42333,-0.84667 0.97896,-0.29104 -0.0529,0.39687 -0.89959,0.21167 0.44979,0.76729 -0.0794,0.89958 -0.71438,0.97896 0.50271,1.34938 0.66146,-0.10584 0.39688,-1.24354 -0.4498,-0.58208 v -1.29646 l 1.905,-0.68792 -0.15875,-0.79375 0.55563,-0.55562 0.44979,1.21708 1.05833,0.0265 0.89959,0.92604 0.0529,0.58209 h 1.32292 l 1.61396,-0.15875 0.82021,0.74083 1.11125,0.21167 0.87312,-0.52917 0.0265,-0.42333 1.87854,-0.10584 1.77271,-0.0265 -1.29646,0.50271 0.47625,0.82021 1.19063,0.10583 1.11125,0.84667 0.18521,1.34938 0.76729,-0.0265 z"
       id="VE"
       name="Venezuela"
       style="fill:#ececec;stroke:#000000;stroke-width:0.0529167;stroke-linecap:round;stroke-linejoin:round" />
    <path
       class="Chile"
       d="m 120.56749,267.2745 1.5875,3.59833 h 1.32292 l 0.79375,0.0529 -0.13229,0.635 -0.84667,0.5027 -0.635,-0.0529 -0.82021,-0.13229 -1.11125,-0.47625 -1.42875,-0.23813 -1.98437,-0.89958 -1.69333,-0.84667 -2.59292,-1.82562 1.21708,0.34395 2.27542,1.0848 1.93146,0.58208 0.3175,-0.74083 -0.0794,-1.11125 0.89959,-0.68792 z"
       id="path496"
       style="fill:#ececec;stroke:#000000;stroke-width:0.0529167;stroke-linecap:round;stroke-linejoin:round" />
    <path
       class="Chile"
       d="m 109.79895,216.9772 0.23813,0.42334 -0.3175,1.77271 -1.48167,0.8202 0.42333,2.83105 -0.21166,0.55562 0.52916,0.66146 -0.87312,1.05833 -0.68792,1.5875 -0.23812,1.56104 0.44979,1.64042 -0.55563,1.74625 1.29646,2.93688 0.42334,0.3175 0.37041,1.56104 -0.42333,1.64041 0.37042,1.42875 -0.79375,1.11125 0.42333,1.53459 0.87312,1.66687 -0.66145,0.60854 0.0529,1.50813 0.21167,1.71979 0.87312,2.06375 -0.44979,0.34396 0.97896,1.93146 0.82021,0.635 -0.21167,0.71437 0.74084,0.3175 0.37041,0.635 -0.47625,0.3175 0.47625,0.97896 0.29104,2.19604 -0.1852,1.42875 0.47625,0.84667 -0.0265,1.03187 -0.71438,0.74084 0.82021,1.71979 0.68792,0.60854 0.82021,-0.10583 0.5027,1.21708 0.92605,0.9525 3.20145,0.21167 1.29646,0.26458 h -1.13771 l -0.44979,0.39688 -0.89958,0.58208 0.44979,1.50812 -0.50271,0.0265 -1.66687,-0.50271 -1.98438,-1.1377 -2.01083,-0.92605 -0.84667,-1.03187 -0.0794,-0.9525 -1.11125,-1.11125 -1.32292,-2.80458 -0.0529,-1.5875 0.89959,-1.27 -2.19604,-0.50271 0.71437,-1.45521 -0.52917,-2.77813 1.7198,0.58209 -0.47625,-3.46604 -1.05834,-0.4498 0.26459,2.09021 -0.92605,-0.23812 -0.39687,-2.38125 -0.52917,-3.12209 0.29104,-1.16416 -0.87312,-1.64042 -0.635,-1.905 0.58208,-0.0794 0.15875,-2.72521 0.3175,-2.72521 0.0265,-2.51354 -0.87312,-2.56646 0.15875,-1.40229 -0.55563,-2.09021 0.47625,-2.06375 -0.23812,-3.28083 v -3.54542 l 0.0265,-3.78354 -0.39687,-2.77813 -0.55563,-2.40771 0.74084,-0.42333 0.29104,-0.87312 0.84667,1.16416 0.3175,1.21709 0.84666,0.71437 -0.29104,1.64042 0.97896,1.905 0.82021,2.35479 z"
       id="path498"
       style="fill:#ececec;stroke:#000000;stroke-width:0.0529167;stroke-linecap:round;stroke-linejoin:round" />
    <path
       class="United States"
       d="m -21.328549,145.93658 -0.291042,0.29104 -0.3175,-0.23812 0.15875,-0.47625 -0.105833,-0.635 0.132292,-0.18521 0.3175,-0.26458 -0.02646,-0.34396 0.105834,-0.15875 0.105833,0.0265 0.502708,0.29104 0.238125,0.15875 0.185209,0.21166 0.238125,0.60855 -0.05292,0.0794 -0.661458,0.37042 z"
       id="path527"
       style="fill:#ececec;stroke:#000000;stroke-width:0.0529167;stroke-linecap:round;stroke-linejoin:round" />
    <path
       class="United States"
       d="m -21.513757,143.29075 -0.529167,0.10583 -0.15875,-0.34396 -0.132292,-0.13229 v -0.10583 l 0.185209,-0.15875 0.47625,0.15875 0.3175,0.26458 z"
       id="path529"
       style="fill:#ececec;stroke:#000000;stroke-width:0.0529167;stroke-linecap:round;stroke-linejoin:round" />
    <path
       class="United States"
       d="m -22.307507,142.39116 -0.07938,0.18521 -0.79375,-0.0529 0.15875,-0.21167 z"
       id="path531"
       style="fill:#ececec;stroke:#000000;stroke-width:0.0529167;stroke-linecap:round;stroke-linejoin:round" />
    <path
       class="United States"
       d="m -23.551049,142.12658 -0.105833,0.10583 -0.105834,-0.0264 -0.502708,-0.0529 -0.07937,-0.39688 -0.05292,-0.0529 0.449792,-0.23813 0.105833,0.10584 z"
       id="path533"
       style="fill:#ececec;stroke:#000000;stroke-width:0.0529167;stroke-linecap:round;stroke-linejoin:round" />
    <path
       class="United States"
       d="m 89.981657,97.041584 -1.61396,0.52917 -1.24354,0.66146 -1.21708,0.71437 -0.13229,0.23813 1.50812,-0.34396 0.55563,0.55562 1.21708,-0.39687 1.29646,-0.55563 1.42875,-0.55562 -0.82021,0.87312 0.66146,0.21167 0.66146,0.635 1.34937,-0.37042 1.34938,-0.13229 0.0794,0.47625 0.39688,0.0529 0.3175,0.0529 0.39687,0.661456 -1.24354,0.15875 h -0.0265 l -0.97896,-0.18521 -1.19062,0.3175 -0.97896,0.15875 -1.24354,1.0848 -0.79375,0.60854 0.10583,0.18521 1.45521,-1.0848 h 0.18521 l -1.24354,1.29646 -0.7673,1.16417 -0.66145,0.9525 -0.15875,0.82021 -0.21167,0.39687 -0.15875,0.44979 0.0265,0.87313 0.0794,0.13229 0.47625,-0.0265 0.42334,-0.18521 0.37041,-0.21166 0.87313,-0.82021 0.47625,-1.11125 -0.0265,-1.03188 0.37042,-0.71437 0.68791,-0.82021 0.55563,-0.58208 0.71437,-0.39688 -0.10583,0.55563 0.58208,-0.82021 0.34396,-0.15875 0.44979,-0.635 1.00542,0.34396 0.74083,0.635 -0.21166,0.76729 -0.42334,0.76729 -1.00541,0.66146 -0.10584,0.42333 h 0.26459 l 1.1377,-0.71437 0.42334,0.15875 -0.13229,0.97896 -0.18521,0.68791 -0.97896,0.92604 -0.52917,0.58209 -0.71437,0.635 0.71437,0.34396 0.66146,0.10583 1.05833,-0.23813 0.97896,-0.44979 0.79375,-0.23812 1.21709,-0.47625 1.534583,-1.00542 0.0265,-0.15875 0.0794,-0.50271 0.71438,-0.21166 1.03187,0.0794 1.05834,0.13229 1.21708,-0.55562 0.15875,-0.66146 -0.0529,-0.23813 1.79917,-1.16416 0.71437,-0.29104 2.06375,-0.0265 h 2.46063 l 0.29104,-0.39688 0.44979,-0.0794 0.66146,-0.26459 0.74083,-0.76729 0.84667,-1.296456 1.45521,-1.24354 0.29104,0.42334 0.97896,-0.26459 0.42333,0.47625 -0.76729,2.248956 0.58208,0.9525 0.0529,0.55563 -1.69333,0.79375 -1.5875,0.58208 -1.5875,0.50271 -1.05834,1.00541 -0.34395,0.37042 -0.3175,0.89958 0.1852,0.87313 0.55563,0.0529 0.0529,-0.60855 0.29104,0.37042 -0.26459,0.47625 -1.00541,0.26458 -0.66146,-0.0265 -1.11125,0.29104 -0.60854,0.0794 -0.82021,0.0794 -1.32292,0.50271 2.14313,-0.3175 0.29104,0.3175 -2.09021,0.5027 h -0.87312 l 0.10583,-0.21166 -0.55563,0.47625 0.37042,0.0794 -0.66146,1.21709 -1.40229,1.29645 0.0265,-0.44979 -0.29104,-0.0794 -0.3175,-0.42334 v 0.92605 l 0.26458,0.29104 -0.15875,0.635 -0.635,0.66146 -1.19062,1.34937 -0.10584,-0.0529 0.76729,-1.16416 -0.52916,-0.635 0.26458,-1.42875 -0.50271,0.74083 v 1.08479 l -0.84666,-0.26458 0.79375,0.52917 -0.39688,1.61395 0.37042,0.1323 v 0.58208 l -0.26459,1.69333 -1.21708,1.24354 -1.613963,0.50271 -1.16416,1.00542 -0.74084,0.10583 -0.89958,0.635 -0.34396,0.55563 -1.82562,1.11125 -1.00542,0.82021 -0.92604,1.00541 -0.50271,1.19063 v 1.19062 l 0.15875,1.45521 0.39687,1.19063 -0.13229,0.74083 0.34396,1.95792 -0.26458,1.16416 -0.15875,0.66146 -0.52917,1.03188 -0.47625,0.21166 -0.68792,-0.21166 -0.10583,-0.74084 -0.47625,-0.39687 -0.52917,-1.45521 -0.42333,-1.29646 -0.10583,-0.66146 0.52916,-1.13771 -0.21166,-0.92604 -0.82021,-1.42875 -0.50271,-0.26458 -1.61396,0.79375 -0.23812,-0.10583 -0.52917,-0.79375 -0.79375,-0.42334 -1.69333,0.23813 -1.21709,-0.21167 -1.1377,0.13229 -0.66146,0.26459 0.15875,0.44979 -0.18521,0.68791 0.21167,0.34396 -0.3175,0.21167 -0.47625,-0.23813 -0.60855,0.3175 -1.03187,-0.0529 -0.87313,-0.89959 -1.29645,0.21167 -0.9525,-0.39687 -0.92605,0.13229 -1.32291,0.39687 -1.61396,1.24354 -1.61396,0.74084 -0.97896,0.79375 -0.50271,0.76729 -0.26458,1.19062 -0.10583,0.79375 0.15875,0.58209 -0.58209,0.0529 -0.9525,-0.37041 -1.03187,-0.52917 -0.23813,-0.79375 -0.0529,-1.19062 -0.635,-0.9525 -0.23813,-1.00542 -0.42333,-1.16417 -0.84667,-0.68791 -1.19062,0.0529 -1.27,1.32292 -1.05834,-0.50271 -0.60854,-0.50271 -0.10583,-0.9525 -0.21167,-0.87312 -0.635,-0.74084 -0.55562,-0.55562 -0.34396,-0.60854 h -2.487084 l -0.211666,0.71437 h -1.137708 -2.8575 l -2.883959,-1.19062 -1.852083,-0.82021 0.238125,-0.34396 -1.878542,0.18521 -1.666875,0.13229 0.07937,-0.84667 -0.555625,-0.97895 -0.582083,-0.21167 0.02646,-0.47625 -0.767291,-0.10583 -0.3175,-0.4498 -1.27,-0.15875 -0.238125,-0.29104 0.211666,-0.92604 -0.661458,-1.69333 -0.132292,-2.35479 0.238125,-0.39688 -0.343958,-0.55562 -0.396875,-1.42875 0.47625,-1.37584 -0.238125,-0.92604 1.031875,-1.40229 0.740833,-1.42875 0.291042,-1.29646 1.455208,-1.5875 1.058334,-1.50812 1.058333,-1.50813 1.137708,-2.248956 0.47625,-1.40229 0.105834,-0.76729 0.370416,-0.34396 1.534584,0.58208 -0.264584,1.56105 0.582084,-0.4498 0.661458,-1.34937 0.423333,-1.34938 h 3.730625 3.889375 1.270005 3.99521 3.88937 3.91583 3.9423 4.445 4.49791 2.69875 l 0.34396,-0.635 h 0.44979 l -0.23812,0.89959 0.26458,0.26458 0.87313,0.10583 1.21708,0.26459 1.03187,0.50271 1.16417,-0.21167 z"
       id="path537"
       style="fill:#ececec;stroke:#000000;stroke-width:0.0529167;stroke-linecap:round;stroke-linejoin:round" />
    <path
       class="United States"
       d="m 19.999367,82.251377 -1.852083,0.608541 -0.211667,-0.423333 0.608542,-0.740833 1.693333,-0.555625 0.926042,-0.238125 0.687917,0.105833 v 0.502708 z"
       id="path539"
       style="fill:#ececec;stroke:#000000;stroke-width:0.0529167;stroke-linecap:round;stroke-linejoin:round" />
    <path
       class="United States"
       d="m 9.6806166,77.859293 -1.031875,0.238125 -0.449791,-0.291041 -0.211667,-0.423334 1.508125,-0.264583 0.7937504,0.15875 z"
       id="path541"
       style="fill:#ececec;stroke:#000000;stroke-width:0.0529167;stroke-linecap:round;stroke-linejoin:round" />
    <path
       class="United States"
       d="m 9.9981166,71.932627 0.3175004,0.264583 0.926042,-0.132292 0.423333,0.396875 0.873125,0.185209 -0.3175,0.185208 -1.296458,0.3175 -0.449792,-0.343958 -0.07937,-0.264584 -1.1377084,0.07937 -0.07937,-0.132291 z"
       id="path543"
       style="fill:#ececec;stroke:#000000;stroke-width:0.0529167;stroke-linecap:round;stroke-linejoin:round" />
    <path
       class="United States"
       d="m 55.718117,63.201377 -6.50875,5.3975 -9.419167,8.651875 1.11125,0.05292 0.740834,0.423334 0.132291,0.687916 0.07937,1.005417 2.010834,-0.873125 1.719791,-0.502708 -0.15875,0.820208 0.211667,0.635 0.423333,0.714375 -0.291041,1.11125 -0.370417,1.825625 1.217083,1.005417 -0.846666,1.005416 -1.349375,0.767292 -0.15875,-0.582084 -0.661459,-0.529166 0.873125,-1.375833 -0.423333,-1.296459 0.714375,-1.481666 -1.084792,-0.105834 -1.878541,-0.02646 -1.005417,-0.47625 -0.873125,-1.613958 -0.873125,-0.291042 -1.508125,-0.555625 -1.799167,0.132292 -1.5875,-0.714375 -0.714375,-0.661459 -1.666875,0.3175 -0.926041,1.084792 -0.767292,0.105833 -1.74625,0.3175 -1.640417,0.529167 -1.693333,0.343958 0.846667,-0.926041 2.2225,-1.534584 1.799166,-0.47625 0.105834,-0.370416 -2.487084,0.846666 -1.957916,1.031875 -2.963333,1.11125 0.05292,0.767292 -2.38125,1.11125 -2.037291,0.661458 -1.74625,0.502709 -1.058334,0.687916 -2.804583,0.820209 -1.190625,0.740833 -2.1695834,0.687917 -0.714375,-0.105834 -1.640417,0.423334 -1.852083,0.555624 -1.613959,0.529167 -2.64583295,0.47625 0.105833,-0.291042 2.16958395,-0.740833 1.74625,-0.502708 2.275416,-0.873125 1.719792,-0.15875 1.3229174,-0.661458 2.751666,-0.9525 0.608542,-0.3175 1.508125,-0.555625 1.534583,-1.190625 1.640417,-0.926042 -1.931458,0.47625 -0.07937,-0.291042 -1.296459,0.582084 0.105834,-0.79375 -0.9525,0.555625 0.423333,-0.767292 -1.931458,0.608542 h -0.740838 l 0.978959,-0.926042 0.873125,-0.582083 -0.105834,-0.555625 -1.905,0.3175 -0.15875,-0.740834 -0.343958,-0.370416 1.058333,-0.873125 -0.105833,-0.661459 1.561042,-0.873125 2.037291,-0.873125 1.402292,-0.767291 1.084792,-0.105834 0.47625,0.238125 1.878541,-0.740833 0.661459,0.132292 1.481666,-0.47625 0.661459,-0.687917 -0.291042,-0.264583 1.5875,-0.582084 -0.740833,0.02646 -1.640417,0.3175 -0.767292,0.343958 -0.47625,-0.343958 -1.825625,0.185208 -1.217083,-0.370417 0.3175,-0.608541 -0.264583,-0.846667 2.434166,-0.635 3.4925,-0.714375 h 0.926042 l -1.137708,0.740833 2.434166,-0.05292 0.3175,-0.926042 -0.608541,-0.555625 0.211666,-0.740833 -0.185208,-0.608542 -0.873125,-0.449792 1.719791,-0.767291 1.984375,-0.05292 2.328334,-0.635 1.27,-0.687917 2.090208,-0.687916 1.27,-0.15875 2.963333,-0.635 0.820209,0.105833 2.751666,-0.740833 1.164167,0.291041 -0.132292,0.635 0.873125,-0.264583 1.666875,0.07937 -0.502708,0.3175 1.296458,0.238125 1.296459,-0.132292 1.640416,0.423334 1.905,0.15875 0.582084,0.15875 1.746249,-0.211667 1.084792,0.423333 z"
       id="path545"
       style="fill:#ececec;stroke:#000000;stroke-width:0.0529167;stroke-linecap:round;stroke-linejoin:round" />
    <path
       d="m 126.44124,174.4322 0.39688,-0.74083 0.13229,-0.76729 0.26458,-0.71438 -0.55562,-1.00541 -0.0794,-1.16417 0.82021,-1.45521 0.50271,0.18521 1.08479,0.39688 1.56104,1.42875 0.21167,0.68791 -0.89958,1.56104 -0.47625,1.24355 -0.58209,0.66145 -0.71437,0.10584 -0.21167,-0.47625 -0.34396,-0.0529 -0.44979,0.44979 z"
       id="GF"
       name="French Guiana"
       style="fill:#ececec;stroke:#000000;stroke-width:0.0529167;stroke-linecap:round;stroke-linejoin:round" />
    <path
       d="m 104.11041,157.23429 -0.13229,-0.0529 -0.13229,-0.13229 0.0265,-0.15875 0.0529,0.0794 0.10584,0.10584 0.0794,0.13229 z"
       id="AW"
       name="Aruba"
       style="fill:#ececec;stroke:#000000;stroke-width:0.0529167;stroke-linecap:round;stroke-linejoin:round" />
    <path
       d="m 115.0377,147.41825 h -0.0529 l 0.0794,-0.10584 h 0.0794 l -0.0529,0.0794 z"
       id="AI"
       name="Anguilla"
       style="fill:#ececec;stroke:#000000;stroke-width:0.0529167;stroke-linecap:round;stroke-linejoin:round" />
    <path
       class="Antigua and Barbuda"
       d="m 116.75749,149.27033 0.15875,0.0794 -0.0529,0.0794 h -0.0529 l -0.18521,0.0265 -0.0529,-0.0265 v -0.13229 l 0.0794,-0.0265 0.0265,-0.0794 h 0.0529 z"
       id="path554"
       style="fill:#ececec;stroke:#000000;stroke-width:0.0529167;stroke-linecap:round;stroke-linejoin:round" />
    <path
       class="Antigua and Barbuda"
       d="m 116.75749,148.29137 h 0.0529 l 0.0529,0.0529 0.0265,0.10583 -0.0265,0.0794 -0.0529,0.0265 -0.0265,-0.0529 -0.0794,-0.0529 v -0.13229 z"
       id="path556"
       style="fill:#ececec;stroke:#000000;stroke-width:0.0529167;stroke-linecap:round;stroke-linejoin:round" />
    <path
       class="Bahamas"
       d="m 100.80312,142.41762 -0.10583,0.13229 -0.0529,0.1323 -0.15875,0.0794 h -0.13229 l -0.0265,-0.0265 -0.10583,0.0529 -0.1323,0.0265 -0.158753,-0.0529 -0.10583,0.0265 -0.0265,-0.13229 0.0794,-0.0529 0.0529,-0.0794 0.105843,-0.0529 0.0794,-0.10583 h 0.10584 l 0.0794,-0.0529 0.0529,0.0794 0.13229,0.0529 0.13229,-0.0529 0.18521,-0.26458 h 0.0794 v 0.0529 z"
       id="path559"
       style="fill:#ececec;stroke:#000000;stroke-width:0.0529167;stroke-linecap:round;stroke-linejoin:round" />
    <path
       class="Bahamas"
       d="m 100.85604,141.96783 -0.0529,-0.15875 0.15875,-0.0794 0.0794,0.0794 v 0.0529 l -0.0794,0.0265 z"
       id="path561"
       style="fill:#ececec;stroke:#000000;stroke-width:0.0529167;stroke-linecap:round;stroke-linejoin:round" />
    <path
       class="Bahamas"
       d="m 100.96187,140.24804 0.0529,-0.0265 0.13229,0.0794 h 0.10583 l 0.10583,0.0264 0.0794,0.0529 v 0.0794 l -0.0529,0.0264 -0.13229,-0.10583 h -0.10583 l -0.0265,-0.0265 -0.13229,0.0529 -0.13229,-0.0529 v -0.0265 l 0.0529,-0.13229 z"
       id="path563"
       style="fill:#ececec;stroke:#000000;stroke-width:0.0529167;stroke-linecap:round;stroke-linejoin:round" />
    <path
       class="Bahamas"
       d="m 99.929987,139.77179 -0.0529,0.10583 v 0.18521 l -0.0265,0.10583 -0.10583,0.0794 -0.0529,0.10583 -0.10583,0.0794 -0.18521,0.0794 -0.0265,0.0529 -0.0529,-0.0529 0.0265,-0.0529 0.10583,-0.0265 0.0529,-0.0529 v -0.0529 l 0.10583,-0.0264 0.0529,-0.10584 0.10583,-0.0265 0.0794,-0.10583 -0.0529,-0.0794 h -0.10583 l -0.0529,-0.0529 0.10584,-0.13229 0.0265,-0.0265 z"
       id="path565"
       style="fill:#ececec;stroke:#000000;stroke-width:0.0529167;stroke-linecap:round;stroke-linejoin:round" />
    <path
       class="Bahamas"
       d="m 99.427287,139.69241 0.0265,0.0265 h 0.10584 l 0.10583,0.0529 -0.10583,0.10583 -0.0265,-0.0529 h -0.0529 l -0.10583,-0.0265 -0.10583,-0.0529 -0.0794,-0.15875 0.0794,-0.0265 0.10583,0.0265 z"
       id="path567"
       style="fill:#ececec;stroke:#000000;stroke-width:0.0529167;stroke-linecap:round;stroke-linejoin:round" />
    <path
       class="Bahamas"
       d="m 96.993117,138.13137 0.15875,0.18521 0.0794,0.0529 0.0794,0.13229 -0.0794,-0.0265 -0.0265,-0.0529 -0.0794,-0.0264 -0.10583,-0.10584 -0.0529,-0.0265 -0.0529,-0.10583 z"
       id="path569"
       style="fill:#ececec;stroke:#000000;stroke-width:0.0529167;stroke-linecap:round;stroke-linejoin:round" />
    <path
       class="Bahamas"
       d="m 97.972077,138.13137 0.0794,0.15875 0.0529,0.13229 v 0.10584 l 0.0529,0.0529 0.0529,0.18521 v 0.23813 l 0.0529,0.0794 0.13229,0.0529 0.10583,0.15875 v 0.21167 l -0.10583,-0.18521 v -0.0529 l -0.0794,-0.10583 -0.15875,-0.0529 0.0529,-0.0529 -0.0794,-0.0794 v -0.0794 l 0.0529,-0.0794 -0.0264,-0.13229 -0.0794,-0.10584 0.0265,-0.0264 -0.0794,-0.10584 -0.0264,-0.15875 -0.0529,0.0265 z"
       id="path571"
       style="fill:#ececec;stroke:#000000;stroke-width:0.0529167;stroke-linecap:round;stroke-linejoin:round" />
    <path
       class="Bahamas"
       d="m 98.739367,138.13137 -0.0794,0.0529 -0.0794,-0.0265 -0.0265,-0.0529 0.15875,-0.0529 z"
       id="path573"
       style="fill:#ececec;stroke:#000000;stroke-width:0.0529167;stroke-linecap:round;stroke-linejoin:round" />
    <path
       class="Bahamas"
       d="m 96.569787,137.62866 -0.0265,-0.0265 -0.0794,-0.18521 h 0.0529 z"
       id="path575"
       style="fill:#ececec;stroke:#000000;stroke-width:0.0529167;stroke-linecap:round;stroke-linejoin:round" />
    <path
       class="Bahamas"
       d="m 99.347907,137.49637 -0.10583,0.15875 h -0.10584 l 0.0529,-0.0794 0.0265,-0.15875 0.10583,-0.0794 0.0265,0.10584 z"
       id="path577"
       style="fill:#ececec;stroke:#000000;stroke-width:0.0529167;stroke-linecap:round;stroke-linejoin:round" />
    <path
       class="Bahamas"
       d="m 94.453117,137.17887 -0.0794,0.0265 -0.0529,0.0794 -0.0794,-0.0265 0.15875,-0.10584 z"
       id="path579"
       style="fill:#ececec;stroke:#000000;stroke-width:0.0529167;stroke-linecap:round;stroke-linejoin:round" />
    <path
       class="Bahamas"
       d="m 94.506037,137.36408 0.10583,0.0529 0.0529,-0.0529 0.0264,-0.13229 0.0529,-0.0265 0.0529,0.15875 v 0.13229 l -0.0265,0.0794 0.0265,0.15875 v 0.0794 l -0.10584,0.21167 -0.0529,0.0265 -0.10584,-0.0529 0.0529,-0.0794 0.10583,-0.0529 -0.0264,-0.0265 -0.15875,0.10583 -0.0529,-0.0529 0.10583,-0.0794 h -0.10583 l -0.0529,0.0265 -0.0529,-0.0529 v -0.1852 l 0.0264,-0.0529 -0.10583,-0.13229 v -0.0529 l 0.10583,-0.0529 0.0265,-0.0794 0.0794,-0.0265 0.0265,-0.0529 0.15875,-0.0794 0.0264,0.10583 -0.13229,0.10584 z"
       id="path581"
       style="fill:#ececec;stroke:#000000;stroke-width:0.0529167;stroke-linecap:round;stroke-linejoin:round" />
    <path
       class="Bahamas"
       d="m 98.077907,137.20533 0.0265,0.13229 -0.0529,-0.0265 -0.13229,0.0265 -0.10583,0.0265 -0.0265,-0.0529 0.0794,-0.0529 0.10584,-0.0794 v -0.0529 l -0.10584,-0.0529 -0.0529,-0.15875 -0.0265,-0.15875 -0.10583,-0.10583 v -0.0529 l -0.1323,-0.13229 0.0794,-0.0794 0.10583,0.10584 v 0.13229 l 0.0529,0.0794 0.0265,0.13229 0.0794,0.1323 0.10584,0.0794 0.0264,0.0794 z"
       id="path583"
       style="fill:#ececec;stroke:#000000;stroke-width:0.0529167;stroke-linecap:round;stroke-linejoin:round" />
    <path
       class="Bahamas"
       d="m 95.352697,135.75012 0.0794,0.0529 -0.15875,0.0794 -0.0794,-0.0265 -0.0529,0.0529 -0.1323,-0.0265 0.0529,-0.0794 0.10583,-0.0529 z"
       id="path585"
       style="fill:#ececec;stroke:#000000;stroke-width:0.0529167;stroke-linecap:round;stroke-linejoin:round" />
    <path
       class="Bahamas"
       d="m 94.241447,135.61783 0.10584,-0.0529 0.0794,0.0794 -0.0265,0.0529 0.0265,0.0529 -0.0529,0.10584 0.0794,0.0794 0.0529,0.23813 0.0529,0.0794 0.10584,0.13229 -0.0529,0.18521 0.0265,0.15875 -0.0529,0.0794 -0.0794,0.0264 -0.10584,0.10584 -0.0794,0.0529 h -0.0794 l -0.0794,0.0529 h -0.0794 v -0.10583 l -0.0794,-0.0529 0.0265,-0.15875 -0.0794,0.0794 -0.0529,-0.0265 -0.15875,-0.10584 -0.0794,-0.0794 -0.0529,-0.0794 0.18521,-0.0794 0.13229,0.18521 0.0265,-0.15875 -0.0794,-0.0265 -0.0265,-0.0794 0.0265,-0.0794 0.15875,-0.15875 0.0529,-0.10583 -0.0265,-0.0265 0.0794,-0.10584 v -0.13229 l -0.0529,-0.18521 0.0265,-0.0265 h 0.0794 z"
       id="path587"
       style="fill:#ececec;stroke:#000000;stroke-width:0.0529167;stroke-linecap:round;stroke-linejoin:round" />
    <path
       class="Bahamas"
       d="m 96.384577,134.92991 0.0265,0.0529 0.0794,0.10583 0.21167,0.18521 0.13229,0.0265 0.0265,0.0265 0.0529,0.10583 0.0794,0.10584 0.13229,0.10583 v 0.0529 l -0.0529,0.21166 -0.0265,0.0529 v 0.0794 l -0.0265,0.1323 -0.0529,0.0794 -0.0265,0.18521 -0.0265,0.0265 -0.0529,-0.15875 -0.10584,-0.0794 0.0265,-0.0529 0.13229,0.0265 0.0529,-0.0529 -0.0265,-0.0529 0.0265,-0.10583 0.0794,-0.10584 0.0265,-0.13229 v -0.0794 l -0.13229,-0.10584 -0.10583,-0.1852 -0.0794,-0.0529 -0.15875,-0.0794 -0.0794,-0.0794 -0.15875,-0.0529 -0.10583,0.0529 0.10583,-0.23813 z"
       id="path589"
       style="fill:#ececec;stroke:#000000;stroke-width:0.0529167;stroke-linecap:round;stroke-linejoin:round" />
    <path
       class="Bahamas"
       d="m 94.056237,132.94554 0.1323,0.0529 h 0.0264 l 0.18521,0.0264 0.0529,-0.0529 0.0529,0.0265 h 0.13229 l 0.10583,-0.0529 h 0.10583 l 0.0794,-0.0529 0.0265,0.13229 -0.0265,0.0529 h -0.0794 -0.10583 l -0.29104,0.0529 h -0.0794 l -0.39687,0.10583 -0.18521,0.10583 h -0.10583 l -0.0529,-0.0265 -0.0794,-0.0794 -0.1323,-0.15875 0.15875,0.0794 0.0265,0.0529 h 0.13229 l 0.1323,-0.0529 0.10583,-0.15875 -0.0794,-0.0265 0.0529,-0.0794 0.0265,-0.0794 z"
       id="path591"
       style="fill:#ececec;stroke:#000000;stroke-width:0.0529167;stroke-linecap:round;stroke-linejoin:round" />
    <path
       class="Bahamas"
       d="m 95.193947,132.60158 0.21167,0.0529 0.0529,-0.0265 0.10583,0.0794 0.23812,0.26459 0.0529,0.15875 0.10583,0.0265 0.18521,0.13229 v 0.0529 l -0.0529,0.1323 0.0529,0.1852 h -0.10583 l -0.13229,0.10584 -0.0265,0.0529 -0.0794,0.26459 -0.0265,0.23812 -0.0529,0.0529 -0.0794,-0.0529 -0.0265,-0.10583 -0.10584,-0.0265 0.0794,-0.13229 h 0.0529 l 0.1323,-0.10583 -0.0265,-0.10584 0.0529,-0.10583 v -0.0794 l 0.0529,-0.0794 v -0.15875 l 0.0529,-0.0265 0.0529,-0.0794 0.0265,-0.0794 -0.0794,-0.0265 -0.13229,-0.0265 -0.0265,-0.0794 v -0.0529 l -0.10584,-0.0529 v -0.0794 l -0.0794,-0.18521 -0.0529,-0.0265 -0.0794,0.0265 -0.13229,-0.0265 h -0.0794 l -0.15875,-0.10583 z"
       id="path593"
       style="fill:#ececec;stroke:#000000;stroke-width:0.0529167;stroke-linecap:round;stroke-linejoin:round" />
    <path
       d="m 115.30229,147.97387 -0.0265,-0.0794 0.0794,0.0265 z"
       id="BL"
       name="Saint-Barthlemy"
       style="fill:#ececec;stroke:#000000;stroke-width:0.0529167;stroke-linecap:round;stroke-linejoin:round" />
    <path
       d="m 115.85791,123.36762 h -0.0794 l -0.0265,0.0265 0.0265,0.0529 -0.10584,0.0529 -0.0265,-0.0265 0.0529,-0.0265 h 0.0265 l 0.0265,-0.0794 0.0794,-0.0265 z"
       id="BM"
       name="Bermuda"
       style="fill:#ececec;stroke:#000000;stroke-width:0.0529167;stroke-linecap:round;stroke-linejoin:round" />
    <path
       d="m 119.61499,156.17595 -0.15875,-0.0529 -0.0265,-0.13229 v -0.21167 l 0.0529,-0.10583 0.0529,0.0529 0.0529,0.15875 0.13229,0.0794 0.0265,0.10583 z"
       id="BB"
       name="Barbados"
       style="fill:#ececec;stroke:#000000;stroke-width:0.0529167;stroke-linecap:round;stroke-linejoin:round" />
    <path
       d="m 105.72437,157.89575 h -0.0794 l -0.10583,-0.0794 -0.0794,-0.0265 -0.0794,-0.0794 -0.0265,-0.0529 -0.0794,-0.0265 -0.0529,-0.10583 -0.0794,-0.0794 0.0265,-0.13229 0.1323,0.0794 0.0265,0.13229 0.10584,0.10583 0.18521,0.0529 0.0529,0.0794 0.0794,0.10584 z"
       id="CW"
       name="Curaao"
       style="fill:#ececec;stroke:#000000;stroke-width:0.0529167;stroke-linecap:round;stroke-linejoin:round" />
    <path
       class="Cayman Islands"
       d="m 88.182487,145.53971 0.0794,0.0265 0.0529,-0.10583 0.10583,0.0265 h 0.13229 l 0.0265,0.0529 -0.0529,0.0529 -0.0529,-0.0265 -0.10584,0.0265 -0.0529,0.0265 h -0.18521 z"
       id="path623"
       style="fill:#ececec;stroke:#000000;stroke-width:0.0529167;stroke-linecap:round;stroke-linejoin:round" />
    <path
       class="Cayman Islands"
       d="m 90.325617,144.87825 -0.18521,0.0794 0.0529,-0.0794 z"
       id="path625"
       style="fill:#ececec;stroke:#000000;stroke-width:0.0529167;stroke-linecap:round;stroke-linejoin:round" />
    <path
       class="Cayman Islands"
       d="m 90.484367,144.90471 -0.0265,-0.0265 0.21167,-0.0794 -0.0529,0.0794 z"
       id="path627"
       style="fill:#ececec;stroke:#000000;stroke-width:0.0529167;stroke-linecap:round;stroke-linejoin:round" />
    <path
       d="m 117.10145,151.86325 0.13229,0.0265 0.0529,0.1323 v 0.15875 l -0.0265,0.21166 -0.0265,0.0529 -0.0529,0.0265 -0.10584,0.0529 0.0265,-0.10583 -0.0265,-0.0529 -0.0265,-0.1852 -0.0794,-0.1323 v -0.0794 l 0.0265,-0.0794 v -0.0794 h 0.0529 z"
       id="DM"
       name="Dominica"
       style="fill:#ececec;stroke:#000000;stroke-width:0.0529167;stroke-linecap:round;stroke-linejoin:round" />
    <path
       class="Falkland Islands"
       d="m 131.75937,266.8247 0.10583,-0.0265 v 0.10583 l -0.21166,-0.0794 0.0794,-0.0794 0.0529,-0.0265 z"
       id="path634"
       style="fill:#ececec;stroke:#000000;stroke-width:0.0529167;stroke-linecap:round;stroke-linejoin:round" />
    <path
       class="Falkland Islands"
       d="m 131.57416,266.45429 0.0529,0.0529 0.10583,0.0265 0.0265,0.10584 -0.0794,0.0265 -0.0264,-0.10583 -0.0529,-0.0529 z"
       id="path636"
       style="fill:#ececec;stroke:#000000;stroke-width:0.0529167;stroke-linecap:round;stroke-linejoin:round" />
    <path
       class="Falkland Islands"
       d="m 133.21458,266.24262 0.0529,0.0265 -0.0265,0.10583 -0.0794,-0.0265 -0.0529,-0.0794 0.0794,-0.0529 z"
       id="path638"
       style="fill:#ececec;stroke:#000000;stroke-width:0.0529167;stroke-linecap:round;stroke-linejoin:round" />
    <path
       class="Falkland Islands"
       d="m 130.01312,266.0045 v 0.0529 l 0.0265,0.0794 -0.10584,0.0265 -0.0794,-0.0265 -0.0529,-0.0529 -0.0794,-0.0265 -0.0265,-0.10583 h 0.0529 l 0.0264,-0.0529 0.0794,-0.0265 0.0529,0.0265 -0.0794,0.0794 0.0794,0.0265 0.0794,-0.0794 z"
       id="path640"
       style="fill:#ececec;stroke:#000000;stroke-width:0.0529167;stroke-linecap:round;stroke-linejoin:round" />
    <path
       class="Falkland Islands"
       d="m 130.78041,265.66054 -0.10583,-0.0529 -0.13229,-0.0794 -0.21167,-0.0794 0.0265,-0.10583 -0.18521,-0.0265 -0.0794,-0.0265 -0.0794,-0.10583 0.0529,-0.0265 0.21166,0.0794 0.21167,0.10584 0.13229,0.0265 0.10583,0.0264 0.0794,-0.0794 0.0265,-0.0794 0.0529,0.0265 0.10584,-0.0529 0.0265,0.0529 h 0.13229 v 0.0794 h 0.0794 l 0.23813,-0.0529 0.0265,0.0529 h 0.0794 l 0.10583,-0.0265 -0.0794,-0.0529 -0.0265,-0.0794 h 0.10583 l 0.15875,0.0529 0.0265,0.10584 -0.10583,0.13229 0.0265,0.0794 -0.0529,0.0529 h -0.10583 l -0.0794,0.21167 -0.0794,0.0794 -0.0794,0.15875 -0.0265,0.0794 -0.13229,0.0794 -0.0265,-0.0529 h -0.10583 v 0.0794 l -0.21167,-0.0265 -0.0265,0.0265 0.0794,0.10583 -0.0265,0.0265 -0.0529,0.10584 h -0.10584 l -0.0794,0.10583 -0.0794,0.0265 h -0.0529 l -0.0529,-0.0794 -0.10583,-0.0794 v -0.0529 h -0.1323 l 0.15875,0.10583 h -0.10583 l -0.13229,-0.0794 -0.0529,-0.0265 -0.10583,-0.0529 -0.0794,-0.0529 v -0.0529 l 0.18521,0.0529 0.15875,-0.0529 -0.13229,-0.0529 -0.0265,-0.0265 h 0.23813 l 0.10583,0.0265 0.0794,0.0529 v -0.0529 l 0.10583,-0.0265 0.0265,-0.0794 -0.10584,-0.0529 -0.0529,-0.13229 0.0265,-0.0529 h 0.15875 l 0.0529,0.0264 0.10584,-0.0264 -0.0265,-0.0794 h -0.21167 v 0.0265 l -0.10583,0.0529 h -0.15875 l -0.13229,-0.0794 v -0.0794 l 0.1852,0.0529 0.15875,-0.0529 h 0.0794 l 0.13229,-0.0265 0.10583,0.0529 v -0.0264 z"
       id="path642"
       style="fill:#ececec;stroke:#000000;stroke-width:0.0529167;stroke-linecap:round;stroke-linejoin:round" />
    <path
       class="Falkland Islands"
       d="m 131.20374,265.15783 h 0.0794 l 0.0794,0.0794 -0.0794,0.0265 h -0.0794 z"
       id="path644"
       style="fill:#ececec;stroke:#000000;stroke-width:0.0529167;stroke-linecap:round;stroke-linejoin:round" />
    <path
       class="Falkland Islands"
       d="m 130.93916,265.15783 h -0.0794 l -0.0265,-0.0794 0.10583,0.0265 z"
       id="path646"
       style="fill:#ececec;stroke:#000000;stroke-width:0.0529167;stroke-linecap:round;stroke-linejoin:round" />
    <path
       class="Falkland Islands"
       d="m 130.56874,265.10491 0.15875,-0.0265 0.0529,0.0794 -0.0794,0.10583 -0.0529,-0.0265 -0.0794,0.0265 -0.0794,-0.0529 0.0794,-0.0529 0.0794,0.0529 0.0265,-0.0529 -0.13229,-0.0265 z"
       id="path648"
       style="fill:#ececec;stroke:#000000;stroke-width:0.0529167;stroke-linecap:round;stroke-linejoin:round" />
    <path
       class="Falkland Islands"
       d="m 132.47374,265.13137 h 0.15875 l 0.0265,-0.0265 0.13229,-0.0265 0.10584,0.0529 0.10583,0.0794 0.0265,0.0794 v 0.0265 l -0.13229,0.0265 -0.0529,-0.0794 -0.0529,-0.0265 -0.0265,0.0794 0.0529,0.0265 0.0265,0.0794 0.0794,-0.0529 0.0529,0.0264 0.0265,0.10584 0.0794,0.0265 0.0265,-0.0265 0.1323,0.0794 0.0265,-0.10583 -0.21166,-0.0529 0.0265,-0.13229 0.0794,-0.0529 0.39688,-0.0264 0.1852,0.15875 0.0529,0.0264 v 0.10584 l -0.15875,-0.0265 -0.13229,-0.0529 -0.15875,0.0529 0.0794,0.0529 0.10584,0.0264 0.23812,0.0265 0.0794,0.0265 0.0265,0.0529 -0.0529,0.13229 h -0.13229 l -0.0265,0.0265 -0.18521,0.0265 -0.13229,0.0529 0.0794,0.0529 -0.23812,0.10583 -0.10583,-0.0265 -0.1323,0.0265 h -0.1852 l -0.15875,-0.0529 -0.15875,-0.10584 v 0.0794 l 0.0794,0.0529 0.15875,0.0529 0.0794,0.0794 0.0529,-0.0265 0.10584,0.0265 0.10583,0.0794 -0.0529,0.0265 0.0529,0.13229 h -0.0529 l -0.0794,-0.0794 -0.10584,-0.0265 -0.13229,0.10583 -0.0529,-0.0794 -0.0794,-0.0529 h -0.0794 l -0.1323,-0.0529 -0.0529,0.0265 0.0529,0.10583 h 0.0794 l 0.0529,0.0529 -0.0529,0.0265 0.18521,0.15875 -0.0529,0.0265 -0.10583,-0.0529 h -0.0794 l -0.0794,-0.0794 -0.0794,-0.0265 -0.0794,-0.0265 -0.0265,0.15875 0.13229,0.0265 v 0.0794 l -0.0265,0.0529 -0.10583,-0.0265 -0.0265,-0.0529 -0.13229,-0.0529 -0.0265,-0.0529 h -0.0529 l -0.10583,-0.13229 0.0794,-0.10583 v -0.0529 l -0.10584,-0.13229 v -0.0529 l 0.13229,-0.0529 -0.0264,-0.0529 0.13229,-0.0265 -0.0265,-0.0794 0.15875,-0.10583 0.15875,-0.0529 0.10583,0.10584 v 0.10583 l 0.0794,-0.0265 -0.13229,-0.15875 0.0264,-0.0794 -0.15875,-0.0529 -0.10583,-0.0794 0.0265,-0.0529 0.10583,0.0529 0.0265,-0.1323 -0.18521,-0.0529 0.0265,-0.0794 0.0529,0.0265 0.0794,-0.0529 h 0.0794 l 0.0529,-0.0794 -0.0794,-0.0794 h 0.10583 z"
       id="path650"
       style="fill:#ececec;stroke:#000000;stroke-width:0.0529167;stroke-linecap:round;stroke-linejoin:round" />
    <path
       class="Falkland Islands"
       d="m 131.15083,265.02554 h 0.18521 l 0.0529,0.0529 0.0529,-0.0529 0.0529,0.0265 0.0529,0.0794 -0.0529,0.0265 -0.10584,-0.0265 -0.10583,-0.0529 -0.21167,-0.0265 0.0265,-0.0529 z"
       id="path652"
       style="fill:#ececec;stroke:#000000;stroke-width:0.0529167;stroke-linecap:round;stroke-linejoin:round" />
    <path
       class="Falkland Islands"
       d="m 129.35166,264.7345 -0.13229,-0.0265 0.0265,-0.0529 z"
       id="path654"
       style="fill:#ececec;stroke:#000000;stroke-width:0.0529167;stroke-linecap:round;stroke-linejoin:round" />
    <path
       class="Faeroe Islands"
       d="m 200.07478,75.21346 0.10584,0.05292 h 0.0794 l 0.0265,0.05292 v 0.105834 l 0.0529,0.07937 -0.0265,0.05292 -0.15875,-0.105833 -0.0529,-0.105833 -0.0529,-0.05292 -0.0529,-0.07937 z"
       id="path656"
       style="fill:#ececec;stroke:#000000;stroke-width:0.0529167;stroke-linecap:round;stroke-linejoin:round" />
    <path
       class="Faeroe Islands"
       d="m 200.15416,74.790127 0.21167,0.05292 0.0529,0.05292 -0.0265,0.105833 -0.0264,0.02646 -0.10584,-0.132292 -0.13229,-0.02646 -0.0529,-0.105834 z"
       id="path658"
       style="fill:#ececec;stroke:#000000;stroke-width:0.0529167;stroke-linecap:round;stroke-linejoin:round" />
    <path
       class="Faeroe Islands"
       d="m 199.81549,74.430293 0.0212,0.04233 h 0.0794 v 0.07938 h -0.10583 l -0.0529,0.05292 -0.15875,-0.05292 -0.0529,-0.02646 -0.0529,-0.07937 0.13229,-0.02646 0.0265,-0.02646 0.14741,0.02458 -0.068,-0.05104 0.0529,-0.211666 0.13229,0.02646 0.0794,0.132292 v 0.02646 l 0.15875,0.05292 0.0794,0.132291 0.0794,0.05292 -0.0265,0.15875 -0.13229,-0.105833 -0.0529,-0.05292 -0.0529,-0.02646 -0.0265,-0.05292 -0.0529,-0.05292 h -0.13229 z"
       id="path660"
       style="fill:#ececec;stroke:#000000;stroke-width:0.0529167;stroke-linecap:round;stroke-linejoin:round" />
    <path
       class="Faeroe Islands"
       d="m 200.78916,74.26096 -0.0529,-0.05292 0.0794,-0.05292 z"
       id="path662"
       style="fill:#ececec;stroke:#000000;stroke-width:0.0529167;stroke-linecap:round;stroke-linejoin:round" />
    <path
       class="Faeroe Islands"
       d="m 200.15416,74.393252 -0.10583,-0.05292 -0.0794,-0.07937 -0.0265,-0.07937 0.0265,-0.02646 0.10583,-0.02646 h 0.0794 l 0.15875,0.105834 -0.0265,0.05292 0.0265,0.05292 0.15875,0.05292 v 0.05292 l -0.10583,0.07937 z"
       id="path664"
       style="fill:#ececec;stroke:#000000;stroke-width:0.0529167;stroke-linecap:round;stroke-linejoin:round" />
    <path
       class="Faeroe Islands"
       d="m 200.73624,74.234502 -0.0794,0.105833 -0.0794,-0.05292 h -0.0794 l 0.0529,-0.07937 -0.0264,-0.105833 0.0264,-0.02646 0.0529,0.105833 z"
       id="path666"
       style="fill:#ececec;stroke:#000000;stroke-width:0.0529167;stroke-linecap:round;stroke-linejoin:round" />
    <path
       class="Faeroe Islands"
       d="m 200.49812,74.234502 h -0.0529 l -0.0529,-0.105834 0.0265,-0.07937 0.0529,0.105834 z"
       id="path668"
       style="fill:#ececec;stroke:#000000;stroke-width:0.0529167;stroke-linecap:round;stroke-linejoin:round" />
    <path
       d="m 116.36062,157.89575 -0.10583,0.0794 -0.0529,-0.0265 -0.0265,-0.13229 0.0529,-0.13229 0.0794,-0.10583 h 0.0794 l 0.0265,0.0794 -0.0265,0.18521 z"
       id="GD"
       name="Grenada"
       style="fill:#ececec;stroke:#000000;stroke-width:0.0529167;stroke-linecap:round;stroke-linejoin:round" />
    <path
       class="Saint Kitts and Nevis"
       d="m 115.59333,149.29679 h -0.0794 l -0.0265,-0.0529 0.0529,-0.10583 h 0.0529 l 0.0265,0.0529 z"
       id="path678"
       style="fill:#ececec;stroke:#000000;stroke-width:0.0529167;stroke-linecap:round;stroke-linejoin:round" />
    <path
       class="Saint Kitts and Nevis"
       d="m 115.40812,148.89991 -0.0265,0.0794 h -0.0529 l -0.10583,-0.0529 -0.0529,-0.0529 0.0794,-0.10584 0.13229,0.10584 z"
       id="path680"
       style="fill:#ececec;stroke:#000000;stroke-width:0.0529167;stroke-linecap:round;stroke-linejoin:round" />
    <path
       d="m 117.55124,155.0647 -0.0529,-0.0529 -0.10584,-0.0529 -0.0265,-0.0529 v -0.15875 l 0.0265,-0.0529 0.18521,-0.29104 0.0794,0.0529 v 0.18521 l -0.0265,0.21167 -0.0265,0.10583 z"
       id="LC"
       name="Saint Lucia"
       style="fill:#ececec;stroke:#000000;stroke-width:0.0529167;stroke-linecap:round;stroke-linejoin:round" />
    <path
       d="m 115.0377,147.70929 -0.10583,-0.0265 0.0529,-0.0794 0.0794,-0.0265 z"
       id="MF"
       name="Saint-Martin"
       style="fill:#ececec;stroke:#000000;stroke-width:0.0529167;stroke-linecap:round;stroke-linejoin:round" />
    <path
       d="m 116.09604,149.7995 0.0529,0.10583 v 0.0794 l -0.0529,0.0529 -0.0529,-0.0265 -0.0265,-0.0794 z"
       id="MS"
       name="Montserrat"
       style="fill:#ececec;stroke:#000000;stroke-width:0.0529167;stroke-linecap:round;stroke-linejoin:round" />
    <path
       class="Puerto Rico"
       d="m 107.86749,147.68283 -0.0794,-0.0529 0.0265,-0.0529 h 0.0794 l 0.0265,0.0265 z"
       id="path725"
       style="fill:#ececec;stroke:#000000;stroke-width:0.0529167;stroke-linecap:round;stroke-linejoin:round" />
    <path
       class="Puerto Rico"
       d="m 111.73041,147.55054 h -0.0529 l -0.23812,0.0794 h -0.15875 l 0.0529,-0.0529 0.10583,-0.0529 0.10583,-0.0265 0.15875,0.0265 z"
       id="path727"
       style="fill:#ececec;stroke:#000000;stroke-width:0.0529167;stroke-linecap:round;stroke-linejoin:round" />
    <path
       class="Puerto Rico"
       d="m 109.21687,146.91554 0.15875,0.0265 h 0.15875 l 0.0794,0.0265 0.15875,-0.0265 0.0794,0.0265 0.10583,-0.0265 0.0529,0.0265 0.13229,-0.0265 0.10583,0.0265 h 0.0794 l 0.21167,0.0529 v -0.0529 l 0.15875,0.0529 0.0265,-0.0265 0.21167,0.0265 0.0529,0.0529 h 0.0529 l 0.15875,0.0794 0.0529,-0.0265 -0.0265,0.1852 0.0529,0.0794 -0.23813,0.0794 -0.0794,0.10584 -0.0794,0.15875 -0.0794,0.0529 -0.0794,0.0265 h -0.10583 l -0.15875,0.0265 -0.0794,0.0529 -0.18521,-0.0265 -0.0529,-0.0529 -0.13229,0.0529 -0.0794,-0.0794 -0.1852,0.0529 -0.23813,-0.0265 -0.0794,0.0265 -0.15875,0.0265 -0.0529,0.0265 -0.0529,-0.0529 -0.10583,-0.0265 -0.0794,0.0529 -0.15875,-0.0265 0.0794,-0.18521 v -0.10583 l 0.0529,-0.10583 -0.0529,-0.15875 -0.0529,-0.0265 -0.0265,-0.10584 0.10584,-0.0529 0.0529,-0.0265 v -0.13229 l 0.10584,-0.0529 z"
       id="path729"
       style="fill:#ececec;stroke:#000000;stroke-width:0.0529167;stroke-linecap:round;stroke-linejoin:round" />
    <path
       class="French Polynesia"
       d="m -1.0879244,225.31158 -0.02646,-0.0265 -0.05292,-0.0794 0.02646,-0.0529 0.07938,0.0529 z"
       id="path731"
       style="fill:#ececec;stroke:#000000;stroke-width:0.0529167;stroke-linecap:round;stroke-linejoin:round" />
    <path
       class="French Polynesia"
       d="m 1.6372836,215.23095 -0.02646,0.0265 -0.07937,-0.0529 0.05292,-0.0529 z"
       id="path733"
       style="fill:#ececec;stroke:#000000;stroke-width:0.0529167;stroke-linecap:round;stroke-linejoin:round" />
    <path
       class="French Polynesia"
       d="m -0.00313235,208.69575 -0.05292,-0.0265 0.05292,-0.15875 0.132291,-0.10584 h 0.07937 v 0.0529 l -0.05292,0.10583 z"
       id="path735"
       style="fill:#ececec;stroke:#000000;stroke-width:0.0529167;stroke-linecap:round;stroke-linejoin:round" />
    <path
       class="French Polynesia"
       d="m -12.623757,208.43116 0.185208,0.0529 0.07938,0.10583 v 0.0794 l -0.05292,0.0265 -0.132291,-0.0265 -0.105834,-0.15875 -0.02646,-0.0529 -0.15875,0.0529 h -0.05292 l -0.15875,-0.0265 -0.05292,-0.10583 -0.07938,-0.1323 v -0.0794 l 0.02646,-0.0529 0.132292,-0.0265 h 0.132291 l 0.132292,0.0529 0.05292,0.10583 0.02646,0.15875 z"
       id="path737"
       style="fill:#ececec;stroke:#000000;stroke-width:0.0529167;stroke-linecap:round;stroke-linejoin:round" />
    <path
       class="French Polynesia"
       d="m -13.417507,208.03429 -0.05292,0.15875 -0.132292,-0.0529 0.02646,-0.0794 0.132291,-0.0529 z"
       id="path739"
       style="fill:#ececec;stroke:#000000;stroke-width:0.0529167;stroke-linecap:round;stroke-linejoin:round" />
    <path
       class="French Polynesia"
       d="m -15.428341,206.89658 -0.05292,0.0265 -0.05292,-0.0794 0.07938,-0.0265 z"
       id="path741"
       style="fill:#ececec;stroke:#000000;stroke-width:0.0529167;stroke-linecap:round;stroke-linejoin:round" />
    <path
       class="French Polynesia"
       d="m -15.983966,207.00241 -0.07937,0.0529 h -0.07938 l -0.05292,-0.21167 0.05292,-0.0529 0.185209,0.21166 z"
       id="path743"
       style="fill:#ececec;stroke:#000000;stroke-width:0.0529167;stroke-linecap:round;stroke-linejoin:round" />
    <path
       class="French Polynesia"
       d="m -16.248549,206.52616 0.05292,0.0265 v 0.13229 l -0.105834,-0.0529 -0.02646,-0.0794 z"
       id="path745"
       style="fill:#ececec;stroke:#000000;stroke-width:0.0529167;stroke-linecap:round;stroke-linejoin:round" />
    <path
       class="French Polynesia"
       d="m -8.7608414,205.75887 -0.07937,0.0265 0.02646,-0.0794 z"
       id="path747"
       style="fill:#ececec;stroke:#000000;stroke-width:0.0529167;stroke-linecap:round;stroke-linejoin:round" />
    <path
       class="French Polynesia"
       d="m 1.2933256,196.26033 h -0.07937 v -0.10583 l -0.05292,-0.0794 0.105833,0.0265 0.02646,0.10583 z"
       id="path749"
       style="fill:#ececec;stroke:#000000;stroke-width:0.0529167;stroke-linecap:round;stroke-linejoin:round" />
    <path
       class="French Polynesia"
       d="m 0.47311665,195.33429 h -0.05292 v -0.10584 l 0.05292,-0.0794 0.07937,0.0529 -0.05292,0.0529 z"
       id="path751"
       style="fill:#ececec;stroke:#000000;stroke-width:0.0529167;stroke-linecap:round;stroke-linejoin:round" />
    <path
       class="French Polynesia"
       d="m 0.79061665,194.91095 v 0.0794 l -0.105833,0.0265 h -0.15875 v 0.0794 l -0.105833,-0.0265 -0.05292,-0.0529 -0.02646,-0.0794 0.185208,-0.10583 h 0.07937 l 0.05292,0.0529 z"
       id="path753"
       style="fill:#ececec;stroke:#000000;stroke-width:0.0529167;stroke-linecap:round;stroke-linejoin:round" />
    <path
       class="French Polynesia"
       d="m -1.0350074,194.22304 v 0.10583 0.0529 h -0.07937 l -0.07937,-0.10584 0.07937,-0.0794 z"
       id="path755"
       style="fill:#ececec;stroke:#000000;stroke-width:0.0529167;stroke-linecap:round;stroke-linejoin:round" />
    <path
       class="French Polynesia"
       d="m -0.40000735,193.42929 0.07938,0.0265 0.02646,0.0264 -0.15875,0.0529 -0.02646,-0.0794 z"
       id="path757"
       style="fill:#ececec;stroke:#000000;stroke-width:0.0529167;stroke-linecap:round;stroke-linejoin:round" />
    <path
       class="French Polynesia"
       d="m -1.3789664,193.27054 0.238125,0.0265 0.07938,0.0794 v 0.0529 l -0.105833,0.0794 h -0.211667 l -0.02646,-0.13229 -0.02646,-0.10583 z"
       id="path759"
       style="fill:#ececec;stroke:#000000;stroke-width:0.0529167;stroke-linecap:round;stroke-linejoin:round" />
    <path
       d="m 115.0377,147.70929 v 0.0265 l -0.10583,-0.0265 v -0.0265 z"
       id="SX"
       name="Sint Maarten"
       style="fill:#ececec;stroke:#000000;stroke-width:0.0529167;stroke-linecap:round;stroke-linejoin:round" />
    <path
       class="Turks and Caicos Islands"
       d="m 102.73458,141.25346 h 0.18521 l 0.0794,0.10583 h -0.0794 l -0.0794,-0.0265 -0.13229,0.0265 -0.0265,-0.0794 z"
       id="path838"
       style="fill:#ececec;stroke:#000000;stroke-width:0.0529167;stroke-linecap:round;stroke-linejoin:round" />
    <path
       class="Turks and Caicos Islands"
       d="m 102.0202,141.227 0.0794,0.10583 0.15875,-0.0265 -0.0529,0.0529 h -0.15875 l -0.10583,-0.0529 z"
       id="path840"
       style="fill:#ececec;stroke:#000000;stroke-width:0.0529167;stroke-linecap:round;stroke-linejoin:round" />
    <path
       class="Turks and Caicos Islands"
       d="m 102.60229,141.06825 v 0.13229 l -0.1323,-0.0529 -0.0264,-0.0794 0.0264,-0.0265 z"
       id="path842"
       style="fill:#ececec;stroke:#000000;stroke-width:0.0529167;stroke-linecap:round;stroke-linejoin:round" />
    <path
       class="Trinidad and Tobago"
       d="m 117.31312,159.93304 -0.0529,0.13229 -0.0794,0.10583 -0.0529,0.0265 -0.0265,0.10583 0.0529,0.15875 -0.0529,0.0265 v 0.18521 l 0.0529,0.0794 0.0529,0.0529 -0.0529,0.0529 -0.0265,0.0794 v 0.18521 l -0.0529,0.0265 -0.10583,0.0529 -0.13229,0.0265 h -0.0794 l -0.13229,0.0264 -0.13229,-0.0264 -0.10583,0.0264 -0.0794,-0.0264 -0.13229,0.0529 -0.10583,-0.0529 h -0.15875 l -0.0794,0.0529 -0.0794,-0.0265 0.13229,-0.0529 0.0794,-0.0794 0.10584,-0.0265 0.10583,-0.0794 0.0529,-0.0794 0.15875,0.0265 0.0794,-0.10583 -0.0529,-0.21167 0.0529,-0.10583 v -0.13229 -0.0529 l -0.0794,-0.10583 -0.0794,-0.0265 -0.10583,-0.0265 -0.0265,-0.0265 0.10583,-0.0794 0.29105,-0.0265 0.0529,-0.0529 h 0.29104 l 0.0265,-0.0265 0.3175,-0.0529 z"
       id="path854"
       style="fill:#ececec;stroke:#000000;stroke-width:0.0529167;stroke-linecap:round;stroke-linejoin:round" />
    <path
       class="Trinidad and Tobago"
       d="m 117.94812,159.08637 -0.0265,0.13229 -0.0794,0.0265 -0.10584,0.0794 h -0.0529 l -0.18521,0.10583 -0.0529,-0.0529 0.0794,-0.0794 0.1852,-0.13229 z"
       id="path856"
       style="fill:#ececec;stroke:#000000;stroke-width:0.0529167;stroke-linecap:round;stroke-linejoin:round" />
    <path
       d="m 117.15437,156.0172 -0.0265,0.0265 -0.13229,-0.0794 v -0.10584 l 0.0529,-0.0794 0.0529,-0.13229 h 0.10584 l 0.0265,0.10583 -0.0265,0.21167 z"
       id="VC"
       name="Saint Vincent and the Grenadines"
       style="fill:#ececec;stroke:#000000;stroke-width:0.0529167;stroke-linecap:round;stroke-linejoin:round" />
    <path
       d="m 112.89458,147.02137 -0.10584,0.0529 h -0.0265 l -0.0794,0.0529 -0.0265,-0.0265 0.0265,-0.0794 0.15875,-0.0265 z"
       id="VG"
       name="British Virgin Islands"
       style="fill:#ececec;stroke:#000000;stroke-width:0.0529167;stroke-linecap:round;stroke-linejoin:round" />
    <path
       class="United States Virgin Islands"
       d="m 112.47124,148.18554 0.0794,0.0794 -0.29104,0.0529 -0.0265,-0.13229 0.18521,-0.0529 z"
       id="path861"
       style="fill:#ececec;stroke:#000000;stroke-width:0.0529167;stroke-linecap:round;stroke-linejoin:round" />
    <path
       class="United States Virgin Islands"
       d="m 112.65645,147.18012 -0.0529,0.0529 h -0.1323 v -0.0529 l 0.0794,-0.0265 z"
       id="path863"
       style="fill:#ececec;stroke:#000000;stroke-width:0.0529167;stroke-linecap:round;stroke-linejoin:round" />
    <path
       class="United States Virgin Islands"
       d="m 112.28604,147.12721 0.10583,0.0794 -0.0529,0.0529 -0.0794,-0.0529 h -0.13229 l 0.0529,-0.0529 z"
       id="path865"
       style="fill:#ececec;stroke:#000000;stroke-width:0.0529167;stroke-linecap:round;stroke-linejoin:round" />
    <path
       d="m 106.51812,157.9222 h -0.0529 l -0.0265,-0.13229 0.0265,-0.0794 -0.0265,-0.0794 -0.10583,-0.0265 -0.0794,-0.0794 0.0264,-0.0794 0.3175,0.15875 -0.0264,0.0529 v 0.10583 l -0.0529,0.0529 z"
       id="BQBO"
       name="Netherlands"
       style="fill:#ececec;stroke:#000000;stroke-width:0.0529167;stroke-linecap:round;stroke-linejoin:round" />
    <path
       d="m 115.06416,148.66179 -0.0529,0.0265 v -0.0529 l 0.0265,-0.0265 z"
       id="BQSE"
       name="St. Eustatius (Netherlands)"
       style="fill:#ececec;stroke:#000000;stroke-width:0.0529167;stroke-linecap:round;stroke-linejoin:round" />
    <path
       d="m 114.66729,148.42366 h -0.0265 l 0.0265,-0.0529 0.0265,0.0265 z"
       id="BQSA"
       name="Saba (Netherlands)"
       style="fill:#ececec;stroke:#000000;stroke-width:0.0529167;stroke-linecap:round;stroke-linejoin:round" />
    <path
       d="m 117.63062,153.23908 v 0.0529 l 0.10583,-0.0265 -0.0529,0.13229 0.0529,0.0529 v 0.0529 l 0.0529,0.0529 0.0529,0.23812 -0.0794,0.0794 -0.0265,-0.10583 -0.0265,0.0264 -0.15875,-0.0264 h -0.10583 l -0.0529,-0.0794 0.15875,-0.13229 h -0.10583 l -0.10583,-0.10583 -0.0265,-0.1323 -0.0529,-0.13229 0.0794,-0.10583 0.10583,0.0265 0.13229,0.0794 z"
       id="MQ"
       name="Martinique"
       style="fill:#ececec;stroke:#000000;stroke-width:0.0529167;stroke-linecap:round;stroke-linejoin:round" />
    <path
       class="Guadeloupe"
       d="m 117.36604,151.387 h -0.0794 l -0.0529,-0.10584 0.0265,-0.0529 0.0794,-0.0794 0.0794,0.0529 0.0265,0.0794 v 0.0529 z"
       id="path927"
       style="fill:#ececec;stroke:#000000;stroke-width:0.0529167;stroke-linecap:round;stroke-linejoin:round" />
    <path
       class="Guadeloupe"
       d="m 116.88979,150.69908 h 0.0794 v 0.0529 0.0265 l -0.0529,0.0264 v 0.21167 0.10583 l -0.0529,0.0529 -0.15875,0.0794 v -0.0529 l -0.0529,-0.0529 -0.0265,-0.13229 v -0.13229 l -0.0265,-0.13229 v -0.0794 l 0.0529,-0.0794 0.0794,-0.0265 0.13229,0.0794 z"
       id="path929"
       style="fill:#ececec;stroke:#000000;stroke-width:0.0529167;stroke-linecap:round;stroke-linejoin:round" />
    <path
       class="Guadeloupe"
       d="m 117.2602,150.59325 0.10584,0.0265 0.13229,0.10583 -0.34396,0.0794 -0.0794,0.0265 -0.10583,-0.0794 0.0265,-0.15875 0.0529,-0.0265 -0.0265,-0.15875 0.0265,-0.0529 0.0794,-0.0529 0.0794,0.10583 v 0.10583 z"
       id="path931"
       style="fill:#ececec;stroke:#000000;stroke-width:0.0529167;stroke-linecap:round;stroke-linejoin:round" />
  </g>
</svg>
